<svg xmlns="http://www.w3.org/2000/svg" height="18" width="18" viewBox="0 0 18 18"><title>18 arrow corner up left</title><g fill="#000000" class="nc-icon-wrapper"><path d="M10.75,13.5H2c-.414,0-.75-.336-.75-.75s.336-.75,.75-.75H10.75c.689,0,1.25-.561,1.25-1.25V2c0-.414,.336-.75,.75-.75s.75,.336,.75,.75V10.75c0,1.517-1.233,2.75-2.75,2.75Z" data-color="color-2"></path><path d="M16.25,6c-.192,0-.384-.073-.53-.22l-2.97-2.97-2.97,2.97c-.293,.293-.768,.293-1.061,0s-.293-.768,0-1.061l3.5-3.5c.293-.293,.768-.293,1.061,0l3.5,3.5c.293,.293,.293,.768,0,1.061-.146,.146-.338,.22-.53,.22Z"></path><path d="M5.25,17c-.192,0-.384-.073-.53-.22l-3.5-3.5c-.293-.293-.293-.768,0-1.061l3.5-3.5c.293-.293,.768-.293,1.061,0s.293,.768,0,1.061l-2.97,2.97,2.97,2.97c.293,.293,.293,.768,0,1.061-.146,.146-.338,.22-.53,.22Z"></path></g></svg>