<svg xmlns="http://www.w3.org/2000/svg" height="18" width="18" viewBox="0 0 18 18"><title>18 arrows opposite direction y</title><g fill="#000000" class="nc-icon-wrapper"><path d="M14.47,11.97l-1.97,1.97V7.75c0-.414-.336-.75-.75-.75s-.75,.336-.75,.75v6.189l-1.97-1.97c-.293-.293-.768-.293-1.061,0s-.293,.768,0,1.061l3.25,3.25c.146,.146,.338,.22,.53,.22s.384-.073,.53-.22l3.25-3.25c.293-.293,.293-.768,0-1.061s-.768-.293-1.061,0Z" data-color="color-2"></path><path d="M8.97,6.03c.146,.146,.338,.22,.53,.22s.384-.073,.53-.22c.293-.293,.293-.768,0-1.061L6.78,1.72c-.293-.293-.768-.293-1.061,0l-3.25,3.25c-.293,.293-.293,.768,0,1.061s.768,.293,1.061,0l1.97-1.97v6.189c0,.414,.336,.75,.75,.75s.75-.336,.75-.75V4.061l1.97,1.97Z"></path></g></svg>