<svg xmlns="http://www.w3.org/2000/svg" height="18" width="18" viewBox="0 0 18 18"><title>18 arrow down to line</title><g fill="#000000" class="nc-icon-wrapper"><path d="M8.47,12.78c.146,.146,.338,.22,.53,.22s.384-.073,.53-.22l4-4c.293-.293,.293-.768,0-1.061s-.768-.293-1.061,0l-2.72,2.72V2.75c0-.414-.336-.75-.75-.75s-.75,.336-.75,.75v7.689l-2.72-2.72c-.293-.293-.768-.293-1.061,0s-.293,.768,0,1.061l4,4Z"></path><path d="M15.25,14.5H2.75c-.414,0-.75,.336-.75,.75s.336,.75,.75,.75H15.25c.414,0,.75-.336,.75-.75s-.336-.75-.75-.75Z" data-color="color-2"></path></g></svg>