<svg xmlns="http://www.w3.org/2000/svg" height="18" width="18" viewBox="0 0 18 18"><title>18 arrow triangle line up</title><g fill="#000000" class="nc-icon-wrapper"><path d="M9,16.5c-.414,0-.75-.336-.75-.75V7.75c0-.414,.336-.75,.75-.75s.75,.336,.75,.75V15.75c0,.414-.336,.75-.75,.75Z" data-color="color-2"></path><path d="M10.035,2.033c-.466-.688-1.604-.688-2.07,0l-3.058,4.517c-.26,.384-.286,.877-.069,1.287,.217,.41,.641,.664,1.104,.664h6.115c.463,0,.887-.254,1.104-.664,.217-.409,.191-.902-.069-1.287l-3.058-4.517Z"></path></g></svg>