<svg xmlns="http://www.w3.org/2000/svg" height="18" width="18" viewBox="0 0 18 18"><title>18 app stack</title><g fill="#000000" class="nc-icon-wrapper"><path d="M5.314,15h-1.564c-1.516,0-2.75-1.233-2.75-2.75V5.75c0-1.517,1.234-2.75,2.75-2.75h1.564v1.5h-1.564c-.689,0-1.25,.561-1.25,1.25v6.5c0,.689,.561,1.25,1.25,1.25h1.564v1.5Z" data-color="color-2"></path><path d="M14.25,15h-1.564v-1.5h1.564c.689,0,1.25-.561,1.25-1.25V5.75c0-.689-.561-1.25-1.25-1.25h-1.564v-1.5h1.564c1.516,0,2.75,1.233,2.75,2.75v6.5c0,1.517-1.234,2.75-2.75,2.75Z" data-color="color-2"></path><rect x="4.5" y="1.5" width="9" height="15" rx="2.75" ry="2.75"></rect></g></svg>