<svg xmlns="http://www.w3.org/2000/svg" height="18" width="18" viewBox="0 0 18 18"><title>18 arrow move to top</title><g fill="#000000" class="nc-icon-wrapper"><path d="M15.25,14.5H2.75c-.414,0-.75,.336-.75,.75s.336,.75,.75,.75H15.25c.414,0,.75-.336,.75-.75s-.336-.75-.75-.75Z"></path><path d="M15.25,9.5h-3.25c-.414,0-.75,.336-.75,.75s.336,.75,.75,.75h3.25c.414,0,.75-.336,.75-.75s-.336-.75-.75-.75Z"></path><path d="M2.75,11h3.25c.414,0,.75-.336,.75-.75s-.336-.75-.75-.75H2.75c-.414,0-.75,.336-.75,.75s.336,.75,.75,.75Z"></path><path d="M6.28,6.53l1.97-1.97v7.689c0,.414,.336,.75,.75,.75s.75-.336,.75-.75V4.561l1.97,1.97c.146,.146,.338,.22,.53,.22s.384-.073,.53-.22c.293-.293,.293-.768,0-1.061l-3.25-3.25c-.293-.293-.768-.293-1.061,0l-3.25,3.25c-.293,.293-.293,.768,0,1.061s.768,.293,1.061,0Z" data-color="color-2"></path></g></svg>