<svg xmlns="http://www.w3.org/2000/svg" height="18" width="18" viewBox="0 0 18 18"><title>18 arrows expand diagonal 5</title><g fill="#000000" class="nc-icon-wrapper"><rect x=".868" y="8.25" width="16.263" height="1.5" transform="translate(-3.728 9) rotate(-45)" data-color="color-2"></rect><path d="M14.75,10.01c-.414,0-.75-.336-.75-.75V4h-5.26c-.414,0-.75-.336-.75-.75s.336-.75,.75-.75h6.01c.414,0,.75,.336,.75,.75v6.01c0,.414-.336,.75-.75,.75Z"></path><path d="M9.26,15.5H3.25c-.414,0-.75-.336-.75-.75v-6.01c0-.414,.336-.75,.75-.75s.75,.336,.75,.75v5.26h5.26c.414,0,.75,.336,.75,.75s-.336,.75-.75,.75Z"></path></g></svg>