<svg xmlns="http://www.w3.org/2000/svg" height="18" width="18" viewBox="0 0 18 18"><title>18 arrow to corner top left</title><g fill="#000000" class="nc-icon-wrapper"><path d="M9.561,8.5h3.7c.414,0,.75-.336,.75-.75s-.336-.75-.75-.75H7.75c-.414,0-.75,.336-.75,.75v5.51c0,.414,.336,.75,.75,.75s.75-.336,.75-.75v-3.7l6.22,6.22c.146,.146,.338,.22,.53,.22s.384-.073,.53-.22c.293-.293,.293-.768,0-1.061l-6.22-6.22Z" data-color="color-2"></path><path d="M15,2.75c0-.414-.336-.75-.75-.75H4.75c-1.517,0-2.75,1.233-2.75,2.75V14.25c0,.414,.336,.75,.75,.75s.75-.336,.75-.75V4.75c0-.689,.561-1.25,1.25-1.25H14.25c.414,0,.75-.336,.75-.75Z"></path></g></svg>