<svg xmlns="http://www.w3.org/2000/svg" height="18" width="18" viewBox="0 0 18 18"><title>18 arrow corner bottom right</title><g fill="#000000" class="nc-icon-wrapper"><path d="M5.25,16.75c-.414,0-.75-.336-.75-.75V7.25c0-1.517,1.233-2.75,2.75-2.75h8.75c.414,0,.75,.336,.75,.75s-.336,.75-.75,.75H7.25c-.689,0-1.25,.561-1.25,1.25v8.75c0,.414-.336,.75-.75,.75Z" data-color="color-2"></path><path d="M12.75,9.5c-.192,0-.384-.073-.53-.22-.293-.293-.293-.768,0-1.061l2.97-2.97-2.97-2.97c-.293-.293-.293-.768,0-1.061s.768-.293,1.061,0l3.5,3.5c.293,.293,.293,.768,0,1.061l-3.5,3.5c-.146,.146-.338,.22-.53,.22Z"></path><path d="M5.25,17c-.192,0-.384-.073-.53-.22l-3.5-3.5c-.293-.293-.293-.768,0-1.061s.768-.293,1.061,0l2.97,2.97,2.97-2.97c.293-.293,.768-.293,1.061,0s.293,.768,0,1.061l-3.5,3.5c-.146,.146-.338,.22-.53,.22Z"></path></g></svg>