<svg xmlns="http://www.w3.org/2000/svg" height="18" width="18" viewBox="0 0 18 18"><title>18 arrow down left</title><g fill="#000000" class="nc-icon-wrapper"><path d="M4,14.75c-.192,0-.384-.073-.53-.22-.293-.293-.293-.768,0-1.061L13.72,3.22c.293-.293,.768-.293,1.061,0s.293,.768,0,1.061L4.53,14.53c-.146,.146-.338,.22-.53,.22Z" data-color="color-2"></path><path d="M9.761,15H3.75c-.414,0-.75-.336-.75-.75v-6.01c0-.414,.336-.75,.75-.75s.75,.336,.75,.75v5.26h5.261c.414,0,.75,.336,.75,.75s-.336,.75-.75,.75Z"></path></g></svg>