<svg xmlns="http://www.w3.org/2000/svg" height="18" width="18" viewBox="0 0 18 18"><title>18 arrow down</title><g fill="#000000" class="nc-icon-wrapper"><path d="M9,15.75c-.414,0-.75-.336-.75-.75V2.75c0-.414,.336-.75,.75-.75s.75,.336,.75,.75V15c0,.414-.336,.75-.75,.75Z" data-color="color-2"></path><path d="M9,16c-.192,0-.384-.073-.53-.22l-4.25-4.25c-.293-.293-.293-.768,0-1.061s.768-.293,1.061,0l3.72,3.72,3.72-3.72c.293-.293,.768-.293,1.061,0s.293,.768,0,1.061l-4.25,4.25c-.146,.146-.338,.22-.53,.22Z"></path></g></svg>