<svg xmlns="http://www.w3.org/2000/svg" height="18" width="18" viewBox="0 0 18 18"><title>18 axis dotted x</title><g fill="#000000" class="nc-icon-wrapper"><path d="M16.768,10.22l-2.475-2.475c-.293-.293-.768-.293-1.061,0s-.293,.768,0,1.061l1.195,1.195H7.25c-.414,0-.75,.336-.75,.75s.336,.75,.75,.75h7.177l-1.195,1.195c-.293,.293-.293,.768,0,1.061,.146,.146,.338,.22,.53,.22s.384-.073,.53-.22l2.475-2.475c.293-.293,.293-.768,0-1.061Z" data-color="color-2"></path><path d="M6.75,2.5c.414,0,.75-.336,.75-.75s-.336-.75-.75-.75-.75,.336-.75,.75,.336,.75,.75,.75Z"></path><path d="M6.75,5.5c.414,0,.75-.336,.75-.75s-.336-.75-.75-.75-.75,.336-.75,.75,.336,.75,.75,.75Z"></path><path d="M6.75,8.5c.414,0,.75-.336,.75-.75s-.336-.75-.75-.75-.75,.336-.75,.75,.336,.75,.75,.75Z"></path><circle cx="1.25" cy="16.75" r=".75"></circle><circle cx="3.25" cy="14.75" r=".75"></circle><circle cx="5.25" cy="12.75" r=".75"></circle></g></svg>