<svg xmlns="http://www.w3.org/2000/svg" height="18" width="18" viewBox="0 0 18 18"><title>18 arrow turn up 2</title><g fill="#000000" class="nc-icon-wrapper"><path d="M7.75,16H3.75c-.414,0-.75-.336-.75-.75s.336-.75,.75-.75H7.75c.689,0,1.25-.561,1.25-1.25V3c0-.414,.336-.75,.75-.75s.75,.336,.75,.75V13.25c0,1.517-1.233,2.75-2.75,2.75Z" data-color="color-2"></path><path d="M14,7.75c-.192,0-.384-.073-.53-.22l-3.72-3.72-3.72,3.72c-.293,.293-.768,.293-1.061,0s-.293-.768,0-1.061L9.22,2.22c.293-.293,.768-.293,1.061,0l4.25,4.25c.293,.293,.293,.768,0,1.061-.146,.146-.338,.22-.53,.22Z"></path></g></svg>