<svg xmlns="http://www.w3.org/2000/svg" height="18" width="18" viewBox="0 0 18 18"><title>18 arrow to corner top right</title><g fill="#000000" class="nc-icon-wrapper"><path d="M10.25,7H4.74c-.414,0-.75,.336-.75,.75s.336,.75,.75,.75h3.7L2.22,14.72c-.293,.293-.293,.768,0,1.061,.146,.146,.338,.22,.53,.22s.384-.073,.53-.22l6.22-6.22v3.7c0,.414,.336,.75,.75,.75s.75-.336,.75-.75V7.75c0-.414-.336-.75-.75-.75Z" data-color="color-2"></path><path d="M13.25,2H3.75c-.414,0-.75,.336-.75,.75s.336,.75,.75,.75H13.25c.689,0,1.25,.561,1.25,1.25V14.25c0,.414,.336,.75,.75,.75s.75-.336,.75-.75V4.75c0-1.517-1.233-2.75-2.75-2.75Z"></path></g></svg>