<svg xmlns="http://www.w3.org/2000/svg" height="18" width="18" viewBox="0 0 18 18"><title>18 axis dotted z</title><g fill="#000000" class="nc-icon-wrapper"><path d="M7.78,10.22c-.293-.293-.768-.293-1.061,0L2.5,14.439v-1.689c0-.414-.336-.75-.75-.75s-.75,.336-.75,.75v3.5c0,.414,.336,.75,.75,.75h3.5c.414,0,.75-.336,.75-.75s-.336-.75-.75-.75h-1.689l4.22-4.22c.293-.293,.293-.768,0-1.061Z" data-color="color-2"></path><path d="M7.25,2.5c.414,0,.75-.336,.75-.75s-.336-.75-.75-.75-.75,.336-.75,.75,.336,.75,.75,.75Z"></path><path d="M7.25,5.5c.414,0,.75-.336,.75-.75s-.336-.75-.75-.75-.75,.336-.75,.75,.336,.75,.75,.75Z"></path><path d="M7.25,8.5c.414,0,.75-.336,.75-.75s-.336-.75-.75-.75-.75,.336-.75,.75,.336,.75,.75,.75Z"></path><circle cx="16.25" cy="10.75" r=".75"></circle><circle cx="13.25" cy="10.75" r=".75"></circle><circle cx="10.25" cy="10.75" r=".75"></circle></g></svg>