<svg xmlns="http://www.w3.org/2000/svg" height="18" width="18" viewBox="0 0 18 18"><title>18 balance off 2</title><g fill="#000000" class="nc-icon-wrapper"><path d="M16.267,8.317L2.003,5.708c-.406-.073-.798,.196-.873,.603s.195,.798,.603,.873l14.264,2.609c.045,.008,.091,.012,.136,.012,.355,0,.67-.253,.737-.615,.075-.407-.195-.798-.603-.873Z" data-color="color-2"></path><path d="M10.135,10.155c-.474-.82-1.797-.82-2.271,0l-2.816,4.878c-.237,.411-.237,.9,0,1.311,.237,.41,.662,.655,1.135,.655h5.633c.474,0,.898-.245,1.135-.655,.237-.411,.237-.9,0-1.311l-2.816-4.878Z"></path><circle cx="14" cy="4" r="3"></circle><circle cx="3.25" cy="2.75" r="2.25"></circle></g></svg>