<svg xmlns="http://www.w3.org/2000/svg" height="18" width="18" viewBox="0 0 18 18"><title>18 ballot rect</title><g fill="#000000" class="nc-icon-wrapper"><rect x="2" y="2" width="6" height="6" rx="1.75" ry="1.75"></rect><rect x="2" y="10" width="6" height="6" rx="1.75" ry="1.75"></rect><path d="M10.25,6h5c.414,0,.75-.336,.75-.75s-.336-.75-.75-.75h-5c-.414,0-.75,.336-.75,.75s.336,.75,.75,.75Z" data-color="color-2"></path><path d="M15.25,12h-5c-.414,0-.75,.336-.75,.75s.336,.75,.75,.75h5c.414,0,.75-.336,.75-.75s-.336-.75-.75-.75Z" data-color="color-2"></path></g></svg>