<svg xmlns="http://www.w3.org/2000/svg" height="18" width="18" viewBox="0 0 18 18"><title>18 bars filter</title><g fill="#000000" class="nc-icon-wrapper"><path d="M12.75,8.25H5.25c-.414,0-.75,.336-.75,.75s.336,.75,.75,.75h7.5c.414,0,.75-.336,.75-.75s-.336-.75-.75-.75Z" data-color="color-2"></path><path d="M15.25,3.5H2.75c-.414,0-.75,.336-.75,.75s.336,.75,.75,.75H15.25c.414,0,.75-.336,.75-.75s-.336-.75-.75-.75Z"></path><path d="M10,13h-2c-.414,0-.75,.336-.75,.75s.336,.75,.75,.75h2c.414,0,.75-.336,.75-.75s-.336-.75-.75-.75Z"></path></g></svg>