<svg xmlns="http://www.w3.org/2000/svg" height="18" width="18" viewBox="0 0 18 18"><title>18 border top right</title><g fill="#000000" class="nc-icon-wrapper"><circle cx="9" cy="15.25" r=".75"></circle><circle cx="9" cy="12.125" r=".75"></circle><circle cx="9" cy="9" r=".75"></circle><circle cx="9" cy="5.875" r=".75"></circle><circle cx="12.125" cy="9" r=".75"></circle><circle cx="5.875" cy="9" r=".75"></circle><circle cx="2.75" cy="9" r=".75"></circle><circle cx="12.125" cy="15.25" r=".75"></circle><circle cx="5.875" cy="15.25" r=".75"></circle><circle cx="2.75" cy="15.25" r=".75"></circle><circle cx="2.75" cy="12.125" r=".75"></circle><circle cx="2.75" cy="5.875" r=".75"></circle><path d="M15.25,2H2.75c-.414,0-.75,.336-.75,.75s.336,.75,.75,.75H14.5V15.25c0,.414,.336,.75,.75,.75s.75-.336,.75-.75V2.75c0-.414-.336-.75-.75-.75Z" data-color="color-2"></path></g></svg>