<svg xmlns="http://www.w3.org/2000/svg" height="18" width="18" viewBox="0 0 18 18"><title>18 border bottom right</title><g fill="#000000" class="nc-icon-wrapper"><circle cx="2.75" cy="9" r=".75"></circle><circle cx="5.875" cy="9" r=".75"></circle><circle cx="9" cy="9" r=".75"></circle><circle cx="12.125" cy="9" r=".75"></circle><circle cx="9" cy="12.125" r=".75"></circle><circle cx="9" cy="5.875" r=".75"></circle><circle cx="9" cy="2.75" r=".75"></circle><circle cx="2.75" cy="12.125" r=".75"></circle><circle cx="2.75" cy="5.875" r=".75"></circle><circle cx="2.75" cy="2.75" r=".75"></circle><circle cx="5.875" cy="2.75" r=".75"></circle><circle cx="12.125" cy="2.75" r=".75"></circle><path d="M15.25,2c-.414,0-.75,.336-.75,.75V14.5H2.75c-.414,0-.75,.336-.75,.75s.336,.75,.75,.75H15.25c.414,0,.75-.336,.75-.75V2.75c0-.414-.336-.75-.75-.75Z" data-color="color-2"></path></g></svg>