<svg xmlns="http://www.w3.org/2000/svg" height="18" width="18" viewBox="0 0 18 18"><title>18 brackets square</title><g fill="#000000" class="nc-icon-wrapper"><path d="M14.25,2h-2.25c-.414,0-.75,.336-.75,.75s.336,.75,.75,.75h2.25c.138,0,.25,.112,.25,.25V14.25c0,.138-.112,.25-.25,.25h-2.25c-.414,0-.75,.336-.75,.75s.336,.75,.75,.75h2.25c.965,0,1.75-.785,1.75-1.75V3.75c0-.965-.785-1.75-1.75-1.75Z" data-color="color-2"></path><path d="M3.75,3.5h2.25c.414,0,.75-.336,.75-.75s-.336-.75-.75-.75H3.75c-.965,0-1.75,.785-1.75,1.75V14.25c0,.965,.785,1.75,1.75,1.75h2.25c.414,0,.75-.336,.75-.75s-.336-.75-.75-.75H3.75c-.138,0-.25-.112-.25-.25V3.75c0-.138,.112-.25,.25-.25Z"></path></g></svg>