<svg xmlns="http://www.w3.org/2000/svg" height="18" width="18" viewBox="0 0 18 18"><title>18 blockquote</title><g fill="#000000" class="nc-icon-wrapper"><path d="M15.25,15H5.75c-.414,0-.75-.336-.75-.75s.336-.75,.75-.75H15.25c.414,0,.75,.336,.75,.75s-.336,.75-.75,.75Z"></path><path d="M15.25,11.5H5.75c-.414,0-.75-.336-.75-.75s.336-.75,.75-.75H15.25c.414,0,.75,.336,.75,.75s-.336,.75-.75,.75Z"></path><path d="M15.25,7.5H2.75c-.414,0-.75-.336-.75-.75s.336-.75,.75-.75H15.25c.414,0,.75,.336,.75,.75s-.336,.75-.75,.75Z"></path><path d="M15.25,4H2.75c-.414,0-.75-.336-.75-.75s.336-.75,.75-.75H15.25c.414,0,.75,.336,.75,.75s-.336,.75-.75,.75Z"></path><path d="M2.75,16c-.414,0-.75-.336-.75-.75v-5.5c0-.414,.336-.75,.75-.75s.75,.336,.75,.75v5.5c0,.414-.336,.75-.75,.75Z" data-color="color-2"></path></g></svg>