<svg xmlns="http://www.w3.org/2000/svg" height="18" width="18" viewBox="0 0 18 18"><title>18 chevron maximize diagonal 2</title><g fill="#000000" class="nc-icon-wrapper"><path d="M8.25,3H3.75c-.414,0-.75,.336-.75,.75v4.5c0,.414,.336,.75,.75,.75s.75-.336,.75-.75v-3.75h3.75c.414,0,.75-.336,.75-.75s-.336-.75-.75-.75Z"></path><path d="M14.25,9c-.414,0-.75,.336-.75,.75v3.75h-3.75c-.414,0-.75,.336-.75,.75s.336,.75,.75,.75h4.5c.414,0,.75-.336,.75-.75v-4.5c0-.414-.336-.75-.75-.75Z" data-color="color-2"></path></g></svg>