<svg xmlns="http://www.w3.org/2000/svg" height="18" width="18" viewBox="0 0 18 18"><title>18 circle half dotted sparkle</title><g fill="#000000" class="nc-icon-wrapper"><path d="m9,1c-.4141,0-.75.3359-.75.75s.3359.75.75.75c3.584,0,6.5,2.916,6.5,6.5s-2.916,6.5-6.5,6.5c-.4141,0-.75.3359-.75.75s.3359.75.75.75c4.4111,0,8-3.5889,8-8S13.4111,1,9,1Z" stroke-width="0"></path><circle cx="3.873" cy="14.127" r=".75" stroke-width="0"></circle><circle cx="1.75" cy="9" r=".75" stroke-width="0"></circle><circle cx="3.873" cy="3.873" r=".75" stroke-width="0"></circle><circle cx="6.226" cy="15.698" r=".75" stroke-width="0"></circle><circle cx="2.302" cy="11.7739" r=".75" stroke-width="0"></circle><circle cx="2.302" cy="6.2261" r=".75" stroke-width="0"></circle><circle cx="6.226" cy="2.302" r=".75" stroke-width="0"></circle><path d="m9,13c.3413,0,.6396-.2305.7261-.561l.5596-2.1533,2.1533-.5596c.3306-.0864.561-.3848.561-.7261s-.2305-.6396-.561-.7261l-2.1533-.5596-.5596-2.1533c-.0864-.3306-.3848-.561-.7261-.561s-.6396.2305-.7261.561l-.5596,2.1533-2.1533.5596c-.3306.0864-.561.3848-.561.7261s.2305.6396.561.7261l2.1533.5596.5596,2.1533c.0864.3306.3848.561.7261.561Z" stroke-width="0" data-color="color-2"></path></g></svg>