<svg xmlns="http://www.w3.org/2000/svg" height="18" width="18" viewBox="0 0 18 18"><title>18 calendar grid</title><g fill="#000000" class="nc-icon-wrapper"><rect x="2.25" y="10" width="13.5" height="1.5" data-color="color-2"></rect><rect x="6" y="6.25" width="1.5" height="9" data-color="color-2"></rect><rect x="10.5" y="6.25" width="1.5" height="9" data-color="color-2"></rect><path d="M5.75,3.5c-.414,0-.75-.336-.75-.75V.75c0-.414,.336-.75,.75-.75s.75,.336,.75,.75V2.75c0,.414-.336,.75-.75,.75Z"></path><path d="M12.25,3.5c-.414,0-.75-.336-.75-.75V.75c0-.414,.336-.75,.75-.75s.75,.336,.75,.75V2.75c0,.414-.336,.75-.75,.75Z"></path><path d="M13.75,2H4.25c-1.517,0-2.75,1.233-2.75,2.75V13.25c0,1.517,1.233,2.75,2.75,2.75H13.75c1.517,0,2.75-1.233,2.75-2.75V4.75c0-1.517-1.233-2.75-2.75-2.75Zm0,12.5H4.25c-.689,0-1.25-.561-1.25-1.25V7H15v6.25c0,.689-.561,1.25-1.25,1.25Z"></path></g></svg>