<svg xmlns="http://www.w3.org/2000/svg" height="18" width="18" viewBox="0 0 18 18"><title>18 circle xmark</title><g fill="#000000" class="nc-icon-wrapper"><path d="M9,1C4.589,1,1,4.589,1,9s3.589,8,8,8,8-3.589,8-8S13.411,1,9,1Zm3.28,10.22c.293,.293,.293,.768,0,1.061-.146,.146-.338,.22-.53,.22s-.384-.073-.53-.22l-2.22-2.22-2.22,2.22c-.146,.146-.338,.22-.53,.22s-.384-.073-.53-.22c-.293-.293-.293-.768,0-1.061l2.22-2.22-2.22-2.22c-.293-.293-.293-.768,0-1.061s.768-.293,1.061,0l2.22,2.22,2.22-2.22c.293-.293,.768-.293,1.061,0s.293,.768,0,1.061l-2.22,2.22,2.22,2.22Z"></path></g></svg>