<svg xmlns="http://www.w3.org/2000/svg" height="18" width="18" viewBox="0 0 18 18"><title>18 chart column trend down</title><g fill="#000000" class="nc-icon-wrapper"><path d="M14.25,15.5c-.414,0-.75-.336-.75-.75v-3.5c0-.414,.336-.75,.75-.75s.75,.336,.75,.75v3.5c0,.414-.336,.75-.75,.75Z"></path><path d="M3.75,15.5c-.414,0-.75-.336-.75-.75v-6.5c0-.414,.336-.75,.75-.75s.75,.336,.75,.75v6.5c0,.414-.336,.75-.75,.75Z"></path><path d="M10.75,15.5c-.414,0-.75-.336-.75-.75v-6.5c0-.414,.336-.75,.75-.75s.75,.336,.75,.75v6.5c0,.414-.336,.75-.75,.75Z"></path><path d="M7.25,15.5c-.414,0-.75-.336-.75-.75v-3.5c0-.414,.336-.75,.75-.75s.75,.336,.75,.75v3.5c0,.414-.336,.75-.75,.75Z"></path><path d="M15.25,8.5c-.192,0-.384-.073-.53-.22l-3.47-3.47-3.116,3.116c-.487,.487-1.28,.487-1.768,0L2.22,3.78c-.293-.293-.293-.768,0-1.061s.768-.293,1.061,0l3.97,3.97,3.116-3.116c.487-.487,1.28-.487,1.768,0l3.646,3.646c.293,.293,.293,.768,0,1.061-.146,.146-.338,.22-.53,.22Z" data-color="color-2"></path></g></svg>