<svg xmlns="http://www.w3.org/2000/svg" height="18" width="18" viewBox="0 0 18 18"><title>18 caret reduce y</title><g fill="#000000" class="nc-icon-wrapper"><path d="M11.348,2.5H6.652c-.463,0-.887,.254-1.104,.664-.217,.409-.191,.902,.069,1.287l2.348,3.468c.233,.344,.62,.549,1.035,.549s.802-.206,1.035-.549l2.348-3.468c.26-.384,.286-.877,.069-1.287-.217-.41-.641-.664-1.104-.664Z"></path><path d="M10.035,10.081c-.466-.688-1.604-.688-2.07,0l-2.348,3.468c-.26,.384-.286,.877-.069,1.287,.217,.41,.641,.664,1.104,.664h4.696c.463,0,.887-.254,1.104-.664,.217-.409,.191-.902-.069-1.287l-2.348-3.468Z" data-color="color-2"></path></g></svg>