<svg xmlns="http://www.w3.org/2000/svg" height="18" width="18" viewBox="0 0 18 18"><title>18 chevron up right down left</title><g fill="#000000" class="nc-icon-wrapper"><path d="M11.25,5.25c-.192,0-.384-.073-.53-.22l-1.72-1.72-1.72,1.72c-.293,.293-.768,.293-1.061,0s-.293-.768,0-1.061l2.25-2.25c.293-.293,.768-.293,1.061,0l2.25,2.25c.293,.293,.293,.768,0,1.061-.146,.146-.338,.22-.53,.22Z"></path><path d="M9,16.5c-.192,0-.384-.073-.53-.22l-2.25-2.25c-.293-.293-.293-.768,0-1.061s.768-.293,1.061,0l1.72,1.72,1.72-1.72c.293-.293,.768-.293,1.061,0s.293,.768,0,1.061l-2.25,2.25c-.146,.146-.338,.22-.53,.22Z"></path><path d="M4.5,12c-.192,0-.384-.073-.53-.22l-2.25-2.25c-.293-.293-.293-.768,0-1.061l2.25-2.25c.293-.293,.768-.293,1.061,0s.293,.768,0,1.061l-1.72,1.72,1.72,1.72c.293,.293,.293,.768,0,1.061-.146,.146-.338,.22-.53,.22Z" data-color="color-2"></path><path d="M13.5,12c-.192,0-.384-.073-.53-.22-.293-.293-.293-.768,0-1.061l1.72-1.72-1.72-1.72c-.293-.293-.293-.768,0-1.061s.768-.293,1.061,0l2.25,2.25c.293,.293,.293,.768,0,1.061l-2.25,2.25c-.146,.146-.338,.22-.53,.22Z" data-color="color-2"></path></g></svg>