<svg xmlns="http://www.w3.org/2000/svg" height="18" width="18" viewBox="0 0 18 18"><title>18 divider y dotted</title><g fill="#000000" class="nc-icon-wrapper"><path d="m15.25,2H2.75c-.414,0-.75.336-.75.75v1c0,1.517,1.233,2.75,2.75,2.75h8.5c1.517,0,2.75-1.233,2.75-2.75v-1c0-.414-.336-.75-.75-.75Z" stroke-width="0"></path><path d="m13.25,11.5H4.75c-1.517,0-2.75,1.233-2.75,2.75v1c0,.414.336.75.75.75h12.5c.414,0,.75-.336.75-.75v-1c0-1.517-1.233-2.75-2.75-2.75Z" stroke-width="0"></path><circle cx="15.25" cy="9" r=".75" stroke-width="0" data-color="color-2"></circle><circle cx="12.125" cy="9" r=".75" stroke-width="0" data-color="color-2"></circle><circle cx="9" cy="9" r=".75" stroke-width="0" data-color="color-2"></circle><circle cx="5.875" cy="9" r=".75" stroke-width="0" data-color="color-2"></circle><circle cx="2.75" cy="9" r=".75" stroke-width="0" data-color="color-2"></circle></g></svg>