<svg xmlns="http://www.w3.org/2000/svg" height="18" width="18" viewBox="0 0 18 18"><title>18 dice 2</title><g fill="#000000" class="nc-icon-wrapper"><path d="M13.25,2H4.75c-1.517,0-2.75,1.233-2.75,2.75V13.25c0,1.517,1.233,2.75,2.75,2.75H13.25c1.517,0,2.75-1.233,2.75-2.75V4.75c0-1.517-1.233-2.75-2.75-2.75ZM7.707,7.707c-.391,.391-1.024,.391-1.414,0-.391-.39-.391-1.024,0-1.414,.391-.391,1.024-.391,1.414,0,.391,.39,.391,1.024,0,1.414Zm4,4c-.391,.391-1.024,.391-1.414,0-.391-.39-.391-1.024,0-1.414,.391-.391,1.024-.391,1.414,0,.391,.39,.391,1.024,0,1.414Z"></path></g></svg>