<svg xmlns="http://www.w3.org/2000/svg" height="18" width="18" viewBox="0 0 18 18"><title>18 divider x</title><g fill="#000000" class="nc-icon-wrapper"><path d="m15.25,2h-1c-1.517,0-2.75,1.233-2.75,2.75v8.5c0,1.517,1.233,2.75,2.75,2.75h1c.414,0,.75-.336.75-.75V2.75c0-.414-.336-.75-.75-.75Z" stroke-width="0"></path><path d="m3.75,2h-1c-.414,0-.75.336-.75.75v12.5c0,.414.336.75.75.75h1c1.517,0,2.75-1.233,2.75-2.75V4.75c0-1.517-1.233-2.75-2.75-2.75Z" stroke-width="0"></path><path d="m9,1.25c-.414,0-.75.336-.75.75v14c0,.414.336.75.75.75s.75-.336.75-.75V2c0-.414-.336-.75-.75-.75Z" stroke-width="0" data-color="color-2"></path></g></svg>