<svg xmlns="http://www.w3.org/2000/svg" height="18" width="18" viewBox="0 0 18 18"><title>18 diagram gantt</title><g fill="#000000" class="nc-icon-wrapper"><path d="M16.25,14.5h-2c-.414,0-.75,.336-.75,.75s.336,.75,.75,.75h2c.414,0,.75-.336,.75-.75s-.336-.75-.75-.75Z" data-color="color-2"></path><path d="M11,7.25c0-.414-.336-.75-.75-.75H3.75c-.414,0-.75,.336-.75,.75s.336,.75,.75,.75h6.5c.414,0,.75-.336,.75-.75Z" data-color="color-2"></path><path d="M15,11.25c0-.414-.336-.75-.75-.75H7.75c-.414,0-.75,.336-.75,.75s.336,.75,.75,.75h6.5c.414,0,.75-.336,.75-.75Z"></path><path d="M4.5,3.25c0-.414-.336-.75-.75-.75H1.75c-.414,0-.75,.336-.75,.75s.336,.75,.75,.75H3.75c.414,0,.75-.336,.75-.75Z"></path></g></svg>