<svg xmlns="http://www.w3.org/2000/svg" height="18" width="18" viewBox="0 0 18 18"><title>18 equalizer 2</title><g fill="#000000" class="nc-icon-wrapper"><path d="m7.5,10H2.25c-.4141,0-.75.3359-.75.75s.3359.75.75.75h5.25c.4141,0,.75-.3359.75-.75s-.3359-.75-.75-.75Z" stroke-width="0" data-color="color-2"></path><path d="m7.5,13.5H2.25c-.4141,0-.75.3359-.75.75s.3359.75.75.75h5.25c.4141,0,.75-.3359.75-.75s-.3359-.75-.75-.75Z" stroke-width="0" data-color="color-2"></path><path d="m15.75,10h-5.25c-.4141,0-.75.3359-.75.75s.3359.75.75.75h5.25c.4141,0,.75-.3359.75-.75s-.3359-.75-.75-.75Z" stroke-width="0"></path><path d="m15.75,13.5h-5.25c-.4141,0-.75.3359-.75.75s.3359.75.75.75h5.25c.4141,0,.75-.3359.75-.75s-.3359-.75-.75-.75Z" stroke-width="0"></path><path d="m15.75,6.5h-5.25c-.4141,0-.75.3359-.75.75s.3359.75.75.75h5.25c.4141,0,.75-.3359.75-.75s-.3359-.75-.75-.75Z" stroke-width="0"></path><path d="m15.75,3h-5.25c-.4141,0-.75.3359-.75.75s.3359.75.75.75h5.25c.4141,0,.75-.3359.75-.75s-.3359-.75-.75-.75Z" stroke-width="0"></path></g></svg>