<svg xmlns="http://www.w3.org/2000/svg" height="18" width="18" viewBox="0 0 18 18"><title>18 edit easing</title><g fill="#000000" class="nc-icon-wrapper"><path d="M11,5.5h.215c.26,.445,.733,.75,1.285,.75,.828,0,1.5-.672,1.5-1.5s-.672-1.5-1.5-1.5c-.552,0-1.025,.305-1.285,.75H5v1.5h.75c1.59,0,2.005,1.169,2.516,3.651,.232,1.125,.496,2.391,1.116,3.349h-2.596c-.26-.445-.733-.75-1.285-.75-.828,0-1.5,.672-1.5,1.5s.672,1.5,1.5,1.5c.552,0,1.025-.305,1.285-.75h6.215v-1.5h-.75c-1.59,0-2.005-1.169-2.516-3.651-.232-1.125-.496-2.391-1.116-3.349h2.381Z" data-color="color-2"></path><rect x="1" y="2.5" width="4.5" height="4.5" rx="1.432" ry="1.432"></rect><rect x="12.5" y="11" width="4.5" height="4.5" rx="1.432" ry="1.432"></rect></g></svg>