<svg xmlns="http://www.w3.org/2000/svg" height="18" width="18" viewBox="0 0 18 18"><title>18 equalizer</title><g fill="#000000" class="nc-icon-wrapper"><path d="m5,2.5h-2.25c-.4141,0-.75.3359-.75.75s.3359.75.75.75h2.25c.4141,0,.75-.3359.75-.75s-.3359-.75-.75-.75Z" stroke-width="0"></path><path d="m10.125,2.5h-2.25c-.4141,0-.75.3359-.75.75s.3359.75.75.75h2.25c.4141,0,.75-.3359.75-.75s-.3359-.75-.75-.75Z" stroke-width="0" data-color="color-2"></path><path d="m5,5.5h-2.25c-.4141,0-.75.3359-.75.75s.3359.75.75.75h2.25c.4141,0,.75-.3359.75-.75s-.3359-.75-.75-.75Z" stroke-width="0"></path><path d="m10.125,5.5h-2.25c-.4141,0-.75.3359-.75.75s.3359.75.75.75h2.25c.4141,0,.75-.3359.75-.75s-.3359-.75-.75-.75Z" stroke-width="0" data-color="color-2"></path><path d="m5,8.5h-2.25c-.4141,0-.75.3359-.75.75s.3359.75.75.75h2.25c.4141,0,.75-.3359.75-.75s-.3359-.75-.75-.75Z" stroke-width="0"></path><path d="m10.125,8.5h-2.25c-.4141,0-.75.3359-.75.75s.3359.75.75.75h2.25c.4141,0,.75-.3359.75-.75s-.3359-.75-.75-.75Z" stroke-width="0" data-color="color-2"></path><path d="m5,11.5h-2.25c-.4141,0-.75.3359-.75.75s.3359.75.75.75h2.25c.4141,0,.75-.3359.75-.75s-.3359-.75-.75-.75Z" stroke-width="0"></path><path d="m5,14.5h-2.25c-.4141,0-.75.3359-.75.75s.3359.75.75.75h2.25c.4141,0,.75-.3359.75-.75s-.3359-.75-.75-.75Z" stroke-width="0"></path><path d="m15.25,2.5h-2.25c-.4141,0-.75.3359-.75.75s.3359.75.75.75h2.25c.4141,0,.75-.3359.75-.75s-.3359-.75-.75-.75Z" stroke-width="0"></path><path d="m15.25,5.5h-2.25c-.4141,0-.75.3359-.75.75s.3359.75.75.75h2.25c.4141,0,.75-.3359.75-.75s-.3359-.75-.75-.75Z" stroke-width="0"></path><path d="m15.25,8.5h-2.25c-.4141,0-.75.3359-.75.75s.3359.75.75.75h2.25c.4141,0,.75-.3359.75-.75s-.3359-.75-.75-.75Z" stroke-width="0"></path><path d="m15.25,11.5h-2.25c-.4141,0-.75.3359-.75.75s.3359.75.75.75h2.25c.4141,0,.75-.3359.75-.75s-.3359-.75-.75-.75Z" stroke-width="0"></path></g></svg>