<svg xmlns="http://www.w3.org/2000/svg" height="18" width="18" viewBox="0 0 18 18"><title>18 expand obj 2</title><g fill="#000000" class="nc-icon-wrapper"><rect x="5" y="5" width="8" height="8" rx="2.25" ry="2.25"></rect><path d="M14.75,1.5h-3c-.414,0-.75,.336-.75,.75s.336,.75,.75,.75h3c.138,0,.25,.112,.25,.25v3c0,.414,.336,.75,.75,.75s.75-.336,.75-.75V3.25c0-.965-.785-1.75-1.75-1.75Z" data-color="color-2"></path><path d="M6.25,15H3.25c-.138,0-.25-.112-.25-.25v-3c0-.414-.336-.75-.75-.75s-.75,.336-.75,.75v3c0,.965,.785,1.75,1.75,1.75h3c.414,0,.75-.336,.75-.75s-.336-.75-.75-.75Z" data-color="color-2"></path></g></svg>