<svg xmlns="http://www.w3.org/2000/svg" height="18" width="18" viewBox="0 0 18 18"><title>18 follow obj right</title><g fill="#000000" class="nc-icon-wrapper"><path d="M6.53,5.22c-.293-.293-.768-.293-1.061,0s-.293,.768,0,1.061l1.97,1.97H1.75c-.414,0-.75,.336-.75,.75s.336,.75,.75,.75H7.439l-1.97,1.97c-.293,.293-.293,.768,0,1.061,.146,.146,.338,.22,.53,.22s.384-.073,.53-.22l3.25-3.25c.293-.293,.293-.768,0-1.061l-3.25-3.25Z" data-color="color-2"></path><rect x="11.5" y="2" width="4.5" height="14" rx="1.75" ry="1.75"></rect></g></svg>