<svg xmlns="http://www.w3.org/2000/svg" height="18" width="18" viewBox="0 0 18 18"><title>18 follow obj up right</title><g fill="#000000" class="nc-icon-wrapper"><path d="M7.75,9.5H3.239c-.414,0-.75,.336-.75,.75s.336,.75,.75,.75h2.7l-3.72,3.72c-.293,.293-.293,.768,0,1.061,.146,.146,.338,.22,.53,.22s.384-.073,.53-.22l3.72-3.72v2.7c0,.414,.336,.75,.75,.75s.75-.336,.75-.75v-4.51c0-.414-.336-.75-.75-.75Z" data-color="color-2"></path><rect x="9" y="2" width="7" height="7" rx="1.75" ry="1.75"></rect></g></svg>