<svg xmlns="http://www.w3.org/2000/svg" height="18" width="18" viewBox="0 0 18 18"><title>18 float right</title><g fill="#000000" class="nc-icon-wrapper"><path d="M7.75,11.5H2.75c-.414,0-.75-.336-.75-.75s.336-.75,.75-.75H7.75c.414,0,.75,.336,.75,.75s-.336,.75-.75,.75Z"></path><path d="M15.25,15H2.75c-.414,0-.75-.336-.75-.75s.336-.75,.75-.75H15.25c.414,0,.75,.336,.75,.75s-.336,.75-.75,.75Z"></path><path d="M7.75,8H2.75c-.414,0-.75-.336-.75-.75s.336-.75,.75-.75H7.75c.414,0,.75,.336,.75,.75s-.336,.75-.75,.75Z"></path><path d="M15.25,4.5H2.75c-.414,0-.75-.336-.75-.75s.336-.75,.75-.75H15.25c.414,0,.75,.336,.75,.75s-.336,.75-.75,.75Z"></path><rect x="10" y="6" width="6" height="6" rx="1.75" ry="1.75" data-color="color-2"></rect></g></svg>