<svg xmlns="http://www.w3.org/2000/svg" height="18" width="18" viewBox="0 0 18 18"><title>18 fog</title><g fill="#000000" class="nc-icon-wrapper"><path d="M9.25,8.5H1.75c-.414,0-.75-.336-.75-.75s.336-.75,.75-.75h7.5c.414,0,.75,.336,.75,.75s-.336,.75-.75,.75Z" data-color="color-2"></path><path d="M13.25,5.5H4.75c-.414,0-.75-.336-.75-.75s.336-.75,.75-.75H13.25c.414,0,.75,.336,.75,.75s-.336,.75-.75,.75Z"></path><path d="M11.25,14.5H6.75c-.414,0-.75-.336-.75-.75s.336-.75,.75-.75h4.5c.414,0,.75,.336,.75,.75s-.336,.75-.75,.75Z" data-color="color-2"></path><path d="M16.25,11.5h-6.5c-.414,0-.75-.336-.75-.75s.336-.75,.75-.75h6.5c.414,0,.75,.336,.75,.75s-.336,.75-.75,.75Z"></path><path d="M14.25,8.5h-2c-.414,0-.75-.336-.75-.75s.336-.75,.75-.75h2c.414,0,.75,.336,.75,.75s-.336,.75-.75,.75Z" data-color="color-2"></path><path d="M6.75,11.5h-2c-.414,0-.75-.336-.75-.75s.336-.75,.75-.75h2c.414,0,.75,.336,.75,.75s-.336,.75-.75,.75Z"></path></g></svg>