<svg xmlns="http://www.w3.org/2000/svg" height="18" width="18" viewBox="0 0 18 18"><title>18 grid plus</title><g fill="#000000" class="nc-icon-wrapper"><rect x="2" y="2" width="6" height="6" rx="1.75" ry="1.75"></rect><rect x="10" y="2" width="6" height="6" rx="1.75" ry="1.75"></rect><rect x="2" y="10" width="6" height="6" rx="1.75" ry="1.75"></rect><path d="M15.5,12h-1.75v-1.75c0-.414-.336-.75-.75-.75s-.75,.336-.75,.75v1.75h-1.75c-.414,0-.75,.336-.75,.75s.336,.75,.75,.75h1.75v1.75c0,.414,.336,.75,.75,.75s.75-.336,.75-.75v-1.75h1.75c.414,0,.75-.336,.75-.75s-.336-.75-.75-.75Z" data-color="color-2"></path></g></svg>