<svg xmlns="http://www.w3.org/2000/svg" height="18" width="18" viewBox="0 0 18 18"><title>18 grid 3x3</title><g fill="#000000" class="nc-icon-wrapper"><path d="M15.75,7H2.25c-.414,0-.75-.336-.75-.75s.336-.75,.75-.75H15.75c.414,0,.75,.336,.75,.75s-.336,.75-.75,.75Z" data-color="color-2"></path><path d="M15.75,12.5H2.25c-.414,0-.75-.336-.75-.75s.336-.75,.75-.75H15.75c.414,0,.75,.336,.75,.75s-.336,.75-.75,.75Z" data-color="color-2"></path><path d="M6.25,16.5c-.414,0-.75-.336-.75-.75V2.25c0-.414,.336-.75,.75-.75s.75,.336,.75,.75V15.75c0,.414-.336,.75-.75,.75Z"></path><path d="M11.75,16.5c-.414,0-.75-.336-.75-.75V2.25c0-.414,.336-.75,.75-.75s.75,.336,.75,.75V15.75c0,.414-.336,.75-.75,.75Z"></path></g></svg>