<svg xmlns="http://www.w3.org/2000/svg" height="18" width="18" viewBox="0 0 18 18"><title>18 gantt chart</title><g fill="#000000" class="nc-icon-wrapper"><path d="m10.25,9.75H2.75c-.4141,0-.75-.3359-.75-.75s.3359-.75.75-.75h7.5c.4141,0,.75.3359.75.75s-.3359.75-.75.75Z" stroke-width="0" data-color="color-2"></path><path d="m13.25,14.5h-7.5c-.4141,0-.75-.3359-.75-.75s.3359-.75.75-.75h7.5c.4141,0,.75.3359.75.75s-.3359.75-.75.75Z" stroke-width="0"></path><path d="m15.25,5h-7.5c-.4141,0-.75-.3359-.75-.75s.3359-.75.75-.75h7.5c.4141,0,.75.3359.75.75s-.3359.75-.75.75Z" stroke-width="0"></path></g></svg>