<svg xmlns="http://www.w3.org/2000/svg" height="18" width="18" viewBox="0 0 18 18"><title>18 grid layout 11</title><g fill="#000000" class="nc-icon-wrapper"><rect x="2" y="2" width="14" height="5" rx="1.75" ry="1.75" stroke-width="0"></rect><rect x="2" y="8.5" width="6.5" height="7.5" rx="1.75" ry="1.75" stroke-width="0"></rect><path d="m15.25,8.5h-4.5c-.414,0-.75.336-.75.75s.336.75.75.75h4.5c.414,0,.75-.336.75-.75s-.336-.75-.75-.75Z" stroke-width="0" data-color="color-2"></path><path d="m15.25,11.5h-4.5c-.414,0-.75.336-.75.75s.336.75.75.75h4.5c.414,0,.75-.336.75-.75s-.336-.75-.75-.75Z" stroke-width="0" data-color="color-2"></path><path d="m15.25,14.5h-4.5c-.414,0-.75.336-.75.75s.336.75.75.75h4.5c.414,0,.75-.336.75-.75s-.336-.75-.75-.75Z" stroke-width="0" data-color="color-2"></path></g></svg>