<svg xmlns="http://www.w3.org/2000/svg" height="18" width="18" viewBox="0 0 18 18"><title>18 grid empty obj bottom right</title><g fill="#000000" class="nc-icon-wrapper"><rect x="1.5" y="1.5" width="6.5" height="6.5" rx="1.75" ry="1.75"></rect><rect x="1.5" y="10" width="6.5" height="6.5" rx="1.75" ry="1.75"></rect><rect x="10" y="1.5" width="6.5" height="6.5" rx="1.75" ry="1.75"></rect><path d="M10.75,12.75c.414,0,.75-.336,.75-.75v-.25c0-.138,.112-.25,.25-.25h.25c.414,0,.75-.336,.75-.75s-.336-.75-.75-.75h-.25c-.965,0-1.75,.785-1.75,1.75v.25c0,.414,.336,.75,.75,.75Z" data-color="color-2"></path><path d="M11.75,16.5h.25c.414,0,.75-.336,.75-.75s-.336-.75-.75-.75h-.25c-.138,0-.25-.112-.25-.25v-.25c0-.414-.336-.75-.75-.75s-.75,.336-.75,.75v.25c0,.965,.785,1.75,1.75,1.75Z" data-color="color-2"></path><path d="M15.75,13.75c-.414,0-.75,.336-.75,.75v.25c0,.138-.112,.25-.25,.25h-.25c-.414,0-.75,.336-.75,.75s.336,.75,.75,.75h.25c.965,0,1.75-.785,1.75-1.75v-.25c0-.414-.336-.75-.75-.75Z" data-color="color-2"></path><path d="M14.75,10h-.25c-.414,0-.75,.336-.75,.75s.336,.75,.75,.75h.25c.138,0,.25,.112,.25,.25v.25c0,.414,.336,.75,.75,.75s.75-.336,.75-.75v-.25c0-.965-.785-1.75-1.75-1.75Z" data-color="color-2"></path></g></svg>