<svg xmlns="http://www.w3.org/2000/svg" height="18" width="18" viewBox="0 0 18 18"><title>18 hail mixed</title><g fill="#000000" class="nc-icon-wrapper"><path d="M9.75,16c-.192,0-.384-.073-.53-.22l-.75-.75c-.293-.293-.293-.768,0-1.061s.768-.293,1.061,0l.75,.75c.293,.293,.293,.768,0,1.061-.146,.146-.338,.22-.53,.22Z"></path><path d="M7,13.25c-.192,0-.384-.073-.53-.22l-3.25-3.25c-.293-.293-.293-.768,0-1.061s.768-.293,1.061,0l3.25,3.25c.293,.293,.293,.768,0,1.061-.146,.146-.338,.22-.53,.22Z"></path><path d="M8.75,9.5c-.192,0-.384-.073-.53-.22l-.75-.75c-.293-.293-.293-.768,0-1.061s.768-.293,1.061,0l.75,.75c.293,.293,.293,.768,0,1.061-.146,.146-.338,.22-.53,.22Z" data-color="color-2"></path><path d="M6,6.75c-.192,0-.384-.073-.53-.22L2.22,3.28c-.293-.293-.293-.768,0-1.061s.768-.293,1.061,0l3.25,3.25c.293,.293,.293,.768,0,1.061-.146,.146-.338,.22-.53,.22Z" data-color="color-2"></path><path d="M15.25,10.5c-.192,0-.384-.073-.53-.22l-.75-.75c-.293-.293-.293-.768,0-1.061s.768-.293,1.061,0l.75,.75c.293,.293,.293,.768,0,1.061-.146,.146-.338,.22-.53,.22Z"></path><path d="M12.5,7.75c-.192,0-.384-.073-.53-.22l-3.25-3.25c-.293-.293-.293-.768,0-1.061s.768-.293,1.061,0l3.25,3.25c.293,.293,.293,.768,0,1.061-.146,.146-.338,.22-.53,.22Z"></path></g></svg>