<svg xmlns="http://www.w3.org/2000/svg" height="18" width="18" viewBox="0 0 18 18"><title>18 hourglass</title><g fill="#000000" class="nc-icon-wrapper"><path d="M14.25,15h-.261c-.056-2.751-.457-4.593-1.989-6,1.532-1.407,1.932-3.249,1.989-6h.261c.414,0,.75-.336,.75-.75s-.336-.75-.75-.75H3.75c-.414,0-.75,.336-.75,.75s.336,.75,.75,.75h.261c.056,2.751,.457,4.593,1.989,6-1.532,1.407-1.932,3.249-1.989,6h-.261c-.414,0-.75,.336-.75,.75s.336,.75,.75,.75H14.25c.414,0,.75-.336,.75-.75s-.336-.75-.75-.75Z"></path></g></svg>