<svg xmlns="http://www.w3.org/2000/svg" height="18" width="18" viewBox="0 0 18 18"><title>18 itinerary</title><g fill="#000000" class="nc-icon-wrapper"><rect x="2" y="1.5" width="5.5" height="5.5" rx="1.75" ry="1.75"></rect><rect x="10.5" y="11" width="5.5" height="5.5" rx="1.75" ry="1.75"></rect><path d="M12.875,3.5h-3.375c-.414,0-.75,.336-.75,.75s.336,.75,.75,.75h3.375c.896,0,1.625,.729,1.625,1.625s-.729,1.625-1.625,1.625H5.125c-1.723,0-3.125,1.402-3.125,3.125s1.402,3.125,3.125,3.125h3.375c.414,0,.75-.336,.75-.75s-.336-.75-.75-.75h-3.375c-.896,0-1.625-.729-1.625-1.625s.729-1.625,1.625-1.625h7.75c1.723,0,3.125-1.402,3.125-3.125s-1.402-3.125-3.125-3.125Z" data-color="color-2"></path></g></svg>