<svg xmlns="http://www.w3.org/2000/svg" height="18" width="18" viewBox="0 0 18 18"><title>18 keyboard 3</title><g fill="#000000" class="nc-icon-wrapper"><rect x="4.5" y="8.5" width="2" height="2" rx=".75" ry=".75"></rect><rect x="1" y="8.5" width="2" height="2" rx=".75" ry=".75"></rect><rect x="8" y="8.5" width="2" height="2" rx=".75" ry=".75"></rect><rect x="11.5" y="8.5" width="2" height="2" rx=".75" ry=".75"></rect><rect x="6.25" y="5" width="2" height="2" rx=".75" ry=".75"></rect><rect x="2.75" y="5" width="2" height="2" rx=".75" ry=".75"></rect><rect x="9.75" y="5" width="2" height="2" rx=".75" ry=".75"></rect><rect x="13.25" y="5" width="2" height="2" rx=".75" ry=".75"></rect><rect x="15" y="8.5" width="2" height="2" rx=".75" ry=".75"></rect><path d="M13.5,13.5H4.5c-.414,0-.75-.336-.75-.75s.336-.75,.75-.75H13.5c.414,0,.75,.336,.75,.75s-.336,.75-.75,.75Z" data-color="color-2"></path></g></svg>