<svg xmlns="http://www.w3.org/2000/svg" height="18" width="18" viewBox="0 0 18 18"><title>18 key 3</title><g fill="#000000" class="nc-icon-wrapper"><path d="M12.25,3.5c.414,0,.75-.336,.75-.75s-.336-.75-.75-.75h-2.75v-.5c0-.414-.336-.75-.75-.75s-.75,.336-.75,.75V9.752c0,.414,.336,.75,.75,.75s.75-.336,.75-.75v-3.252h2.079c.414,0,.75-.336,.75-.75s-.336-.75-.75-.75h-2.079v-1.5h2.75Z" data-color="color-2"></path><path d="M8.75,9c-2.206,0-4,1.794-4,4s1.794,4,4,4,4-1.794,4-4-1.794-4-4-4Zm0,5.5c-.552,0-1-.448-1-1s.448-1,1-1,1,.448,1,1-.448,1-1,1Z"></path></g></svg>