<svg xmlns="http://www.w3.org/2000/svg" height="18" width="18" viewBox="0 0 18 18"><title>18 line spacing</title><g fill="#000000" class="nc-icon-wrapper"><path d="M5.22,13.72l-.72,.72V3.561l.72,.72c.146,.146,.338,.22,.53,.22s.384-.073,.53-.22c.293-.293,.293-.768,0-1.061L4.28,1.22c-.293-.293-.768-.293-1.061,0L1.22,3.22c-.293,.293-.293,.768,0,1.061s.768,.293,1.061,0l.72-.72V14.439l-.72-.72c-.293-.293-.768-.293-1.061,0s-.293,.768,0,1.061l2,2c.146,.146,.338,.22,.53,.22s.384-.073,.53-.22l2-2c.293-.293,.293-.768,0-1.061s-.768-.293-1.061,0Z" data-color="color-2"></path><path d="M13.25,15h-4.5c-.414,0-.75-.336-.75-.75s.336-.75,.75-.75h4.5c.414,0,.75,.336,.75,.75s-.336,.75-.75,.75Z"></path><path d="M16.25,11.5h-7.5c-.414,0-.75-.336-.75-.75s.336-.75,.75-.75h7.5c.414,0,.75,.336,.75,.75s-.336,.75-.75,.75Z"></path><path d="M16.25,8h-7.5c-.414,0-.75-.336-.75-.75s.336-.75,.75-.75h7.5c.414,0,.75,.336,.75,.75s-.336,.75-.75,.75Z"></path><path d="M16.25,4.5h-7.5c-.414,0-.75-.336-.75-.75s.336-.75,.75-.75h7.5c.414,0,.75,.336,.75,.75s-.336,.75-.75,.75Z"></path></g></svg>