<svg xmlns="http://www.w3.org/2000/svg" height="18" width="18" viewBox="0 0 18 18"><title>18 line dashed</title><g fill="#000000" class="nc-icon-wrapper"><path d="m4.75,9.75h-2c-.4141,0-.75-.3359-.75-.75s.3359-.75.75-.75h2c.4141,0,.75.3359.75.75s-.3359.75-.75.75Z" stroke-width="0"></path><path d="m10,9.75h-2c-.4141,0-.75-.3359-.75-.75s.3359-.75.75-.75h2c.4141,0,.75.3359.75.75s-.3359.75-.75.75Z" stroke-width="0" data-color="color-2"></path><path d="m15.25,9.75h-2c-.4141,0-.75-.3359-.75-.75s.3359-.75.75-.75h2c.4141,0,.75.3359.75.75s-.3359.75-.75.75Z" stroke-width="0"></path></g></svg>