<svg xmlns="http://www.w3.org/2000/svg" height="18" width="18" viewBox="0 0 18 18"><title>18 lines y 2</title><g fill="#000000" class="nc-icon-wrapper"><path d="M2.75,14c-.414,0-.75-.336-.75-.75V7.75c0-.414,.336-.75,.75-.75s.75,.336,.75,.75v5.5c0,.414-.336,.75-.75,.75Z"></path><path d="M15.25,14c-.414,0-.75-.336-.75-.75V4.75c0-.414,.336-.75,.75-.75s.75,.336,.75,.75V13.25c0,.414-.336,.75-.75,.75Z" data-color="color-2"></path><path d="M7,16c-.414,0-.75-.336-.75-.75V2.75c0-.414,.336-.75,.75-.75s.75,.336,.75,.75V15.25c0,.414-.336,.75-.75,.75Z" data-color="color-2"></path><path d="M11,11c-.414,0-.75-.336-.75-.75v-2.5c0-.414,.336-.75,.75-.75s.75,.336,.75,.75v2.5c0,.414-.336,.75-.75,.75Z"></path><path d="M11,15c-.414,0-.75-.336-.75-.75v-1c0-.414,.336-.75,.75-.75s.75,.336,.75,.75v1c0,.414-.336,.75-.75,.75Z"></path></g></svg>