<svg xmlns="http://www.w3.org/2000/svg" height="18" width="18" viewBox="0 0 18 18"><title>18 label 2 minus</title><g fill="#000000" class="nc-icon-wrapper"><path d="M18.333,8.528l-3.95-4.88c-.334-.412-.83-.648-1.36-.648H5.25c-1.517,0-2.75,1.233-2.75,2.75v6.25h3.25c1.241,0,2.25,1.009,2.25,2.25,0,.264-.054,.514-.138,.75h5.161c.53,0,1.026-.236,1.36-.649l3.95-4.879c.223-.275,.223-.668,0-.943Z"></path><path d="M5.75,15H.75c-.414,0-.75-.336-.75-.75s.336-.75,.75-.75H5.75c.414,0,.75,.336,.75,.75s-.336,.75-.75,.75Z" data-color="color-2"></path></g></svg>