<svg xmlns="http://www.w3.org/2000/svg" height="18" width="18" viewBox="0 0 18 18"><title>18 list radio</title><g fill="#000000" class="nc-icon-wrapper"><path d="m4.25,2c-1.792,0-3.25,1.458-3.25,3.25s1.458,3.25,3.25,3.25,3.25-1.458,3.25-3.25-1.458-3.25-3.25-3.25Zm0,5c-.966,0-1.75-.784-1.75-1.75s.784-1.75,1.75-1.75,1.75.784,1.75,1.75-.784,1.75-1.75,1.75Z" stroke-width="0" data-color="color-2"></path><circle cx="4.25" cy="12.75" r="3.25" stroke-width="0"></circle><path d="m16.25,4.5h-6c-.414,0-.75.336-.75.75s.336.75.75.75h6c.414,0,.75-.336.75-.75s-.336-.75-.75-.75Z" stroke-width="0" data-color="color-2"></path><path d="m16.25,12h-6c-.414,0-.75.336-.75.75s.336.75.75.75h6c.414,0,.75-.336.75-.75s-.336-.75-.75-.75Z" stroke-width="0"></path></g></svg>