<svg xmlns="http://www.w3.org/2000/svg" height="18" width="18" viewBox="0 0 18 18"><title>18 move obj down</title><g fill="#000000" class="nc-icon-wrapper"><path d="M11.72,11.97l-1.97,1.97v-5.689c0-.414-.336-.75-.75-.75s-.75,.336-.75,.75v5.689l-1.97-1.97c-.293-.293-.768-.293-1.061,0s-.293,.768,0,1.061l3.25,3.25c.146,.146,.338,.22,.53,.22s.384-.073,.53-.22l3.25-3.25c.293-.293,.293-.768,0-1.061s-.768-.293-1.061,0Z" data-color="color-2"></path><rect x="2" y="1.5" width="14" height="4.5" rx="1.75" ry="1.75"></rect></g></svg>