<svg xmlns="http://www.w3.org/2000/svg" height="18" width="18" viewBox="0 0 18 18"><title>18 menu right 2</title><g fill="#000000" class="nc-icon-wrapper"><path d="M15.75,15H2.25c-.414,0-.75-.336-.75-.75s.336-.75,.75-.75H15.75c.414,0,.75,.336,.75,.75s-.336,.75-.75,.75Z"></path><path d="M15.75,4.5H2.25c-.414,0-.75-.336-.75-.75s.336-.75,.75-.75H15.75c.414,0,.75,.336,.75,.75s-.336,.75-.75,.75Z"></path><path d="M15.75,9.75h-7c-.414,0-.75-.336-.75-.75s.336-.75,.75-.75h7c.414,0,.75,.336,.75,.75s-.336,.75-.75,.75Z" data-color="color-2"></path></g></svg>