<svg xmlns="http://www.w3.org/2000/svg" height="18" width="18" viewBox="0 0 18 18"><title>18 notes</title><g fill="#000000" class="nc-icon-wrapper"><path d="M14.25,4H3.75c-1.517,0-2.75,1.233-2.75,2.75v7c0,1.517,1.233,2.75,2.75,2.75H14.25c1.517,0,2.75-1.233,2.75-2.75V6.75c0-1.517-1.233-2.75-2.75-2.75Zm-5,8.5H5c-.414,0-.75-.336-.75-.75s.336-.75,.75-.75h4.25c.414,0,.75,.336,.75,.75s-.336,.75-.75,.75Zm3.75-3H5c-.414,0-.75-.336-.75-.75s.336-.75,.75-.75H13c.414,0,.75,.336,.75,.75s-.336,.75-.75,.75Z"></path><path d="M14.25,2.5H3.75c-.414,0-.75-.336-.75-.75s.336-.75,.75-.75H14.25c.414,0,.75,.336,.75,.75s-.336,.75-.75,.75Z" data-color="color-2"></path></g></svg>