<svg xmlns="http://www.w3.org/2000/svg" height="18" width="18" viewBox="0 0 18 18"><title>18 note</title><g fill="#000000" class="nc-icon-wrapper"><path d="M14.25,2H3.75c-1.517,0-2.75,1.233-2.75,2.75V13.25c0,1.517,1.233,2.75,2.75,2.75H14.25c1.517,0,2.75-1.233,2.75-2.75V4.75c0-1.517-1.233-2.75-2.75-2.75Zm-5,10.5H5c-.414,0-.75-.336-.75-.75s.336-.75,.75-.75h4.25c.414,0,.75,.336,.75,.75s-.336,.75-.75,.75Zm3.75-2.75H5c-.414,0-.75-.336-.75-.75s.336-.75,.75-.75H13c.414,0,.75,.336,.75,.75s-.336,.75-.75,.75Zm0-2.75H5c-.414,0-.75-.336-.75-.75s.336-.75,.75-.75H13c.414,0,.75,.336,.75,.75s-.336,.75-.75,.75Z"></path></g></svg>