<svg xmlns="http://www.w3.org/2000/svg" height="18" width="18" viewBox="0 0 18 18"><title>18 name plate</title><g fill="#000000" class="nc-icon-wrapper"><path d="M16.25,5c-.689,0-1.25-.561-1.25-1.25,0-.414-.336-.75-.75-.75H3.75c-.414,0-.75,.336-.75,.75,0,.689-.561,1.25-1.25,1.25-.414,0-.75,.336-.75,.75v6.5c0,.414,.336,.75,.75,.75,.689,0,1.25,.561,1.25,1.25,0,.414,.336,.75,.75,.75H14.25c.414,0,.75-.336,.75-.75,0-.689,.561-1.25,1.25-1.25,.414,0,.75-.336,.75-.75V5.75c0-.414-.336-.75-.75-.75Zm-4,6.5H5.75c-.414,0-.75-.336-.75-.75s.336-.75,.75-.75h6.5c.414,0,.75,.336,.75,.75s-.336,.75-.75,.75Zm0-3H5.75c-.414,0-.75-.336-.75-.75s.336-.75,.75-.75h6.5c.414,0,.75,.336,.75,.75s-.336,.75-.75,.75Z"></path></g></svg>