<svg xmlns="http://www.w3.org/2000/svg" height="18" width="18" viewBox="0 0 18 18"><title>18 open rect arrow in</title><g fill="#000000" class="nc-icon-wrapper"><path d="M13.25,2h-3.5c-.414,0-.75,.336-.75,.75s.336,.75,.75,.75h3.5c.689,0,1.25,.561,1.25,1.25V13.25c0,.689-.561,1.25-1.25,1.25h-3.5c-.414,0-.75,.336-.75,.75s.336,.75,.75,.75h3.5c1.517,0,2.75-1.233,2.75-2.75V4.75c0-1.517-1.233-2.75-2.75-2.75Z"></path><path d="M10.78,8.47l-3.5-3.5c-.293-.293-.768-.293-1.061,0s-.293,.768,0,1.061l2.22,2.22H2.75c-.414,0-.75,.336-.75,.75s.336,.75,.75,.75h5.689l-2.22,2.22c-.293,.293-.293,.768,0,1.061,.146,.146,.338,.22,.53,.22s.384-.073,.53-.22l3.5-3.5c.293-.293,.293-.768,0-1.061Z" data-color="color-2"></path></g></svg>