<svg xmlns="http://www.w3.org/2000/svg" height="18" width="18" viewBox="0 0 18 18"><title>18 obj size reduce x</title><g fill="#000000" class="nc-icon-wrapper"><rect x="6" y="1" width="6" height="16" rx="1.75" ry="1.75" data-color="color-2"></rect><path d="M15.311,9l1.72-1.72c.293-.293,.293-.768,0-1.061s-.768-.293-1.061,0l-2.25,2.25c-.293,.293-.293,.768,0,1.061l2.25,2.25c.146,.146,.338,.22,.53,.22s.384-.073,.53-.22c.293-.293,.293-.768,0-1.061l-1.72-1.72Z"></path><path d="M2.03,6.22c-.293-.293-.768-.293-1.061,0s-.293,.768,0,1.061l1.72,1.72-1.72,1.72c-.293,.293-.293,.768,0,1.061,.146,.146,.338,.22,.53,.22s.384-.073,.53-.22l2.25-2.25c.293-.293,.293-.768,0-1.061l-2.25-2.25Z"></path></g></svg>