<svg xmlns="http://www.w3.org/2000/svg" height="18" width="18" viewBox="0 0 18 18"><title>18 obj size reduce y</title><g fill="#000000" class="nc-icon-wrapper"><rect x="1" y="6" width="16" height="6" rx="1.75" ry="1.75" data-color="color-2"></rect><path d="M8.47,4.28c.146,.146,.338,.22,.53,.22s.384-.073,.53-.22l2.25-2.25c.293-.293,.293-.768,0-1.061s-.768-.293-1.061,0l-1.72,1.72-1.72-1.72c-.293-.293-.768-.293-1.061,0s-.293,.768,0,1.061l2.25,2.25Z"></path><path d="M9.53,13.72c-.293-.293-.768-.293-1.061,0l-2.25,2.25c-.293,.293-.293,.768,0,1.061s.768,.293,1.061,0l1.72-1.72,1.72,1.72c.146,.146,.338,.22,.53,.22s.384-.073,.53-.22c.293-.293,.293-.768,0-1.061l-2.25-2.25Z"></path></g></svg>