<svg xmlns="http://www.w3.org/2000/svg" height="18" width="18" viewBox="0 0 18 18"><title>18 priority lowest</title><g fill="#000000" class="nc-icon-wrapper"><path d="M9,15.75c-.192,0-.384-.073-.53-.22L2.22,9.28c-.293-.293-.293-.768,0-1.061s.768-.293,1.061,0l5.72,5.72,5.72-5.72c.293-.293,.768-.293,1.061,0s.293,.768,0,1.061l-6.25,6.25c-.146,.146-.338,.22-.53,.22Z" data-color="color-2"></path><path d="M9,10.75c-.192,0-.384-.073-.53-.22L2.22,4.28c-.293-.293-.293-.768,0-1.061s.768-.293,1.061,0l5.72,5.72L14.72,3.22c.293-.293,.768-.293,1.061,0s.293,.768,0,1.061l-6.25,6.25c-.146,.146-.338,.22-.53,.22Z"></path></g></svg>