<svg xmlns="http://www.w3.org/2000/svg" height="18" width="18" viewBox="0 0 18 18"><title>18 paragraph add</title><g fill="#000000" class="nc-icon-wrapper"><path d="M15.25,12h-2.25v-2.25c0-.414-.336-.75-.75-.75s-.75,.336-.75,.75v2.25h-2.25c-.414,0-.75,.336-.75,.75s.336,.75,.75,.75h2.25v2.25c0,.414,.336,.75,.75,.75s.75-.336,.75-.75v-2.25h2.25c.414,0,.75-.336,.75-.75s-.336-.75-.75-.75Z" data-color="color-2"></path><path d="M6.25,14.5H2.75c-.414,0-.75-.336-.75-.75s.336-.75,.75-.75h3.5c.414,0,.75,.336,.75,.75s-.336,.75-.75,.75Z"></path><path d="M6.25,11H2.75c-.414,0-.75-.336-.75-.75s.336-.75,.75-.75h3.5c.414,0,.75,.336,.75,.75s-.336,.75-.75,.75Z"></path><path d="M15.25,7.5H2.75c-.414,0-.75-.336-.75-.75s.336-.75,.75-.75H15.25c.414,0,.75,.336,.75,.75s-.336,.75-.75,.75Z"></path><path d="M15.25,4H2.75c-.414,0-.75-.336-.75-.75s.336-.75,.75-.75H15.25c.414,0,.75,.336,.75,.75s-.336,.75-.75,.75Z"></path></g></svg>