<svg xmlns="http://www.w3.org/2000/svg" height="18" width="18" viewBox="0 0 18 18"><title>18 priority medium 2</title><g fill="#000000" class="nc-icon-wrapper"><path d="m14.75,16h-.5c-.9648,0-1.75-.7852-1.75-1.75V3.75c0-.9648.7852-1.75,1.75-1.75h.5c.9648,0,1.75.7852,1.75,1.75v10.5c0,.9648-.7852,1.75-1.75,1.75Zm-.5-12.5c-.1377,0-.25.1123-.25.25v10.5c0,.1377.1123.25.25.25h.5c.1377,0,.25-.1123.25-.25V3.75c0-.1377-.1123-.25-.25-.25h-.5Z" stroke-width="0"></path><path d="m9.25,16h-.5c-.9648,0-1.75-.7852-1.75-1.75v-5.5c0-.9648.7852-1.75,1.75-1.75h.5c.9648,0,1.75.7852,1.75,1.75v5.5c0,.9648-.7852,1.75-1.75,1.75Z" stroke-width="0" data-color="color-2"></path><rect x="1.5" y="11" width="4" height="5" rx="1.75" ry="1.75" stroke-width="0" data-color="color-2"></rect></g></svg>