<svg xmlns="http://www.w3.org/2000/svg" height="18" width="18" viewBox="0 0 18 18"><title>18 phone old</title><g fill="#000000" class="nc-icon-wrapper"><path d="M10.75,4.5c-.414,0-.75-.336-.75-.75V.75c0-.414,.336-.75,.75-.75s.75,.336,.75,.75V3.75c0,.414-.336,.75-.75,.75Z" data-color="color-2"></path><path d="M11.75,3H6.25c-.965,0-1.75,.785-1.75,1.75v11.5c0,.965,.785,1.75,1.75,1.75h5.5c.965,0,1.75-.785,1.75-1.75V4.75c0-.965-.785-1.75-1.75-1.75ZM7.75,15c-.414,0-.75-.336-.75-.75s.336-.75,.75-.75,.75,.336,.75,.75-.336,.75-.75,.75Zm0-2.5c-.414,0-.75-.336-.75-.75s.336-.75,.75-.75,.75,.336,.75,.75-.336,.75-.75,.75Zm2.5,2.5c-.414,0-.75-.336-.75-.75s.336-.75,.75-.75,.75,.336,.75,.75-.336,.75-.75,.75Zm0-2.5c-.414,0-.75-.336-.75-.75s.336-.75,.75-.75,.75,.336,.75,.75-.336,.75-.75,.75Zm1.25-3.25c0,.414-.336,.75-.75,.75h-3.5c-.414,0-.75-.336-.75-.75v-1c0-.414,.336-.75,.75-.75h3.5c.414,0,.75,.336,.75,.75v1Z"></path></g></svg>