<svg xmlns="http://www.w3.org/2000/svg" height="18" width="18" viewBox="0 0 18 18"><title>18 path 2</title><g fill="#000000" class="nc-icon-wrapper"><path d="M8.75,12h-3.625c-.896,0-1.625-.729-1.625-1.625s.729-1.625,1.625-1.625h7.75c1.723,0,3.125-1.402,3.125-3.125s-1.402-3.125-3.125-3.125H5.25c-.414,0-.75,.336-.75,.75s.336,.75,.75,.75h7.625c.896,0,1.625,.729,1.625,1.625s-.729,1.625-1.625,1.625H5.125c-1.723,0-3.125,1.402-3.125,3.125s1.402,3.125,3.125,3.125h3.625c.414,0,.75-.336,.75-.75s-.336-.75-.75-.75Z" data-color="color-2"></path><circle cx="13.25" cy="12.75" r="2.75"></circle></g></svg>