<svg xmlns="http://www.w3.org/2000/svg" height="18" width="18" viewBox="0 0 18 18"><title>18 qrcode</title><g fill="#000000" class="nc-icon-wrapper"><path d="M6.75,8.5H3.75c-.965,0-1.75-.785-1.75-1.75V3.75c0-.965,.785-1.75,1.75-1.75h3c.965,0,1.75,.785,1.75,1.75v3c0,.965-.785,1.75-1.75,1.75ZM3.75,3.5c-.138,0-.25,.112-.25,.25v3c0,.138,.112,.25,.25,.25h3c.138,0,.25-.112,.25-.25V3.75c0-.138-.112-.25-.25-.25H3.75Z"></path><path d="M14.25,8.5h-3c-.965,0-1.75-.785-1.75-1.75V3.75c0-.965,.785-1.75,1.75-1.75h3c.965,0,1.75,.785,1.75,1.75v3c0,.965-.785,1.75-1.75,1.75Zm-3-5c-.138,0-.25,.112-.25,.25v3c0,.138,.112,.25,.25,.25h3c.138,0,.25-.112,.25-.25V3.75c0-.138-.112-.25-.25-.25h-3Z"></path><path d="M6.75,16H3.75c-.965,0-1.75-.785-1.75-1.75v-3c0-.965,.785-1.75,1.75-1.75h3c.965,0,1.75,.785,1.75,1.75v3c0,.965-.785,1.75-1.75,1.75Zm-3-5c-.138,0-.25,.112-.25,.25v3c0,.138,.112,.25,.25,.25h3c.138,0,.25-.112,.25-.25v-3c0-.138-.112-.25-.25-.25H3.75Z"></path><rect x="4.5" y="4.5" width="1.5" height="1.5"></rect><rect x="12" y="4.5" width="1.5" height="1.5"></rect><rect x="4.5" y="12" width="1.5" height="1.5"></rect><rect x="14.5" y="14.5" width="1.5" height="1.5" data-color="color-2"></rect><rect x="13" y="13" width="1.5" height="1.5" data-color="color-2"></rect><rect x="14.5" y="11.5" width="1.5" height="1.5" data-color="color-2"></rect><rect x="11" y="14.5" width="2" height="1.5" data-color="color-2"></rect><rect x="9.5" y="11.5" width="1.5" height="3" data-color="color-2"></rect><rect x="11" y="10" width="3.5" height="1.5" data-color="color-2"></rect></g></svg>