<svg xmlns="http://www.w3.org/2000/svg" height="18" width="18" viewBox="0 0 18 18"><title>18 rect center x</title><g fill="#000000" class="nc-icon-wrapper"><path d="M2.75,2c-.414,0-.75,.336-.75,.75V15.25c0,.414,.336,.75,.75,.75s.75-.336,.75-.75V2.75c0-.414-.336-.75-.75-.75Z" data-color="color-2"></path><path d="M15.25,2c-.414,0-.75,.336-.75,.75V15.25c0,.414,.336,.75,.75,.75s.75-.336,.75-.75V2.75c0-.414-.336-.75-.75-.75Z" data-color="color-2"></path><rect x="5" y="5" width="8" height="8" rx="1.75" ry="1.75"></rect></g></svg>