<svg xmlns="http://www.w3.org/2000/svg" height="18" width="18" viewBox="0 0 18 18"><title>18 route alert</title><g fill="#000000" class="nc-icon-wrapper"><path d="M17,9.75h-2.25c-.414,0-.75-.336-.75-.75s.336-.75,.75-.75h2.25c.414,0,.75,.336,.75,.75s-.336,.75-.75,.75Z" data-color="color-2"></path><path d="M3.25,9.75H1c-.414,0-.75-.336-.75-.75s.336-.75,.75-.75H3.25c.414,0,.75,.336,.75,.75s-.336,.75-.75,.75Z" data-color="color-2"></path><path d="M9,2.5c-3.584,0-6.5,2.916-6.5,6.5s2.916,6.5,6.5,6.5,6.5-2.916,6.5-6.5-2.916-6.5-6.5-6.5Zm0,10c-.414,0-.75-.336-.75-.75s.336-.75,.75-.75,.75,.336,.75,.75-.336,.75-.75,.75Zm.75-3c0,.414-.336,.75-.75,.75s-.75-.336-.75-.75v-3.25c0-.414,.336-.75,.75-.75s.75,.336,.75,.75v3.25Z"></path></g></svg>