<svg xmlns="http://www.w3.org/2000/svg" height="18" width="18" viewBox="0 0 18 18"><title>18 rows offset right</title><g fill="#000000" class="nc-icon-wrapper"><path d="M14.28,5.97c-.293-.293-.768-.293-1.061,0s-.293,.768,0,1.061l1.97,1.97-1.97,1.97c-.293,.293-.293,.768,0,1.061,.146,.146,.338,.22,.53,.22s.384-.073,.53-.22l2.5-2.5c.293-.293,.293-.768,0-1.061l-2.5-2.5Z" data-color="color-2"></path><rect x="1" y="7" width="10.5" height="4" rx="1.75" ry="1.75"></rect><rect x="1" y="1.5" width="10.5" height="4" rx="1.75" ry="1.75"></rect><rect x="1" y="12.5" width="10.5" height="4" rx="1.75" ry="1.75"></rect></g></svg>