<svg xmlns="http://www.w3.org/2000/svg" height="18" width="18" viewBox="0 0 18 18"><title>18 resize x</title><g fill="#000000" class="nc-icon-wrapper"><path d="M2.25,2c-.414,0-.75,.336-.75,.75V15.25c0,.414,.336,.75,.75,.75s.75-.336,.75-.75V2.75c0-.414-.336-.75-.75-.75Z"></path><path d="M7.78,6.22c-.293-.293-.768-.293-1.061,0l-2.25,2.25c-.293,.293-.293,.768,0,1.061l2.25,2.25c.146,.146,.338,.22,.53,.22s.384-.073,.53-.22c.293-.293,.293-.768,0-1.061l-1.72-1.72,1.72-1.72c.293-.293,.293-.768,0-1.061Z" data-color="color-2"></path><path d="M15.75,2c-.414,0-.75,.336-.75,.75V15.25c0,.414,.336,.75,.75,.75s.75-.336,.75-.75V2.75c0-.414-.336-.75-.75-.75Z"></path><path d="M11.28,6.22c-.293-.293-.768-.293-1.061,0s-.293,.768,0,1.061l1.72,1.72-1.72,1.72c-.293,.293-.293,.768,0,1.061,.146,.146,.338,.22,.53,.22s.384-.073,.53-.22l2.25-2.25c.293-.293,.293-.768,0-1.061l-2.25-2.25Z" data-color="color-2"></path></g></svg>