<svg xmlns="http://www.w3.org/2000/svg" height="18" width="18" viewBox="0 0 18 18"><title>18 roadmap 2</title><g fill="#000000" class="nc-icon-wrapper"><path d="m13.25,2H4.75c-1.5166,0-2.75,1.2334-2.75,2.75v8.5c0,1.5166,1.2334,2.75,2.75,2.75h8.5c1.5166,0,2.75-1.2334,2.75-2.75V4.75c0-1.5166-1.2334-2.75-2.75-2.75ZM3.5,7v-1.5h3.75c.4141,0,.75.3359.75.75s-.3359.75-.75.75h-3.75Zm2.5,2c0-.4141.3359-.75.75-.75h4.5c.4141,0,.75.3359.75.75s-.3359.75-.75.75h-4.5c-.4141,0-.75-.3359-.75-.75Zm8.5,3.5h-3.75c-.4141,0-.75-.3359-.75-.75s.3359-.75.75-.75h3.75v1.5Z" stroke-width="0"></path></g></svg>