<svg xmlns="http://www.w3.org/2000/svg" height="18" width="18" viewBox="0 0 18 18"><title>18 resize y</title><g fill="#000000" class="nc-icon-wrapper"><path d="M15.25,15H2.75c-.414,0-.75,.336-.75,.75s.336,.75,.75,.75H15.25c.414,0,.75-.336,.75-.75s-.336-.75-.75-.75Z"></path><path d="M6.22,11.28l2.25,2.25c.146,.146,.338,.22,.53,.22s.384-.073,.53-.22l2.25-2.25c.293-.293,.293-.768,0-1.061s-.768-.293-1.061,0l-1.72,1.72-1.72-1.72c-.293-.293-.768-.293-1.061,0s-.293,.768,0,1.061Z" data-color="color-2"></path><path d="M15.25,1.5H2.75c-.414,0-.75,.336-.75,.75s.336,.75,.75,.75H15.25c.414,0,.75-.336,.75-.75s-.336-.75-.75-.75Z"></path><path d="M7.28,7.78l1.72-1.72,1.72,1.72c.146,.146,.338,.22,.53,.22s.384-.073,.53-.22c.293-.293,.293-.768,0-1.061l-2.25-2.25c-.293-.293-.768-.293-1.061,0l-2.25,2.25c-.293,.293-.293,.768,0,1.061s.768,.293,1.061,0Z" data-color="color-2"></path></g></svg>