<svg xmlns="http://www.w3.org/2000/svg" height="18" width="18" viewBox="0 0 18 18"><title>18 rows offset left</title><g fill="#000000" class="nc-icon-wrapper"><rect x="6.5" y="7" width="10.5" height="4" rx="1.75" ry="1.75"></rect><rect x="6.5" y="1.5" width="10.5" height="4" rx="1.75" ry="1.75"></rect><rect x="6.5" y="12.5" width="10.5" height="4" rx="1.75" ry="1.75"></rect><path d="M4.78,5.97c-.293-.293-.768-.293-1.061,0l-2.5,2.5c-.293,.293-.293,.768,0,1.061l2.5,2.5c.146,.146,.338,.22,.53,.22s.384-.073,.53-.22c.293-.293,.293-.768,0-1.061l-1.97-1.97,1.97-1.97c.293-.293,.293-.768,0-1.061Z" data-color="color-2"></path></g></svg>