<svg xmlns="http://www.w3.org/2000/svg" height="18" width="18" viewBox="0 0 18 18"><title>18 sitemap 3</title><g fill="#000000" class="nc-icon-wrapper"><path d="M11.25,8h-1.5v-1.75c0-.414-.336-.75-.75-.75s-.75,.336-.75,.75v1.75h-1.5c-1.517,0-2.75,1.233-2.75,2.75v1c0,.414,.336,.75,.75,.75s.75-.336,.75-.75v-1c0-.689,.561-1.25,1.25-1.25h4.5c.689,0,1.25,.561,1.25,1.25v1c0,.414,.336,.75,.75,.75s.75-.336,.75-.75v-1c0-1.517-1.233-2.75-2.75-2.75Z" data-color="color-2"></path><circle cx="4.75" cy="14" r="3"></circle><circle cx="9" cy="4" r="3"></circle><circle cx="13.25" cy="14" r="3"></circle></g></svg>