<svg xmlns="http://www.w3.org/2000/svg" height="18" width="18" viewBox="0 0 18 18"><title>18 sidebar right 2</title><g fill="#000000" class="nc-icon-wrapper"><path d="m3.75,2h10.5c1.5166,0,2.75,1.2334,2.75,2.75v8.5c0,1.5166-1.2334,2.75-2.75,2.75H3.75c-1.5166,0-2.75-1.2334-2.75-2.75V4.75c0-1.5166,1.2334-2.75,2.75-2.75Zm10.5,12.5c.6895,0,1.25-.5605,1.25-1.25V4.75c0-.6895-.5605-1.25-1.25-1.25H3.75c-.6895,0-1.25.5605-1.25,1.25v8.5c0,.6895.5605,1.25,1.25,1.25h10.5Z" stroke-width="0"></path><path d="m10.25,5h3c.4141,0,.75.3359.75.75v6.5c0,.4141-.3359.75-.75.75h-3c-.4141,0-.75-.3359-.75-.75v-6.5c0-.4141.3359-.75.75-.75Z" stroke-width="0" data-color="color-2"></path></g></svg>