<svg xmlns="http://www.w3.org/2000/svg" height="18" width="18" viewBox="0 0 18 18"><title>18 size lg</title><g fill="#000000" class="nc-icon-wrapper"><path d="M6.25,14.5H2.75c-.414,0-.75,.336-.75,.75s.336,.75,.75,.75h3.5c.414,0,.75-.336,.75-.75s-.336-.75-.75-.75Z" data-color="color-2"></path><path d="M2.75,13h1.5c.414,0,.75-.336,.75-.75s-.336-.75-.75-.75h-1.5c-.414,0-.75,.336-.75,.75s.336,.75,.75,.75Z" data-color="color-2"></path><path d="M6.25,8.25H2.75c-.414,0-.75,.336-.75,.75s.336,.75,.75,.75h3.5c.414,0,.75-.336,.75-.75s-.336-.75-.75-.75Z" data-color="color-2"></path><path d="M2.75,6.5h1.5c.414,0,.75-.336,.75-.75s-.336-.75-.75-.75h-1.5c-.414,0-.75,.336-.75,.75s.336,.75,.75,.75Z" data-color="color-2"></path><path d="M6.25,2H2.75c-.414,0-.75,.336-.75,.75s.336,.75,.75,.75h3.5c.414,0,.75-.336,.75-.75s-.336-.75-.75-.75Z" data-color="color-2"></path><rect x="9" y="2" width="7" height="14" rx="1.75" ry="1.75"></rect></g></svg>