<svg xmlns="http://www.w3.org/2000/svg" height="18" width="18" viewBox="0 0 18 18"><title>18 square minus 2</title><g fill="#000000" class="nc-icon-wrapper"><path d="m12.25,5.5c-1.2402,0-2.25-1.0093-2.25-2.25,0-.4624.1408-.8921.381-1.25h-5.631c-1.5166,0-2.75,1.2334-2.75,2.75v8.5c0,1.5166,1.2334,2.75,2.75,2.75h8.5c1.5166,0,2.75-1.2334,2.75-2.75v-7.75h-3.75Z" stroke-width="0"></path><path d="m17.25,4h-5c-.4141,0-.75-.3359-.75-.75s.3359-.75.75-.75h5c.4141,0,.75.3359.75.75s-.3359.75-.75.75Z" stroke-width="0" data-color="color-2"></path></g></svg>