<svg xmlns="http://www.w3.org/2000/svg" height="18" width="18" viewBox="0 0 18 18"><title>18 suitcase 6</title><g fill="#000000" class="nc-icon-wrapper"><path d="M11.75,5.5c-.414,0-.75-.336-.75-.75V2.25c0-.138-.112-.25-.25-.25h-3.5c-.138,0-.25,.112-.25,.25v2.5c0,.414-.336,.75-.75,.75s-.75-.336-.75-.75V2.25c0-.965,.785-1.75,1.75-1.75h3.5c.965,0,1.75,.785,1.75,1.75v2.5c0,.414-.336,.75-.75,.75Z"></path><rect x="5.5" y="4" width="7" height="12"></rect><path d="M14.25,4h-.25v12h.25c1.517,0,2.75-1.233,2.75-2.75V6.75c0-1.517-1.233-2.75-2.75-2.75Z" data-color="color-2"></path><path d="M4,4h-.25c-1.517,0-2.75,1.233-2.75,2.75v6.5c0,1.517,1.233,2.75,2.75,2.75h.25V4Z" data-color="color-2"></path></g></svg>