<svg xmlns="http://www.w3.org/2000/svg" height="18" width="18" viewBox="0 0 18 18"><title>18 sidebar left show</title><g fill="#000000" class="nc-icon-wrapper"><path d="M10.78,5.97c-.293-.293-.768-.293-1.061,0s-.293,.768,0,1.061l1.97,1.97-1.97,1.97c-.293,.293-.293,.768,0,1.061,.146,.146,.338,.22,.53,.22s.384-.073,.53-.22l2.5-2.5c.293-.293,.293-.768,0-1.061l-2.5-2.5Z" data-color="color-2"></path><path d="M14.25,2H3.75c-1.517,0-2.75,1.233-2.75,2.75V13.25c0,1.517,1.233,2.75,2.75,2.75H14.25c1.517,0,2.75-1.233,2.75-2.75V4.75c0-1.517-1.233-2.75-2.75-2.75Zm1.25,11.25c0,.689-.561,1.25-1.25,1.25H7V3.5h7.25c.689,0,1.25,.561,1.25,1.25V13.25Z"></path></g></svg>