<svg xmlns="http://www.w3.org/2000/svg" height="18" width="18" viewBox="0 0 18 18"><title>18 suitcase</title><g fill="#000000" class="nc-icon-wrapper"><path d="M11.75,5.5c-.414,0-.75-.336-.75-.75V2.25c0-.138-.112-.25-.25-.25h-3.5c-.138,0-.25,.112-.25,.25v2.5c0,.414-.336,.75-.75,.75s-.75-.336-.75-.75V2.25c0-.965,.785-1.75,1.75-1.75h3.5c.965,0,1.75,.785,1.75,1.75v2.5c0,.414-.336,.75-.75,.75Z" data-color="color-2"></path><rect x="1" y="4" width="16" height="12" rx="2.75" ry="2.75"></rect></g></svg>