<svg xmlns="http://www.w3.org/2000/svg" height="18" width="18" viewBox="0 0 18 18"><title>18 scroll x</title><g fill="#000000" class="nc-icon-wrapper"><circle cx="9" cy="9" r="3" data-color="color-2"></circle><path d="M4.78,5.72c-.293-.293-.768-.293-1.061,0L.97,8.47c-.293,.293-.293,.768,0,1.061l2.75,2.75c.146,.146,.338,.22,.53,.22s.384-.073,.53-.22c.293-.293,.293-.768,0-1.061l-2.22-2.22,2.22-2.22c.293-.293,.293-.768,0-1.061Z"></path><path d="M14.28,5.72c-.293-.293-.768-.293-1.061,0s-.293,.768,0,1.061l2.22,2.22-2.22,2.22c-.293,.293-.293,.768,0,1.061,.146,.146,.338,.22,.53,.22s.384-.073,.53-.22l2.75-2.75c.293-.293,.293-.768,0-1.061l-2.75-2.75Z"></path></g></svg>