<svg xmlns="http://www.w3.org/2000/svg" height="18" width="18" viewBox="0 0 18 18"><title>18 signal</title><g fill="#000000" class="nc-icon-wrapper"><path d="M2.75,15c-.414,0-.75-.336-.75-.75v-1.5c0-.414,.336-.75,.75-.75s.75,.336,.75,.75v1.5c0,.414-.336,.75-.75,.75Z"></path><path d="M5.75,15c-.414,0-.75-.336-.75-.75v-4c0-.414,.336-.75,.75-.75s.75,.336,.75,.75v4c0,.414-.336,.75-.75,.75Z" data-color="color-2"></path><path d="M9,15c-.414,0-.75-.336-.75-.75V7.75c0-.414,.336-.75,.75-.75s.75,.336,.75,.75v6.5c0,.414-.336,.75-.75,.75Z"></path><path d="M12.25,15c-.414,0-.75-.336-.75-.75V5.25c0-.414,.336-.75,.75-.75s.75,.336,.75,.75V14.25c0,.414-.336,.75-.75,.75Z" data-color="color-2"></path><path d="M15.25,15c-.414,0-.75-.336-.75-.75V2.75c0-.414,.336-.75,.75-.75s.75,.336,.75,.75V14.25c0,.414-.336,.75-.75,.75Z"></path></g></svg>