<svg xmlns="http://www.w3.org/2000/svg" height="18" width="18" viewBox="0 0 18 18"><title>18 stack x 3</title><g fill="#000000" class="nc-icon-wrapper"><rect x="4.5" y="2" width="9" height="14" rx="1.75" ry="1.75"></rect><path d="M15.75,3.5c-.414,0-.75,.336-.75,.75V13.75c0,.414,.336,.75,.75,.75s.75-.336,.75-.75V4.25c0-.414-.336-.75-.75-.75Z" data-color="color-2"></path><path d="M2.25,3.5c-.414,0-.75,.336-.75,.75V13.75c0,.414,.336,.75,.75,.75s.75-.336,.75-.75V4.25c0-.414-.336-.75-.75-.75Z" data-color="color-2"></path></g></svg>