<svg xmlns="http://www.w3.org/2000/svg" height="18" width="18" viewBox="0 0 18 18"><title>18 safety helmet</title><g fill="#000000" class="nc-icon-wrapper"><path d="M16,11.5v-1.5c0-2.519-1.388-4.799-3.5-6.032v2.782c0,.414-.336,.75-.75,.75s-.75-.336-.75-.75V3.25c0-.965-.785-1.75-1.75-1.75h-.5c-.965,0-1.75,.785-1.75,1.75v3.5c0,.414-.336,.75-.75,.75s-.75-.336-.75-.75V3.968c-2.112,1.234-3.5,3.513-3.5,6.032v1.5h14Z"></path><rect x="1" y="13" width="16" height="3" rx="1.5" ry="1.5" data-color="color-2"></rect></g></svg>