<svg xmlns="http://www.w3.org/2000/svg" height="18" width="18" viewBox="0 0 18 18"><title>18 sliders vertical</title><g fill="#000000" class="nc-icon-wrapper"><path d="M15.75,11c0-1.394-.96-2.558-2.25-2.894V1.75c0-.414-.336-.75-.75-.75s-.75,.336-.75,.75v6.356c-1.29,.335-2.25,1.5-2.25,2.894s.96,2.558,2.25,2.894v2.356c0,.414,.336,.75,.75,.75s.75-.336,.75-.75v-2.356c1.29-.335,2.25-1.5,2.25-2.894Z"></path><path d="M6,4.106V1.75c0-.414-.336-.75-.75-.75s-.75,.336-.75,.75v2.356c-1.29,.335-2.25,1.5-2.25,2.894s.96,2.558,2.25,2.894v6.356c0,.414,.336,.75,.75,.75s.75-.336,.75-.75v-6.356c1.29-.335,2.25-1.5,2.25-2.894s-.96-2.558-2.25-2.894Zm-.75,4.394c-.827,0-1.5-.673-1.5-1.5s.673-1.5,1.5-1.5,1.5,.673,1.5,1.5-.673,1.5-1.5,1.5Z" data-color="color-2"></path></g></svg>