<svg xmlns="http://www.w3.org/2000/svg" height="18" width="18" viewBox="0 0 18 18"><title>18 sliders 3 vertical</title><g fill="#000000" class="nc-icon-wrapper"><path d="M9,14c-.414,0-.75,.336-.75,.75v1c0,.414,.336,.75,.75,.75s.75-.336,.75-.75v-1c0-.414-.336-.75-.75-.75Z" data-color="color-2"></path><path d="M11,11h-1.25V2.25c0-.414-.336-.75-.75-.75s-.75,.336-.75,.75V11h-1.25c-.414,0-.75,.336-.75,.75s.336,.75,.75,.75h4c.414,0,.75-.336,.75-.75s-.336-.75-.75-.75Z" data-color="color-2"></path><path d="M13.75,8.5c-.414,0-.75,.336-.75,.75v6.5c0,.414,.336,.75,.75,.75s.75-.336,.75-.75v-6.5c0-.414-.336-.75-.75-.75Z"></path><path d="M15.75,5.5h-1.25V2.25c0-.414-.336-.75-.75-.75s-.75,.336-.75,.75v3.25h-1.25c-.414,0-.75,.336-.75,.75s.336,.75,.75,.75h4c.414,0,.75-.336,.75-.75s-.336-.75-.75-.75Z"></path><path d="M4.25,8.5c-.414,0-.75,.336-.75,.75v6.5c0,.414,.336,.75,.75,.75s.75-.336,.75-.75v-6.5c0-.414-.336-.75-.75-.75Z"></path><path d="M7,6.25c0-.414-.336-.75-.75-.75h-1.25V2.25c0-.414-.336-.75-.75-.75s-.75,.336-.75,.75v3.25h-1.25c-.414,0-.75,.336-.75,.75s.336,.75,.75,.75H6.25c.414,0,.75-.336,.75-.75Z"></path></g></svg>