<svg xmlns="http://www.w3.org/2000/svg" height="18" width="18" viewBox="0 0 18 18"><title>18 separate y</title><g fill="#000000" class="nc-icon-wrapper"><path d="M7.03,4.78l1.97-1.97,1.97,1.97c.146,.146,.338,.22,.53,.22s.384-.073,.53-.22c.293-.293,.293-.768,0-1.061l-2.5-2.5c-.293-.293-.768-.293-1.061,0l-2.5,2.5c-.293,.293-.293,.768,0,1.061s.768,.293,1.061,0Z" data-color="color-2"></path><path d="M15.25,6.5H2.75c-.414,0-.75,.336-.75,.75s.336,.75,.75,.75H15.25c.414,0,.75-.336,.75-.75s-.336-.75-.75-.75Z"></path><path d="M15.25,10H2.75c-.414,0-.75,.336-.75,.75s.336,.75,.75,.75H15.25c.414,0,.75-.336,.75-.75s-.336-.75-.75-.75Z"></path><path d="M10.97,13.22l-1.97,1.97-1.97-1.97c-.293-.293-.768-.293-1.061,0s-.293,.768,0,1.061l2.5,2.5c.146,.146,.338,.22,.53,.22s.384-.073,.53-.22l2.5-2.5c.293-.293,.293-.768,0-1.061s-.768-.293-1.061,0Z" data-color="color-2"></path></g></svg>