<svg xmlns="http://www.w3.org/2000/svg" height="18" width="18" viewBox="0 0 18 18"><title>18 square dotted arrow bottom left</title><g fill="#000000" class="nc-icon-wrapper"><circle cx="9" cy="2.75" r=".75"></circle><circle cx="15.25" cy="9" r=".75"></circle><circle cx="15.25" cy="2.75" r=".75"></circle><circle cx="12.125" cy="2.75" r=".75"></circle><circle cx="5.875" cy="2.75" r=".75"></circle><circle cx="2.75" cy="2.75" r=".75"></circle><circle cx="15.25" cy="15.25" r=".75"></circle><circle cx="12.125" cy="15.25" r=".75"></circle><circle cx="15.25" cy="12.125" r=".75"></circle><circle cx="15.25" cy="5.875" r=".75"></circle><circle cx="2.75" cy="5.875" r=".75"></circle><path d="M8.75,8.5H2.75c-.414,0-.75,.336-.75,.75s.336,.75,.75,.75H6.939L2.22,14.72c-.293,.293-.293,.768,0,1.061,.146,.146,.338,.22,.53,.22s.384-.073,.53-.22l4.72-4.72v4.189c0,.414,.336,.75,.75,.75s.75-.336,.75-.75v-6c0-.414-.336-.75-.75-.75Z" data-color="color-2"></path></g></svg>