<svg xmlns="http://www.w3.org/2000/svg" height="18" width="18" viewBox="0 0 18 18"><title>18 square dotted arrow top right</title><g fill="#000000" class="nc-icon-wrapper"><circle cx="9" cy="15.25" r=".75"></circle><circle cx="2.75" cy="9" r=".75"></circle><circle cx="2.75" cy="15.25" r=".75"></circle><circle cx="5.875" cy="15.25" r=".75"></circle><circle cx="12.125" cy="15.25" r=".75"></circle><circle cx="15.25" cy="15.25" r=".75"></circle><circle cx="2.75" cy="2.75" r=".75"></circle><circle cx="5.875" cy="2.75" r=".75"></circle><circle cx="2.75" cy="5.875" r=".75"></circle><circle cx="2.75" cy="12.125" r=".75"></circle><circle cx="15.25" cy="12.125" r=".75"></circle><path d="M15.78,2.22c-.293-.293-.768-.293-1.061,0l-4.72,4.72V2.75c0-.414-.336-.75-.75-.75s-.75,.336-.75,.75v6c0,.414,.336,.75,.75,.75h6c.414,0,.75-.336,.75-.75s-.336-.75-.75-.75h-4.189L15.78,3.28c.293-.293,.293-.768,0-1.061Z" data-color="color-2"></path></g></svg>