<svg xmlns="http://www.w3.org/2000/svg" height="18" width="18" viewBox="0 0 18 18"><title>18 square arrow down left 2</title><g fill="#000000" class="nc-icon-wrapper"><path d="M4.75,16H13.25c1.519,0,2.75-1.231,2.75-2.75V6.682c0-1.336-1.616-2.006-2.561-1.061l-4.879,4.879h2.689c.414,0,.75,.336,.75,.75s-.336,.75-.75,.75H6.75c-.414,0-.75-.336-.75-.75V6.75c0-.414,.336-.75,.75-.75s.75,.336,.75,.75v2.689s4.879-4.879,4.879-4.879c.945-.945,.276-2.561-1.061-2.561H4.75c-1.519,0-2.75,1.231-2.75,2.75V13.25c0,1.519,1.231,2.75,2.75,2.75Z"></path></g></svg>