<svg xmlns="http://www.w3.org/2000/svg" height="18" width="18" viewBox="0 0 18 18"><title>18 scan code</title><g fill="#000000" class="nc-icon-wrapper"><path d="M2.75,7c.414,0,.75-.336,.75-.75v-1.5c0-.689,.561-1.25,1.25-1.25h2c.414,0,.75-.336,.75-.75s-.336-.75-.75-.75h-2c-1.517,0-2.75,1.233-2.75,2.75v1.5c0,.414,.336,.75,.75,.75Z"></path><path d="M13.25,2h-2c-.414,0-.75,.336-.75,.75s.336,.75,.75,.75h2c.689,0,1.25,.561,1.25,1.25v1.5c0,.414,.336,.75,.75,.75s.75-.336,.75-.75v-1.5c0-1.517-1.233-2.75-2.75-2.75Z"></path><path d="M15.25,11c-.414,0-.75,.336-.75,.75v1.5c0,.689-.561,1.25-1.25,1.25h-2c-.414,0-.75,.336-.75,.75s.336,.75,.75,.75h2c1.517,0,2.75-1.233,2.75-2.75v-1.5c0-.414-.336-.75-.75-.75Z"></path><path d="M6.75,14.5h-2c-.689,0-1.25-.561-1.25-1.25v-1.5c0-.414-.336-.75-.75-.75s-.75,.336-.75,.75v1.5c0,1.517,1.233,2.75,2.75,2.75h2c.414,0,.75-.336,.75-.75s-.336-.75-.75-.75Z"></path><rect x="5" y="5" width="3.5" height="3.5" rx=".75" ry=".75" data-color="color-2"></rect><rect x="9.5" y="5" width="3.5" height="3.5" rx=".75" ry=".75" data-color="color-2"></rect><rect x="5" y="9.5" width="3.5" height="3.5" rx=".75" ry=".75" data-color="color-2"></rect><rect x="9.5" y="9.5" width="3.5" height="3.5" rx=".75" ry=".75" data-color="color-2"></rect></g></svg>