<svg xmlns="http://www.w3.org/2000/svg" height="18" width="18" viewBox="0 0 18 18"><title>18 square dotted arrow top left</title><g fill="#000000" class="nc-icon-wrapper"><circle cx="15.25" cy="9" r=".75"></circle><circle cx="9" cy="15.25" r=".75"></circle><circle cx="15.25" cy="15.25" r=".75"></circle><circle cx="15.25" cy="12.125" r=".75"></circle><circle cx="15.25" cy="5.875" r=".75"></circle><circle cx="15.25" cy="2.75" r=".75"></circle><circle cx="2.75" cy="15.25" r=".75"></circle><circle cx="2.75" cy="12.125" r=".75"></circle><circle cx="5.875" cy="15.25" r=".75"></circle><circle cx="12.125" cy="15.25" r=".75"></circle><circle cx="12.125" cy="2.75" r=".75"></circle><path d="M2,8.75c0,.414,.336,.75,.75,.75h6c.414,0,.75-.336,.75-.75V2.75c0-.414-.336-.75-.75-.75s-.75,.336-.75,.75V6.939L3.28,2.22c-.293-.293-.768-.293-1.061,0s-.293,.768,0,1.061l4.72,4.72H2.75c-.414,0-.75,.336-.75,.75Z" data-color="color-2"></path></g></svg>