<svg xmlns="http://www.w3.org/2000/svg" height="18" width="18" viewBox="0 0 18 18"><title>18 storage</title><g fill="#000000" class="nc-icon-wrapper"><ellipse cx="9" cy="5.5" rx="7" ry="4"></ellipse><path d="M15.382,8.716c-.399-.104-.811,.134-.915,.536-.282,1.081-2.452,2.248-5.467,2.248s-5.185-1.167-5.467-2.248c-.104-.401-.516-.637-.915-.536-.4,.104-.641,.514-.536,.915,.51,1.952,3.419,3.369,6.918,3.369s6.408-1.417,6.918-3.369c.104-.401-.136-.811-.536-.915Z" data-color="color-2"></path><path d="M15.382,12.216c-.399-.106-.811,.134-.915,.536-.282,1.081-2.452,2.248-5.467,2.248s-5.185-1.167-5.467-2.248c-.104-.401-.516-.639-.915-.536-.4,.104-.641,.514-.536,.915,.51,1.952,3.419,3.369,6.918,3.369s6.408-1.417,6.918-3.369c.104-.401-.136-.811-.536-.915Z" data-color="color-2"></path></g></svg>