<svg xmlns="http://www.w3.org/2000/svg" height="18" width="18" viewBox="0 0 18 18"><title>18 table rows 3 cols 2</title><g fill="#000000" class="nc-icon-wrapper"><path d="M9.75 5.75H16.5V4.75C16.5 3.23 15.267 2 13.75 2H9.75V5.75Z"></path> <path d="M16.5 7.25H9.75V10.75H16.5V7.25Z" data-color="color-2"></path> <path d="M8.25 7.25H1.5V10.75H8.25V7.25Z" data-color="color-2"></path> <path d="M8.25 5.75V2H4.25C2.733 2 1.5 3.23 1.5 4.75V5.75H8.25Z"></path> <path d="M9.75 12.25V16H13.75C15.267 16 16.5 14.77 16.5 13.25V12.25H9.75Z"></path> <path d="M8.25 12.25H1.5V13.25C1.5 14.77 2.733 16 4.25 16H8.25V12.25Z"></path></g></svg>