<svg xmlns="http://www.w3.org/2000/svg" height="18" width="18" viewBox="0 0 18 18"><title>18 ticket 2</title><g fill="#000000" class="nc-icon-wrapper"><path d="M16.25,7.5c.414,0,.75-.336,.75-.75v-1c0-1.517-1.233-2.75-2.75-2.75H3.75c-1.517,0-2.75,1.233-2.75,2.75v1c0,.414,.336,.75,.75,.75,.827,0,1.5,.673,1.5,1.5s-.673,1.5-1.5,1.5c-.414,0-.75,.336-.75,.75v1c0,1.517,1.233,2.75,2.75,2.75H14.25c1.517,0,2.75-1.233,2.75-2.75v-1c0-.414-.336-.75-.75-.75-.827,0-1.5-.673-1.5-1.5s.673-1.5,1.5-1.5Zm-5,5c-.414,0-.75-.336-.75-.75s.336-.75,.75-.75,.75,.336,.75,.75-.336,.75-.75,.75Zm0-2.875c-.414,0-.75-.336-.75-.75s.336-.75,.75-.75,.75,.336,.75,.75-.336,.75-.75,.75Zm0-2.625c-.414,0-.75-.336-.75-.75s.336-.75,.75-.75,.75,.336,.75,.75-.336,.75-.75,.75Z"></path></g></svg>