<svg xmlns="http://www.w3.org/2000/svg" height="18" width="18" viewBox="0 0 18 18"><title>18 type scale</title><g fill="#000000" class="nc-icon-wrapper"><path d="M11.75,2H1.75c-.414,0-.75,.336-.75,.75s.336,.75,.75,.75H6V15.25c0,.414,.336,.75,.75,.75s.75-.336,.75-.75V3.5h4.25c.414,0,.75-.336,.75-.75s-.336-.75-.75-.75Z"></path><path d="M16.25,7h-6c-.414,0-.75,.336-.75,.75s.336,.75,.75,.75h2.25v6.75c0,.414,.336,.75,.75,.75s.75-.336,.75-.75v-6.75h2.25c.414,0,.75-.336,.75-.75s-.336-.75-.75-.75Z" data-color="color-2"></path></g></svg>