<svg xmlns="http://www.w3.org/2000/svg" height="18" width="18" viewBox="0 0 18 18"><title>18 table rows 2 cols 3</title><g fill="#000000" class="nc-icon-wrapper"><path d="M12.5 8.25H16.5V4.75C16.5 3.23 15.267 2 13.75 2H12.5V8.25Z"></path> <path d="M11 9.75H7V16H11V9.75Z" data-color="color-2"></path> <path d="M11 2H7V8.25H11V2Z" data-color="color-2"></path> <path d="M12.5 9.75V16H13.75C15.267 16 16.5 14.77 16.5 13.25V9.75H12.5Z"></path> <path d="M5.5 9.75H1.5V13.25C1.5 14.77 2.733 16 4.25 16H5.5V9.75Z"></path> <path d="M5.5 8.25V2H4.25C2.733 2 1.5 3.23 1.5 4.75V8.25H5.5Z"></path></g></svg>