<svg xmlns="http://www.w3.org/2000/svg" height="18" width="18" viewBox="0 0 18 18"><title>18 three arrows left</title><g fill="#000000" class="nc-icon-wrapper"><path d="M15.25,8.25H4.561l.97-.97c.293-.293,.293-.768,0-1.061s-.768-.293-1.061,0l-2.25,2.25c-.293,.293-.293,.768,0,1.061l2.25,2.25c.146,.146,.338,.22,.53,.22s.384-.073,.53-.22c.293-.293,.293-.768,0-1.061l-.97-.97H15.25c.414,0,.75-.336,.75-.75s-.336-.75-.75-.75Z" data-color="color-2"></path><path d="M15.25,3.5h-6.189l.97-.97c.293-.293,.293-.768,0-1.061s-.768-.293-1.061,0l-2.25,2.25c-.293,.293-.293,.768,0,1.061l2.25,2.25c.146,.146,.338,.22,.53,.22s.384-.073,.53-.22c.293-.293,.293-.768,0-1.061l-.97-.97h6.189c.414,0,.75-.336,.75-.75s-.336-.75-.75-.75Z"></path><path d="M15.25,13h-3.189l.97-.97c.293-.293,.293-.768,0-1.061s-.768-.293-1.061,0l-2.25,2.25c-.293,.293-.293,.768,0,1.061l2.25,2.25c.146,.146,.338,.22,.53,.22s.384-.073,.53-.22c.293-.293,.293-.768,0-1.061l-.97-.97h3.189c.414,0,.75-.336,.75-.75s-.336-.75-.75-.75Z"></path></g></svg>