<svg xmlns="http://www.w3.org/2000/svg" height="18" width="18" viewBox="0 0 18 18"><title>18 text columns</title><g fill="#000000" class="nc-icon-wrapper"><path d="M7.5,11.5H2.25c-.414,0-.75-.336-.75-.75s.336-.75,.75-.75H7.5c.414,0,.75,.336,.75,.75s-.336,.75-.75,.75Z"></path><path d="M7.5,15H2.25c-.414,0-.75-.336-.75-.75s.336-.75,.75-.75H7.5c.414,0,.75,.336,.75,.75s-.336,.75-.75,.75Z"></path><path d="M7.5,8H2.25c-.414,0-.75-.336-.75-.75s.336-.75,.75-.75H7.5c.414,0,.75,.336,.75,.75s-.336,.75-.75,.75Z"></path><path d="M7.5,4.5H2.25c-.414,0-.75-.336-.75-.75s.336-.75,.75-.75H7.5c.414,0,.75,.336,.75,.75s-.336,.75-.75,.75Z"></path><path d="M15.75,11.5h-5.25c-.414,0-.75-.336-.75-.75s.336-.75,.75-.75h5.25c.414,0,.75,.336,.75,.75s-.336,.75-.75,.75Z" data-color="color-2"></path><path d="M15.75,15h-5.25c-.414,0-.75-.336-.75-.75s.336-.75,.75-.75h5.25c.414,0,.75,.336,.75,.75s-.336,.75-.75,.75Z" data-color="color-2"></path><path d="M15.75,8h-5.25c-.414,0-.75-.336-.75-.75s.336-.75,.75-.75h5.25c.414,0,.75,.336,.75,.75s-.336,.75-.75,.75Z" data-color="color-2"></path><path d="M15.75,4.5h-5.25c-.414,0-.75-.336-.75-.75s.336-.75,.75-.75h5.25c.414,0,.75,.336,.75,.75s-.336,.75-.75,.75Z" data-color="color-2"></path></g></svg>