<svg xmlns="http://www.w3.org/2000/svg" height="18" width="18" viewBox="0 0 18 18"><title>18 three arrows down</title><g fill="#000000" class="nc-icon-wrapper"><path d="M15.47,4.97l-.97,.97V2.75c0-.414-.336-.75-.75-.75s-.75,.336-.75,.75v3.189l-.97-.97c-.293-.293-.768-.293-1.061,0s-.293,.768,0,1.061l2.25,2.25c.146,.146,.338,.22,.53,.22s.384-.073,.53-.22l2.25-2.25c.293-.293,.293-.768,0-1.061s-.768-.293-1.061,0Z"></path><path d="M10.72,12.47l-.97,.97V2.75c0-.414-.336-.75-.75-.75s-.75,.336-.75,.75V13.439l-.97-.97c-.293-.293-.768-.293-1.061,0s-.293,.768,0,1.061l2.25,2.25c.146,.146,.338,.22,.53,.22s.384-.073,.53-.22l2.25-2.25c.293-.293,.293-.768,0-1.061s-.768-.293-1.061,0Z" data-color="color-2"></path><path d="M7.03,7.97c-.293-.293-.768-.293-1.061,0l-.97,.97V2.75c0-.414-.336-.75-.75-.75s-.75,.336-.75,.75v6.189l-.97-.97c-.293-.293-.768-.293-1.061,0s-.293,.768,0,1.061l2.25,2.25c.146,.146,.338,.22,.53,.22s.384-.073,.53-.22l2.25-2.25c.293-.293,.293-.768,0-1.061Z"></path></g></svg>