<svg xmlns="http://www.w3.org/2000/svg" height="18" width="18" viewBox="0 0 18 18"><title>18 text size increase</title><g fill="#000000" class="nc-icon-wrapper"><path d="M7.75,16c-.414,0-.75-.336-.75-.75V2.75c0-.414,.336-.75,.75-.75s.75,.336,.75,.75V15.25c0,.414-.336,.75-.75,.75Z"></path><path d="M13,3.5H2.5c-.414,0-.75-.336-.75-.75s.336-.75,.75-.75H13c.414,0,.75,.336,.75,.75s-.336,.75-.75,.75Z"></path><path d="M16.25,9h-1.75v-1.75c0-.414-.336-.75-.75-.75s-.75,.336-.75,.75v1.75h-1.75c-.414,0-.75,.336-.75,.75s.336,.75,.75,.75h1.75v1.75c0,.414,.336,.75,.75,.75s.75-.336,.75-.75v-1.75h1.75c.414,0,.75-.336,.75-.75s-.336-.75-.75-.75Z" data-color="color-2"></path></g></svg>