<svg xmlns="http://www.w3.org/2000/svg" height="18" width="18" viewBox="0 0 18 18"><title>18 three arrows up</title><g fill="#000000" class="nc-icon-wrapper"><path d="M4.78,9.72c-.293-.293-.768-.293-1.061,0l-2.25,2.25c-.293,.293-.293,.768,0,1.061s.768,.293,1.061,0l.97-.97v3.189c0,.414,.336,.75,.75,.75s.75-.336,.75-.75v-3.189l.97,.97c.146,.146,.338,.22,.53,.22s.384-.073,.53-.22c.293-.293,.293-.768,0-1.061l-2.25-2.25Z"></path><path d="M11.25,5.75c.192,0,.384-.073,.53-.22,.293-.293,.293-.768,0-1.061l-2.25-2.25c-.293-.293-.768-.293-1.061,0l-2.25,2.25c-.293,.293-.293,.768,0,1.061s.768,.293,1.061,0l.97-.97V15.25c0,.414,.336,.75,.75,.75s.75-.336,.75-.75V4.561l.97,.97c.146,.146,.338,.22,.53,.22Z" data-color="color-2"></path><path d="M14.28,6.72c-.293-.293-.768-.293-1.061,0l-2.25,2.25c-.293,.293-.293,.768,0,1.061s.768,.293,1.061,0l.97-.97v6.189c0,.414,.336,.75,.75,.75s.75-.336,.75-.75v-6.189l.97,.97c.146,.146,.338,.22,.53,.22s.384-.073,.53-.22c.293-.293,.293-.768,0-1.061l-2.25-2.25Z"></path></g></svg>