<svg xmlns="http://www.w3.org/2000/svg" height="18" width="18" viewBox="0 0 18 18"><title>18 three arrows right</title><g fill="#000000" class="nc-icon-wrapper"><path d="M2.75,5h3.189l-.97,.97c-.293,.293-.293,.768,0,1.061,.146,.146,.338,.22,.53,.22s.384-.073,.53-.22l2.25-2.25c.293-.293,.293-.768,0-1.061L6.03,1.47c-.293-.293-.768-.293-1.061,0s-.293,.768,0,1.061l.97,.97H2.75c-.414,0-.75,.336-.75,.75s.336,.75,.75,.75Z"></path><path d="M15.78,8.47l-2.25-2.25c-.293-.293-.768-.293-1.061,0s-.293,.768,0,1.061l.97,.97H2.75c-.414,0-.75,.336-.75,.75s.336,.75,.75,.75H13.439l-.97,.97c-.293,.293-.293,.768,0,1.061,.146,.146,.338,.22,.53,.22s.384-.073,.53-.22l2.25-2.25c.293-.293,.293-.768,0-1.061Z" data-color="color-2"></path><path d="M9.03,10.97c-.293-.293-.768-.293-1.061,0s-.293,.768,0,1.061l.97,.97H2.75c-.414,0-.75,.336-.75,.75s.336,.75,.75,.75h6.189l-.97,.97c-.293,.293-.293,.768,0,1.061,.146,.146,.338,.22,.53,.22s.384-.073,.53-.22l2.25-2.25c.293-.293,.293-.768,0-1.061l-2.25-2.25Z"></path></g></svg>