<svg xmlns="http://www.w3.org/2000/svg" height="18" width="18" viewBox="0 0 18 18"><title>18 table rows plus</title><g fill="#000000" class="nc-icon-wrapper"><path d="M16,8.25v-3.5c0-1.517-1.233-2.75-2.75-2.75H4.75c-1.517,0-2.75,1.233-2.75,2.75v3.5h14Z"></path><path d="M10,14.25c0-1.241,1.01-2.25,2.25-2.25h.25v-.25c0-.876,.508-1.628,1.241-2H2v3.5c0,1.517,1.233,2.75,2.75,2.75h6.103c-.516-.413-.853-1.04-.853-1.75Z"></path><path d="M17.25,13.5h-1.75v-1.75c0-.414-.336-.75-.75-.75s-.75,.336-.75,.75v1.75h-1.75c-.414,0-.75,.336-.75,.75s.336,.75,.75,.75h1.75v1.75c0,.414,.336,.75,.75,.75s.75-.336,.75-.75v-1.75h1.75c.414,0,.75-.336,.75-.75s-.336-.75-.75-.75Z" data-color="color-2"></path></g></svg>