<svg xmlns="http://www.w3.org/2000/svg" height="18" width="18" viewBox="0 0 18 18"><title>18 table rows 3 cols 3</title><g fill="#000000" class="nc-icon-wrapper"><path d="M11 2H7V5.75H11V2Z" data-color="color-2"></path> <path d="M5.5 7.25H1.5V10.75H5.5V7.25Z" data-color="color-2"></path> <path d="M11 12.25H7V16H11V12.25Z" data-color="color-2"></path> <path d="M16.5 7.25H12.5V10.75H16.5V7.25Z" data-color="color-2"></path> <path d="M11 7.25H7V10.75H11V7.25Z"></path> <path d="M12.5 12.25V16H13.75C15.267 16 16.5 14.77 16.5 13.25V12.25H12.5Z"></path> <path d="M5.5 12.25H1.5V13.25C1.5 14.77 2.733 16 4.25 16H5.5V12.25Z"></path> <path d="M5.5 5.75V2H4.25C2.733 2 1.5 3.23 1.5 4.75V5.75H5.5Z"></path> <path d="M12.5 5.75H16.5V4.75C16.5 3.23 15.267 2 13.75 2H12.5V5.75Z"></path></g></svg>