<svg xmlns="http://www.w3.org/2000/svg" height="18" width="18" viewBox="0 0 18 18"><title>18 text outdent right</title><g fill="#000000" class="nc-icon-wrapper"><path d="M13.53,6.22c-.293-.293-.768-.293-1.061,0s-.293,.768,0,1.061l1.72,1.72-1.72,1.72c-.293,.293-.293,.768,0,1.061,.146,.146,.338,.22,.53,.22s.384-.073,.53-.22l2.25-2.25c.293-.293,.293-.768,0-1.061l-2.25-2.25Z" data-color="color-2"></path><path d="M15.25,13.5H2.75c-.414,0-.75,.336-.75,.75s.336,.75,.75,.75H15.25c.414,0,.75-.336,.75-.75s-.336-.75-.75-.75Z"></path><path d="M2.75,11.5h6.5c.414,0,.75-.336,.75-.75s-.336-.75-.75-.75H2.75c-.414,0-.75,.336-.75,.75s.336,.75,.75,.75Z"></path><path d="M2.75,8h6.5c.414,0,.75-.336,.75-.75s-.336-.75-.75-.75H2.75c-.414,0-.75,.336-.75,.75s.336,.75,.75,.75Z"></path><path d="M15.25,3H2.75c-.414,0-.75,.336-.75,.75s.336,.75,.75,.75H15.25c.414,0,.75-.336,.75-.75s-.336-.75-.75-.75Z"></path></g></svg>