<svg xmlns="http://www.w3.org/2000/svg" height="18" width="18" viewBox="0 0 18 18"><title>18 upload</title><g fill="#000000" class="nc-icon-wrapper"><path d="M15.908,12.625l-.816-3.5c-.292-1.251-1.394-2.125-2.678-2.125h-2.663v5.5c0,.414-.336,.75-.75,.75s-.75-.336-.75-.75V7h-2.663c-1.285,0-2.386,.874-2.678,2.125l-.816,3.5c-.192,.822,0,1.673,.524,2.334,.524,.662,1.31,1.041,2.154,1.041H13.229c.844,0,1.63-.379,2.154-1.041,.525-.661,.716-1.512,.524-2.334Z"></path><path d="M12.53,4.22l-3-3c-.293-.293-.768-.293-1.061,0l-3,3c-.293,.293-.293,.768,0,1.061s.768,.293,1.061,0l1.72-1.72v3.439h1.5V3.561l1.72,1.72c.146,.146,.338,.22,.53,.22s.384-.073,.53-.22c.293-.293,.293-.768,0-1.061Z" data-color="color-2"></path></g></svg>