<svg xmlns="http://www.w3.org/2000/svg" height="18" width="18" viewBox="0 0 18 18"><title>18 video 2</title><g fill="#000000" class="nc-icon-wrapper"><path d="M16.431,6.471c-.356-.231-.801-.266-1.189-.094l-1.8,.8c.026,.189,.058,.377,.058,.573v4.5c0,.196-.032,.384-.058,.573l1.8,.8c.163,.072,.336,.108,.508,.108,.238,0,.474-.068,.681-.202,.356-.231,.569-.624,.569-1.048V7.52c0-.425-.213-.817-.569-1.048Z" data-color="color-2"></path><rect x="1" y="5" width="11" height="10" rx="2.75" ry="2.75"></rect><circle cx="4.25" cy="2" r="2" data-color="color-2"></circle><circle cx="9.25" cy="2.5" r="1.5" data-color="color-2"></circle></g></svg>