<svg xmlns="http://www.w3.org/2000/svg" height="18" width="18" viewBox="0 0 18 18"><title>18 window resize x</title><g fill="#000000" class="nc-icon-wrapper"><path d="m14.25,2.5H3.75c-1.5166,0-2.75,1.2334-2.75,2.75v7.5c0,1.5166,1.2334,2.75,2.75,2.75h10.5c1.5166,0,2.75-1.2334,2.75-2.75v-7.5c0-1.5166-1.2334-2.75-2.75-2.75Zm-.4697,7.0303l-2,2c-.1465.1465-.3384.2197-.5303.2197s-.3838-.0732-.5303-.2197c-.293-.293-.293-.7676,0-1.0605l.7197-.7197h-4.8789l.7197.7197c.293.293.293.7676,0,1.0605-.1465.1465-.3384.2197-.5303.2197s-.3838-.0732-.5303-.2197l-2-2c-.293-.293-.293-.7676,0-1.0605l2-2c.293-.293.7676-.293,1.0605,0s.293.7676,0,1.0605l-.7197.7197h4.8789l-.7197-.7197c-.293-.293-.293-.7676,0-1.0605s.7676-.293,1.0605,0l2,2c.293.293.293.7676,0,1.0605Z" stroke-width="0"></path></g></svg>