<svg xmlns="http://www.w3.org/2000/svg" height="12" width="12" viewBox="0 0 12 12"><title>12 arrow down right</title><g fill="#000000" class="nc-icon-wrapper"><path d="m10.073,10.823c-.192,0-.384-.073-.53-.22L1.22,2.28c-.293-.293-.293-.768,0-1.061s.768-.293,1.061,0l8.323,8.323c.293.293.293.768,0,1.061-.146.146-.338.22-.53.22Z" stroke-width="0" data-color="color-2"></path><path d="m10.25,11h-4.75c-.414,0-.75-.336-.75-.75s.336-.75.75-.75h4v-4c0-.414.336-.75.75-.75s.75.336.75.75v4.75c0,.414-.336.75-.75.75Z" stroke-width="0"></path></g></svg>