<svg xmlns="http://www.w3.org/2000/svg" height="12" width="12" viewBox="0 0 12 12"><title>12 arrows reduce diagonal</title><g fill="#000000" class="nc-icon-wrapper"><path d="m11.018,3.982h-1.939l2.202-2.202c.293-.293.293-.768,0-1.061s-.768-.293-1.061,0l-2.202,2.202V.982c0-.414-.336-.75-.75-.75s-.75.336-.75.75v3.75c0,.414.336.75.75.75h3.75c.414,0,.75-.336.75-.75s-.336-.75-.75-.75Z" stroke-width="0" data-color="color-2"></path><path d="m4.732,6.518H.982c-.414,0-.75.336-.75.75s.336.75.75.75h1.939l-2.202,2.202c-.293.293-.293.768,0,1.061.146.146.338.22.53.22s.384-.073.53-.22l2.202-2.202v1.939c0,.414.336.75.75.75s.75-.336.75-.75v-3.75c0-.414-.336-.75-.75-.75Z" stroke-width="0"></path></g></svg>