<svg xmlns="http://www.w3.org/2000/svg" height="12" width="12" viewBox="0 0 12 12"><title>12 ascending sorting</title><g fill="#000000" class="nc-icon-wrapper"><path d="m11.78,5.97l-2.5-2.5c-.293-.293-.768-.293-1.061,0l-2.5,2.5c-.293.293-.293.768,0,1.061s.768.293,1.061,0l1.22-1.22v5.439c0,.414.336.75.75.75s.75-.336.75-.75v-5.439l1.22,1.22c.146.146.338.22.53.22s.384-.073.53-.22c.293-.293.293-.768,0-1.061Z" stroke-width="0" data-color="color-2"></path><path d="m11,2H1c-.414,0-.75-.336-.75-.75s.336-.75.75-.75h10c.414,0,.75.336.75.75s-.336.75-.75.75Z" stroke-width="0"></path><path d="m3.75,5.5H1c-.414,0-.75-.336-.75-.75s.336-.75.75-.75h2.75c.414,0,.75.336.75.75s-.336.75-.75.75Z" stroke-width="0"></path><path d="m3.75,9H1c-.414,0-.75-.336-.75-.75s.336-.75.75-.75h2.75c.414,0,.75.336.75.75s-.336.75-.75.75Z" stroke-width="0"></path></g></svg>