<svg xmlns="http://www.w3.org/2000/svg" height="12" width="12" viewBox="0 0 12 12"><title>12 barcode</title><g fill="#000000" class="nc-icon-wrapper"><path d="m1.25,11c-.414,0-.75-.336-.75-.75V1.75c0-.414.336-.75.75-.75s.75.336.75.75v8.5c0,.414-.336.75-.75.75Z" stroke-width="0"></path><path d="m3.75,7c-.414,0-.75-.336-.75-.75V1.75c0-.414.336-.75.75-.75s.75.336.75.75v4.5c0,.414-.336.75-.75.75Z" stroke-width="0" data-color="color-2"></path><path d="m6.25,11c-.414,0-.75-.336-.75-.75V1.75c0-.414.336-.75.75-.75s.75.336.75.75v8.5c0,.414-.336.75-.75.75Z" stroke-width="0"></path><path d="m8.75,7c-.414,0-.75-.336-.75-.75V1.75c0-.414.336-.75.75-.75s.75.336.75.75v4.5c0,.414-.336.75-.75.75Z" stroke-width="0" data-color="color-2"></path><path d="m11.25,11c-.414,0-.75-.336-.75-.75V1.75c0-.414.336-.75.75-.75s.75.336.75.75v8.5c0,.414-.336.75-.75.75Z" stroke-width="0"></path></g></svg>