<svg xmlns="http://www.w3.org/2000/svg" height="12" width="12" viewBox="0 0 12 12"><title>12 bullet list</title><g fill="#000000" class="nc-icon-wrapper"><path d="m10.75,3h-5c-.414,0-.75-.336-.75-.75s.336-.75.75-.75h5c.414,0,.75.336.75.75s-.336.75-.75.75Z" stroke-width="0" data-color="color-2"></path><path d="m10.75,6h-5c-.414,0-.75-.336-.75-.75s.336-.75.75-.75h5c.414,0,.75.336.75.75s-.336.75-.75.75Z" stroke-width="0" data-color="color-2"></path><path d="m10.75,9h-5c-.414,0-.75-.336-.75-.75s.336-.75.75-.75h5c.414,0,.75.336.75.75s-.336.75-.75.75Z" stroke-width="0" data-color="color-2"></path><path d="m10.75,12h-5c-.414,0-.75-.336-.75-.75s.336-.75.75-.75h5c.414,0,.75.336.75.75s-.336.75-.75.75Z" stroke-width="0" data-color="color-2"></path><circle cx="2.25" cy="2.25" r="1.75" stroke-width="0"></circle><circle cx="2.25" cy="8.25" r="1.75" stroke-width="0"></circle></g></svg>