<svg xmlns="http://www.w3.org/2000/svg" height="12" width="12" viewBox="0 0 12 12"><title>12 border</title><g fill="#000000" class="nc-icon-wrapper"><path d="m10.75.5H1.25c-.414,0-.75.336-.75.75v9.5c0,.414.336.75.75.75h9.5c.414,0,.75-.336.75-.75V1.25c0-.414-.336-.75-.75-.75ZM3,7c-.552,0-1-.448-1-1s.448-1,1-1,1,.448,1,1-.448,1-1,1Zm3,3c-.552,0-1-.448-1-1s.448-1,1-1,1,.448,1,1-.448,1-1,1Zm0-3c-.552,0-1-.448-1-1s.448-1,1-1,1,.448,1,1-.448,1-1,1Zm0-3c-.552,0-1-.448-1-1s.448-1,1-1,1,.448,1,1-.448,1-1,1Zm3,3c-.552,0-1-.448-1-1s.448-1,1-1,1,.448,1,1-.448,1-1,1Z" stroke-width="0"></path></g></svg>