<svg xmlns="http://www.w3.org/2000/svg" height="12" width="12" viewBox="0 0 12 12"><title>12 bars filter</title><g fill="#000000" class="nc-icon-wrapper"><path d="m11.25,3.5H.75c-.414,0-.75-.336-.75-.75s.336-.75.75-.75h10.5c.414,0,.75.336.75.75s-.336.75-.75.75Z" stroke-width="0"></path><path d="m9.25,7H2.75c-.414,0-.75-.336-.75-.75s.336-.75.75-.75h6.5c.414,0,.75.336.75.75s-.336.75-.75.75Z" stroke-width="0" data-color="color-2"></path><path d="m7.25,10.5h-2.5c-.414,0-.75-.336-.75-.75s.336-.75.75-.75h2.5c.414,0,.75.336.75.75s-.336.75-.75.75Z" stroke-width="0"></path></g></svg>