<svg xmlns="http://www.w3.org/2000/svg" height="12" width="12" viewBox="0 0 12 12"><title>12 ballot rect</title><g fill="#000000" class="nc-icon-wrapper"><path d="m11.25,4h-5c-.414,0-.75-.336-.75-.75s.336-.75.75-.75h5c.414,0,.75.336.75.75s-.336.75-.75.75Z" stroke-width="0" data-color="color-2"></path><path d="m11.25,9.5h-5c-.414,0-.75-.336-.75-.75s.336-.75.75-.75h5c.414,0,.75.336.75.75s-.336.75-.75.75Z" stroke-width="0" data-color="color-2"></path><rect y="1" width="4" height="4" rx="1" ry="1" stroke-width="0"></rect><rect y="7" width="4" height="4" rx="1" ry="1" stroke-width="0"></rect></g></svg>