<svg xmlns="http://www.w3.org/2000/svg" height="12" width="12" viewBox="0 0 12 12"><title>12 brackets square</title><g fill="#000000" class="nc-icon-wrapper"><path d="m10.75,11.5h-2.75c-.414,0-.75-.336-.75-.75s.336-.75.75-.75h2V2h-2c-.414,0-.75-.336-.75-.75s.336-.75.75-.75h2.75c.414,0,.75.336.75.75v9.5c0,.414-.336.75-.75.75Z" stroke-width="0" data-color="color-2"></path><path d="m4,11.5H1.25c-.414,0-.75-.336-.75-.75V1.25c0-.414.336-.75.75-.75h2.75c.414,0,.75.336.75.75s-.336.75-.75.75h-2v8h2c.414,0,.75.336.75.75s-.336.75-.75.75Z" stroke-width="0"></path></g></svg>