<svg xmlns="http://www.w3.org/2000/svg" height="12" width="12" viewBox="0 0 12 12"><title>12 chevron minimize diagonal 2</title><g fill="#000000" class="nc-icon-wrapper"><path d="m4.75,5.5H.75c-.414,0-.75-.336-.75-.75s.336-.75.75-.75h3.25V.75c0-.414.336-.75.75-.75s.75.336.75.75v4c0,.414-.336.75-.75.75Z" stroke-width="0"></path><path d="m7.25,12c-.414,0-.75-.336-.75-.75v-4c0-.414.336-.75.75-.75h4c.414,0,.75.336.75.75s-.336.75-.75.75h-3.25v3.25c0,.414-.336.75-.75.75Z" stroke-width="0" data-color="color-2"></path></g></svg>