<svg xmlns="http://www.w3.org/2000/svg" height="12" width="12" viewBox="0 0 12 12"><title>12 chevron maximize diagonal</title><g fill="#000000" class="nc-icon-wrapper"><path d="m10.25,6.5c-.414,0-.75-.336-.75-.75v-3.25h-3.25c-.414,0-.75-.336-.75-.75s.336-.75.75-.75h4c.414,0,.75.336.75.75v4c0,.414-.336.75-.75.75Z" stroke-width="0"></path><path d="m5.75,11H1.75c-.414,0-.75-.336-.75-.75v-4c0-.414.336-.75.75-.75s.75.336.75.75v3.25h3.25c.414,0,.75.336.75.75s-.336.75-.75.75Z" stroke-width="0" data-color="color-2"></path></g></svg>