<svg xmlns="http://www.w3.org/2000/svg" height="12" width="12" viewBox="0 0 12 12"><title>12 crosshairs 2</title><g fill="#000000" class="nc-icon-wrapper"><path d="m10.25,6.75c-.414,0-.75-.336-.75-.75s.336-.75.75-.75h1.698C11.608,2.541,9.459.392,6.75.052v1.698c0,.414-.336.75-.75.75s-.75-.336-.75-.75V.052C2.541.392.392,2.541.052,5.25h1.698c.414,0,.75.336.75.75s-.336.75-.75.75H.052c.34,2.709,2.489,4.858,5.198,5.198v-1.698c0-.414.336-.75.75-.75s.75.336.75.75v1.698c2.709-.34,4.858-2.489,5.198-5.198h-1.698Z" stroke-width="0"></path></g></svg>