<svg xmlns="http://www.w3.org/2000/svg" height="12" width="12" viewBox="0 0 12 12"><title>12 clone 2</title><g fill="#000000" class="nc-icon-wrapper"><path d="m3.667,9h-1.417c-1.241,0-2.25-1.009-2.25-2.25V2.25C0,1.009,1.009,0,2.25,0h4.5c1.241,0,2.25,1.009,2.25,2.25v1.5c0,.414-.336.75-.75.75s-.75-.336-.75-.75v-1.5c0-.414-.336-.75-.75-.75H2.25c-.414,0-.75.336-.75.75v4.5c0,.414.336.75.75.75h1.417c.414,0,.75.336.75.75s-.336.75-.75.75Z" stroke-width="0" data-color="color-2"></path><rect x="3" y="3" width="9" height="9" rx="2.25" ry="2.25" stroke-width="0"></rect></g></svg>