<svg xmlns="http://www.w3.org/2000/svg" height="12" width="12" viewBox="0 0 12 12"><title>12 caret minimize diagonal</title><g fill="#000000" class="nc-icon-wrapper"><path d="m7.707.396c-.287-.287-.714-.373-1.09-.217-.375.155-.617.518-.617.924v3.896c0,.551.449,1,1,1h3.896c.406,0,.769-.242.924-.617s.07-.803-.217-1.09L7.707.396Z" stroke-width="0" data-color="color-2"></path><path d="m5,6H1.104c-.406,0-.769.242-.924.617s-.07.803.217,1.09l3.896,3.896c.192.192.446.293.706.293.129,0,.259-.025.384-.077.375-.155.617-.518.617-.924v-3.896c0-.551-.449-1-1-1Z" stroke-width="0"></path></g></svg>