<svg xmlns="http://www.w3.org/2000/svg" height="12" width="12" viewBox="0 0 12 12"><title>12 caret reduce y</title><g fill="#000000" class="nc-icon-wrapper"><path d="m9.047,10.398l-2.248-2.983c-.375-.5-1.223-.5-1.598,0l-2.248,2.983c-.23.305-.267.707-.097,1.048s.513.554.895.554h4.498c.382,0,.725-.212.895-.554s.134-.743-.097-1.048Z" stroke-width="0" data-color="color-2"></path><path d="m9.144.554c-.17-.342-.513-.554-.895-.554H3.751c-.382,0-.725.212-.895.554s-.134.743.097,1.048l2.248,2.983c.188.25.486.399.799.399s.611-.149.798-.398l2.249-2.984c.23-.305.267-.707.097-1.048Z" stroke-width="0"></path></g></svg>