<svg xmlns="http://www.w3.org/2000/svg" height="12" width="12" viewBox="0 0 12 12"><title>12 camera 2 2</title><g fill="#000000" class="nc-icon-wrapper"><path d="m4.75,1.5h-2c-.414,0-.75-.336-.75-.75s.336-.75.75-.75h2c.414,0,.75.336.75.75s-.336.75-.75.75Z" fill="#000000" stroke-width="0" data-color="color-2"></path><path d="m9.25,2.5H2.75c-1.517,0-2.75,1.233-2.75,2.75v4c0,1.517,1.233,2.75,2.75,2.75h6.5c1.517,0,2.75-1.233,2.75-2.75v-4c0-1.517-1.233-2.75-2.75-2.75Zm-6.75,3.5c-.552,0-1-.448-1-1s.448-1,1-1,1,.448,1,1-.448,1-1,1Zm5,4c-1.378,0-2.5-1.122-2.5-2.5s1.122-2.5,2.5-2.5,2.5,1.122,2.5,2.5-1.122,2.5-2.5,2.5Z" stroke-width="0" fill="#000000"></path></g></svg>