<svg xmlns="http://www.w3.org/2000/svg" height="12" width="12" viewBox="0 0 12 12"><title>12 chart activity 2</title><g fill="#000000" class="nc-icon-wrapper"><path d="m7.5,11c-.318,0-.602-.2-.707-.5l-2.272-6.438-.809,2.426c-.102.306-.389.513-.711.513H.75c-.414,0-.75-.336-.75-.75s.336-.75.75-.75h1.709l1.329-3.987c.101-.304.384-.51.705-.513h.006c.318,0,.602.2.707.5l2.272,6.438.809-2.426c.102-.306.389-.513.711-.513h2.25c.414,0,.75.336.75.75s-.336.75-.75.75h-1.709l-1.329,3.987c-.101.304-.384.51-.705.513h-.006Z" stroke-width="0"></path></g></svg>