<svg xmlns="http://www.w3.org/2000/svg" height="12" width="12" viewBox="0 0 12 12"><title>12 chart 2</title><g fill="#000000" class="nc-icon-wrapper"><path d="m10.75,8c-.414,0-.75-.336-.75-.75V1.25c0-.414.336-.75.75-.75s.75.336.75.75v6c0,.414-.336.75-.75.75Z" stroke-width="0" data-color="color-2"></path><path d="m4.75,11.5c-.414,0-.75-.336-.75-.75V1.25c0-.414.336-.75.75-.75s.75.336.75.75v9.5c0,.414-.336.75-.75.75Z" stroke-width="0" data-color="color-2"></path><path d="m1.75,7c-.414,0-.75-.336-.75-.75V1.25c0-.414.336-.75.75-.75s.75.336.75.75v5c0,.414-.336.75-.75.75Z" stroke-width="0"></path><path d="m7.75,5c-.414,0-.75-.336-.75-.75V1.25c0-.414.336-.75.75-.75s.75.336.75.75v3c0,.414-.336.75-.75.75Z" stroke-width="0"></path></g></svg>