<svg xmlns="http://www.w3.org/2000/svg" height="12" width="12" viewBox="0 0 12 12"><title>12 clone</title><g fill="#000000" class="nc-icon-wrapper"><path d="m9.75,12h-4.5c-1.241,0-2.25-1.009-2.25-2.25v-1.5c0-.414.336-.75.75-.75s.75.336.75.75v1.5c0,.414.336.75.75.75h4.5c.414,0,.75-.336.75-.75v-4.5c0-.414-.336-.75-.75-.75h-1.417c-.414,0-.75-.336-.75-.75s.336-.75.75-.75h1.417c1.241,0,2.25,1.009,2.25,2.25v4.5c0,1.241-1.009,2.25-2.25,2.25Z" stroke-width="0" data-color="color-2"></path><rect width="9" height="9" rx="2.25" ry="2.25" stroke-width="0"></rect></g></svg>