<svg xmlns="http://www.w3.org/2000/svg" height="12" width="12" viewBox="0 0 12 12"><title>12 double chevron up</title><g fill="#000000" class="nc-icon-wrapper"><path d="m10,6.5c-.192,0-.384-.073-.53-.22l-3.47-3.47-3.47,3.47c-.293.293-.768.293-1.061,0s-.293-.768,0-1.061L5.47,1.22c.293-.293.768-.293,1.061,0l4,4c.293.293.293.768,0,1.061-.146.146-.338.22-.53.22Z" stroke-width="0"></path><path d="m10,11c-.192,0-.384-.073-.53-.22l-3.47-3.47-3.47,3.47c-.293.293-.768.293-1.061,0s-.293-.768,0-1.061l4-4c.293-.293.768-.293,1.061,0l4,4c.293.293.293.768,0,1.061-.146.146-.338.22-.53.22Z" stroke-width="0" data-color="color-2"></path></g></svg>