<svg xmlns="http://www.w3.org/2000/svg" height="12" width="12" viewBox="0 0 12 12"><title>12 double chevron right</title><g fill="#000000" class="nc-icon-wrapper"><path d="m6.25,10.75c-.192,0-.384-.073-.53-.22-.293-.293-.293-.768,0-1.061l3.47-3.47-3.47-3.47c-.293-.293-.293-.768,0-1.061s.768-.293,1.061,0l4,4c.293.293.293.768,0,1.061l-4,4c-.146.146-.338.22-.53.22Z" stroke-width="0" data-color="color-2"></path><path d="m1.75,10.75c-.192,0-.384-.073-.53-.22-.293-.293-.293-.768,0-1.061l3.47-3.47L1.22,2.53c-.293-.293-.293-.768,0-1.061s.768-.293,1.061,0l4,4c.293.293.293.768,0,1.061l-4,4c-.146.146-.338.22-.53.22Z" stroke-width="0"></path></g></svg>