<svg xmlns="http://www.w3.org/2000/svg" height="12" width="12" viewBox="0 0 12 12"><title>12 double chevron left</title><g fill="#000000" class="nc-icon-wrapper"><path d="m5.75,10.75c-.192,0-.384-.073-.53-.22L1.22,6.53c-.293-.293-.293-.768,0-1.061L5.22,1.47c.293-.293.768-.293,1.061,0s.293.768,0,1.061l-3.47,3.47,3.47,3.47c.293.293.293.768,0,1.061-.146.146-.338.22-.53.22Z" stroke-width="0"></path><path d="m10.25,10.75c-.192,0-.384-.073-.53-.22l-4-4c-.293-.293-.293-.768,0-1.061L9.72,1.47c.293-.293.768-.293,1.061,0s.293.768,0,1.061l-3.47,3.47,3.47,3.47c.293.293.293.768,0,1.061-.146.146-.338.22-.53.22Z" stroke-width="0" data-color="color-2"></path></g></svg>