<svg xmlns="http://www.w3.org/2000/svg" height="12" width="12" viewBox="0 0 12 12"><title>12 expand obj</title><g fill="#000000" class="nc-icon-wrapper"><path d="m1.25,5c-.414,0-.75-.336-.75-.75v-2.25c0-.827.673-1.5,1.5-1.5h2.25c.414,0,.75.336.75.75s-.336.75-.75.75h-2.25v2.25c0,.414-.336.75-.75.75Z" stroke-width="0" data-color="color-2"></path><path d="m10,11.5h-2.25c-.414,0-.75-.336-.75-.75s.336-.75.75-.75h2.25v-2.25c0-.414.336-.75.75-.75s.75.336.75.75v2.25c0,.827-.673,1.5-1.5,1.5Z" stroke-width="0" data-color="color-2"></path><rect x="3" y="3" width="6" height="6" rx="1.75" ry="1.75" stroke-width="0"></rect></g></svg>