<svg xmlns="http://www.w3.org/2000/svg" height="12" width="12" viewBox="0 0 12 12"><title>12 follow obj right</title><g fill="#000000" class="nc-icon-wrapper"><path d="m3.78,2.97c-.293-.293-.768-.293-1.061,0s-.293.768,0,1.061l1.22,1.22H.75c-.414,0-.75.336-.75.75s.336.75.75.75h3.189l-1.22,1.22c-.293.293-.293.768,0,1.061.146.146.338.22.53.22s.384-.073.53-.22l2.5-2.5c.293-.293.293-.768,0-1.061l-2.5-2.5Z" stroke-width="0" data-color="color-2"></path><rect x="7.5" width="4.5" height="12" rx="1.75" ry="1.75" stroke-width="0"></rect></g></svg>