<svg xmlns="http://www.w3.org/2000/svg" height="12" width="12" viewBox="0 0 12 12"><title>12 frame 2</title><g fill="#000000" class="nc-icon-wrapper"><path d="m11.25,9.5H.75c-.414,0-.75-.336-.75-.75s.336-.75.75-.75h10.5c.414,0,.75.336.75.75s-.336.75-.75.75Z" stroke-width="0" data-color="color-2"></path><path d="m11.25,4H.75c-.414,0-.75-.336-.75-.75s.336-.75.75-.75h10.5c.414,0,.75.336.75.75s-.336.75-.75.75Z" stroke-width="0" data-color="color-2"></path><path d="m3.25,12c-.414,0-.75-.336-.75-.75V.75c0-.414.336-.75.75-.75s.75.336.75.75v10.5c0,.414-.336.75-.75.75Z" stroke-width="0"></path><path d="m8.75,12c-.414,0-.75-.336-.75-.75V.75c0-.414.336-.75.75-.75s.75.336.75.75v10.5c0,.414-.336.75-.75.75Z" stroke-width="0"></path></g></svg>