<svg xmlns="http://www.w3.org/2000/svg" height="12" width="12" viewBox="0 0 12 12"><title>12 follow obj up</title><g fill="#000000" class="nc-icon-wrapper"><path d="m6.53,5.72c-.293-.293-.768-.293-1.061,0l-2.5,2.5c-.293.293-.293.768,0,1.061s.768.293,1.061,0l1.22-1.22v3.189c0,.414.336.75.75.75s.75-.336.75-.75v-3.189l1.22,1.22c.146.146.338.22.53.22s.384-.073.53-.22c.293-.293.293-.768,0-1.061l-2.5-2.5Z" stroke-width="0" data-color="color-2"></path><rect width="12" height="4.5" rx="1.75" ry="1.75" stroke-width="0"></rect></g></svg>