<svg xmlns="http://www.w3.org/2000/svg" height="12" width="12" viewBox="0 0 12 12"><title>12 grid plus 2</title><g fill="#000000" class="nc-icon-wrapper"><path d="m4.75,8.5h-1.25v-1.25c0-.414-.336-.75-.75-.75s-.75.336-.75.75v1.25H.75c-.414,0-.75.336-.75.75s.336.75.75.75h1.25v1.25c0,.414.336.75.75.75s.75-.336.75-.75v-1.25h1.25c.414,0,.75-.336.75-.75s-.336-.75-.75-.75Z" stroke-width="0" data-color="color-2"></path><path d="m11.25,2h-1.25V.75c0-.414-.336-.75-.75-.75s-.75.336-.75.75v1.25h-1.25c-.414,0-.75.336-.75.75s.336.75.75.75h1.25v1.25c0,.414.336.75.75.75s.75-.336.75-.75v-1.25h1.25c.414,0,.75-.336.75-.75s-.336-.75-.75-.75Z" stroke-width="0" data-color="color-2"></path><path d="m11.25,8.5h-1.25v-1.25c0-.414-.336-.75-.75-.75s-.75.336-.75.75v1.25h-1.25c-.414,0-.75.336-.75.75s.336.75.75.75h1.25v1.25c0,.414.336.75.75.75s.75-.336.75-.75v-1.25h1.25c.414,0,.75-.336.75-.75s-.336-.75-.75-.75Z" stroke-width="0"></path><path d="m4.75,2h-1.25V.75c0-.414-.336-.75-.75-.75s-.75.336-.75.75v1.25H.75c-.414,0-.75.336-.75.75s.336.75.75.75h1.25v1.25c0,.414.336.75.75.75s.75-.336.75-.75v-1.25h1.25c.414,0,.75-.336.75-.75s-.336-.75-.75-.75Z" stroke-width="0"></path></g></svg>