<svg xmlns="http://www.w3.org/2000/svg" height="12" width="12" viewBox="0 0 12 12"><title>12 mirror obj y</title><g fill="#000000" class="nc-icon-wrapper"><path d="m11.25,6.75H.75c-.414,0-.75-.336-.75-.75s.336-.75.75-.75h10.5c.414,0,.75.336.75.75s-.336.75-.75.75Z" stroke-width="0" data-color="color-2"></path><path d="m10.75,4.25c-.414,0-.75-.336-.75-.75v-.25c0-.689-.561-1.25-1.25-1.25H3.25c-.689,0-1.25.561-1.25,1.25v.25c0,.414-.336.75-.75.75s-.75-.336-.75-.75v-.25C.5,1.733,1.733.5,3.25.5h5.5c1.517,0,2.75,1.233,2.75,2.75v.25c0,.414-.336.75-.75.75Z" stroke-width="0"></path><path d="m8.75,11.5H3.25c-1.517,0-2.75-1.233-2.75-2.75v-.25c0-.414.336-.75.75-.75s.75.336.75.75v.25c0,.689.561,1.25,1.25,1.25h5.5c.689,0,1.25-.561,1.25-1.25v-.25c0-.414.336-.75.75-.75s.75.336.75.75v.25c0,1.517-1.233,2.75-2.75,2.75Z" stroke-width="0"></path></g></svg>