<svg xmlns="http://www.w3.org/2000/svg" height="12" width="12" viewBox="0 0 12 12"><title>12 move obj up right</title><g fill="#000000" class="nc-icon-wrapper"><path d="m11.25,0h-3.75c-.414,0-.75.336-.75.75s.336.75.75.75h1.939l-2.952,2.952c-.293.293-.293.768,0,1.061.146.146.338.22.53.22s.384-.073.53-.22l2.952-2.952v1.939c0,.414.336.75.75.75s.75-.336.75-.75V.75c0-.414-.336-.75-.75-.75Z" stroke-width="0" data-color="color-2"></path><rect x="0" y="6" width="6" height="6" rx="1.75" ry="1.75" stroke-width="0"></rect></g></svg>