<svg xmlns="http://www.w3.org/2000/svg" height="12" width="12" viewBox="0 0 12 12"><title>12 notebook</title><g fill="#000000" class="nc-icon-wrapper"><path d="m4,.024c-1.313.121-2.354,1.162-2.475,2.476h-.775c-.414,0-.75.336-.75.75s.336.75.75.75h.75v1.25h-.75c-.414,0-.75.336-.75.75s.336.75.75.75h.75v1.25h-.75c-.414,0-.75.336-.75.75s.336.75.75.75h.775c.121,1.314,1.162,2.355,2.475,2.476V.024Z" stroke-width="0" data-color="color-2"></path><path d="m8.25,0h-2.75v12h2.75c1.517,0,2.75-1.233,2.75-2.75V2.75c0-1.517-1.233-2.75-2.75-2.75Z" stroke-width="0"></path></g></svg>