<svg xmlns="http://www.w3.org/2000/svg" height="12" width="12" viewBox="0 0 12 12"><title>12 rect center x</title><g fill="#000000" class="nc-icon-wrapper"><path d="m.75,11.75c-.414,0-.75-.336-.75-.75V1C0,.586.336.25.75.25s.75.336.75.75v10c0,.414-.336.75-.75.75Z" stroke-width="0" data-color="color-2"></path><path d="m11.25,11.75c-.414,0-.75-.336-.75-.75V1c0-.414.336-.75.75-.75s.75.336.75.75v10c0,.414-.336.75-.75.75Z" stroke-width="0" data-color="color-2"></path><rect x="3" y="3" width="6" height="6" rx="1.75" ry="1.75" stroke-width="0"></rect></g></svg>