<svg xmlns="http://www.w3.org/2000/svg" height="12" width="12" viewBox="0 0 12 12"><title>12 scale from bottom left</title><g fill="#000000" class="nc-icon-wrapper"><path d="m3.25,10.75h2.75v-3c0-.966-.784-1.75-1.75-1.75H1.25v2.75c0,1.105.895,2,2,2Z" stroke-width="0" data-color="color-2"></path><path d="m8.75,11.5H3.25c-1.517,0-2.75-1.233-2.75-2.75V3.25C.5,1.733,1.733.5,3.25.5h5.5c1.517,0,2.75,1.233,2.75,2.75v5.5c0,1.517-1.233,2.75-2.75,2.75ZM3.25,2c-.689,0-1.25.561-1.25,1.25v5.5c0,.689.561,1.25,1.25,1.25h5.5c.689,0,1.25-.561,1.25-1.25V3.25c0-.689-.561-1.25-1.25-1.25H3.25Z" stroke-width="0"></path></g></svg>