<svg xmlns="http://www.w3.org/2000/svg" height="12" width="12" viewBox="0 0 12 12"><title>12 sparkle 2</title><g fill="#000000" class="nc-icon-wrapper"><path d="m3.492,10.508l-.946.315-.316.947c-.102.306-.609.306-.711,0l-.316-.947-.946-.315c-.153-.051-.257-.194-.257-.356s.104-.305.257-.356l.946-.315.316-.947c.051-.153.194-.256.355-.256s.305.104.355.256l.316.947.946.315c.153.051.257.194.257.356s-.104.305-.257.356h0Z" stroke-width="0" data-color="color-2"></path><path d="m11.526,4.803l-3.102-1.227L7.197.474c-.113-.286-.39-.474-.697-.474s-.584.188-.697.474l-1.227,3.102-3.102,1.227c-.286.113-.474.39-.474.697s.188.584.474.697l3.102,1.227,1.227,3.102c.113.286.39.474.697.474s.584-.188.697-.474l1.227-3.102,3.102-1.227c.286-.113.474-.39.474-.697s-.188-.584-.474-.697Z" stroke-width="0"></path></g></svg>