<svg xmlns="http://www.w3.org/2000/svg" height="12" width="12" viewBox="0 0 12 12"><title>12 steps indicator</title><g fill="#000000" class="nc-icon-wrapper"><path d="m4,6.75H.75c-.414,0-.75-.336-.75-.75s.336-.75.75-.75h3.25c.414,0,.75.336.75.75s-.336.75-.75.75Z" stroke-width="0" data-color="color-2"></path><path d="m11.25,6.75h-3.25c-.414,0-.75-.336-.75-.75s.336-.75.75-.75h3.25c.414,0,.75.336.75.75s-.336.75-.75.75Z" stroke-width="0" data-color="color-2"></path><path d="m6,3c-1.655,0-3,1.346-3,3s1.345,3,3,3,3-1.346,3-3-1.345-3-3-3Zm0,4c-.552,0-1-.448-1-1s.448-1,1-1,1,.448,1,1-.448,1-1,1Z" stroke-width="0"></path></g></svg>