<svg xmlns="http://www.w3.org/2000/svg" height="12" width="12" viewBox="0 0 12 12"><title>12 sitemap 3</title><g fill="#000000" class="nc-icon-wrapper"><path d="m7.75,5h-1v-1.25c0-.414-.336-.75-.75-.75s-.75.336-.75.75v1.25h-1c-1.241,0-2.25,1.009-2.25,2.25v1c0,.414.336.75.75.75s.75-.336.75-.75v-1c0-.414.336-.75.75-.75h3.5c.414,0,.75.336.75.75v1c0,.414.336.75.75.75s.75-.336.75-.75v-1c0-1.241-1.009-2.25-2.25-2.25Z" stroke-width="0" data-color="color-2"></path><circle cx="2.75" cy="10" r="2" stroke-width="0"></circle><circle cx="6" cy="2" r="2" stroke-width="0"></circle><circle cx="9.25" cy="10" r="2" stroke-width="0"></circle></g></svg>