<svg xmlns="http://www.w3.org/2000/svg" height="12" width="12" viewBox="0 0 12 12"><title>12 text align right</title><g fill="#000000" class="nc-icon-wrapper"><path d="m10.75,6.75h-4.5c-.414,0-.75-.336-.75-.75s.336-.75.75-.75h4.5c.414,0,.75.336.75.75s-.336.75-.75.75Z" stroke-width="0" data-color="color-2"></path><path d="m10.75,3H1.25c-.414,0-.75-.336-.75-.75s.336-.75.75-.75h9.5c.414,0,.75.336.75.75s-.336.75-.75.75Z" stroke-width="0"></path><path d="m10.75,10.5H1.25c-.414,0-.75-.336-.75-.75s.336-.75.75-.75h9.5c.414,0,.75.336.75.75s-.336.75-.75.75Z" stroke-width="0"></path></g></svg>