<svg xmlns="http://www.w3.org/2000/svg" height="12" width="12" viewBox="0 0 12 12"><title>12 timeline vertical</title><g fill="#000000" class="nc-icon-wrapper"><rect x="6" width="5" height="5" rx="1.75" ry="1.75" stroke-width="0"></rect><rect x="6" y="7" width="5" height="5" rx="1.75" ry="1.75" stroke-width="0"></rect><path d="m3.75,8.5h-.75V3.5h.75c.414,0,.75-.336.75-.75s-.336-.75-.75-.75h-.75V.75c0-.414-.336-.75-.75-.75s-.75.336-.75.75v10.5c0,.414.336.75.75.75s.75-.336.75-.75v-1.25h.75c.414,0,.75-.336.75-.75s-.336-.75-.75-.75Z" stroke-width="0" data-color="color-2"></path></g></svg>