<svg preserveAspectRatio="none" width="100%" height="100%" overflow="visible" style="display: block;" viewBox="0 0 45.4003 12.2732" fill="none" xmlns="http://www.w3.org/2000/svg">
<g id="Group 469270">
<path id="Vector" d="M43.673 8.9775H42.3551C42.0822 8.9775 41.8548 8.79692 41.8548 8.57119C41.8548 8.30031 42.0822 8.16487 42.3551 8.16487H44.7636L45.3093 6.94687H42.3551C41.1281 6.94687 40.4459 7.66826 40.4459 8.61633C40.4459 9.5644 41.1281 10.1955 42.1732 10.1955H43.4911C43.764 10.1955 43.9914 10.3761 43.9914 10.6018C43.9914 10.8276 43.8095 11.0081 43.4911 11.0081H40.5824V12.2261H43.4911C44.7181 12.2261 45.4003 11.5047 45.4003 10.5115C45.4003 9.51832 44.7636 8.9775 43.673 8.9775ZM38.3558 8.9775H37.0379C36.765 8.9775 36.5376 8.79692 36.5376 8.57119C36.5376 8.30031 36.765 8.16487 37.0379 8.16487H39.4463L39.9921 6.94687H37.0379C35.8109 6.94687 35.1296 7.66826 35.1296 8.61633C35.1296 9.5644 35.8109 10.1955 36.8569 10.1955H38.1748C38.4477 10.1955 38.6751 10.3761 38.6751 10.6018C38.6751 10.8276 38.4932 11.0081 38.1748 11.0081H35.2661V12.2261H38.1748C39.4018 12.2261 40.0831 11.5047 40.0831 10.5115C40.1285 9.51926 39.4928 8.9775 38.3558 8.9775ZM29.9488 12.2704H34.4939V11.0523H31.4032V10.1955H34.4484V8.9775H31.4032V8.12066H34.4939V6.90266H29.9488V12.2713V12.2704ZM27.131 9.20323H25.6312V8.12066H27.131C27.5403 8.12066 27.7677 8.39154 27.7677 8.66242C27.7677 8.97844 27.5403 9.20417 27.131 9.20417M29.2212 8.61727C29.2212 7.57985 28.4935 6.90266 27.312 6.90266H24.1758V12.2713H25.6302V10.4222H26.176L27.8123 12.2713H29.5395L27.7668 10.3319C28.6754 10.1062 29.2212 9.47505 29.2212 8.61727ZM21.45 9.29447H19.9046V8.12161H21.45C21.8593 8.12161 22.0867 8.39248 22.0867 8.70851C22.0867 9.02453 21.9047 9.29541 21.45 9.29541M21.6319 6.90454H18.4957V12.2732H19.9501V10.5134H21.6319C22.8589 10.5134 23.5865 9.74687 23.5865 8.70851C23.541 7.62594 22.8143 6.9036 21.6319 6.9036M18.2238 6.9036H16.361L14.9976 8.52792L13.5887 6.9036H11.6796L14.088 9.56534L11.6341 12.2722H13.4968L14.9512 10.5576L16.4056 12.2722H18.3138L15.8598 9.5202L18.2228 6.9036H18.2238ZM6.90806 12.2722H11.4522V11.0542H8.31601V10.1974H11.3612V8.97938H8.31601V8.12255H11.4522V6.90454H6.90806V12.2732V12.2722ZM43.1273 3.29285L40.9007 0.0451462H39.0825V5.36863H40.5369V1.98455L42.8089 5.36769H44.5362V0.0451462H43.1273V3.29379V3.29285ZM34.7649 3.11226L35.5371 1.30736L36.3092 3.11226H34.7639H34.7649ZM34.5829 0.0442056L32.2199 5.41284H33.8107L34.2655 4.33027H36.765L37.2198 5.41284H38.8561L36.4476 0.0451462H34.5839L34.5829 0.0442056ZM29.8569 2.75109V2.6608C29.8569 1.84911 30.3117 1.30736 31.2203 1.30736H32.8112V0H31.0839C29.3112 0 28.4025 1.12771 28.4025 2.6166V2.70689C28.4025 4.37636 29.4476 5.32348 31.0384 5.32348H31.5387L32.129 4.10548H31.2658C30.4027 4.15063 29.8569 3.65402 29.8569 2.75203M26.2215 5.36863H27.6758V0.0451462H26.2215V5.36863ZM23.4037 2.30057H21.9038V1.21801H23.4037C23.813 1.21801 24.0404 1.48888 24.0404 1.75976C24.0404 2.07578 23.813 2.30151 23.4037 2.30151M25.4938 1.75976C25.4938 0.722338 24.7661 0.0451462 23.5856 0.0451462H20.4494V5.41378H21.9038V3.51952H22.4495L24.0858 5.36957H25.8586L24.0413 3.43017C24.9499 3.24958 25.4957 2.57333 25.4957 1.7607M14.9521 5.36957H19.4963V4.15157H16.4056V3.29473H19.4053V2.07672H16.4056V1.21989H19.4963V0.0451462H14.9521V5.36863V5.36957ZM10.3626 3.38408L9.13463 0.0451462H6.90806V5.36863H8.31696V1.53403L9.72586 5.36863H10.9983L12.4072 1.53403V5.36863H13.8616V0.0451462H11.5895L10.3626 3.38314V3.38408ZM2.54587 3.1132L3.31807 1.3083L4.09026 3.1132H2.54493H2.54587ZM2.36301 0.0451462L0 5.36863H1.59082L2.0456 4.28606H4.54505L4.99984 5.36863H6.63614L4.2267 0.0451462H2.36301Z" fill="var(--fill-0, #006FCF)"/>
</g>
</svg>
