<svg preserveAspectRatio="none" width="100%" height="100%" overflow="visible" style="display: block;" viewBox="0 0 54.1602 9.22872" fill="none" xmlns="http://www.w3.org/2000/svg">
<g id="Group 469271">
<path id="Vector" d="M2.48078 0.24947H0V8.9381H2.48078C3.78815 8.9381 4.75046 8.62197 5.57774 7.93078C6.57005 7.10457 7.15623 5.87115 7.15623 4.59378C7.14122 2.03799 5.23161 0.24947 2.48078 0.24947ZM4.46541 6.77344C3.93925 7.2546 3.24806 7.46463 2.15073 7.46463H1.69958V1.72294H2.15073C3.24806 1.72294 3.90924 1.91797 4.46541 2.42913C5.05158 2.95529 5.39771 3.7515 5.39771 4.59378C5.39771 5.42107 5.05158 6.24728 4.46541 6.77344Z" fill="var(--fill-0, black)"/>
<path id="Vector_2" d="M9.62398 0.23028H7.92548V8.91891H9.62398V0.23028Z" fill="var(--fill-0, black)"/>
<path id="Vector_3" d="M13.7601 3.58184C12.7378 3.2057 12.4527 2.95066 12.4527 2.48451C12.4527 1.94334 12.9789 1.5222 13.7151 1.5222C14.2262 1.5222 14.6324 1.73224 15.0825 2.22839L15.9697 1.07105C15.2486 0.439871 14.3763 0.108743 13.414 0.108743C11.8805 0.108743 10.7081 1.17607 10.7081 2.58953C10.7081 3.79187 11.2493 4.39305 12.8428 4.96422C13.504 5.20426 13.8501 5.35536 14.0151 5.46037C14.3613 5.68541 14.5263 6.00154 14.5263 6.36267C14.5263 7.06886 13.9701 7.58002 13.2189 7.58002C12.4077 7.58002 11.7605 7.17388 11.3704 6.42268L10.2731 7.475C11.0543 8.61734 11.9866 9.1285 13.2789 9.1285C15.0374 9.1285 16.2698 7.95616 16.2698 6.27266C16.2698 4.90528 15.6986 4.28803 13.759 3.58184H13.7601Z" fill="var(--fill-0, black)"/>
<path id="Vector_4" d="M16.7913 4.58634C16.7913 7.14213 18.7909 9.11068 21.3756 9.11068C22.0968 9.11068 22.728 8.96066 23.4953 8.59952V6.59989C22.8191 7.27608 22.2179 7.5472 21.4506 7.5472C19.7521 7.5472 18.5348 6.31485 18.5348 4.55633C18.5348 2.79781 19.7821 1.58046 21.3756 1.58046C22.1868 1.58046 22.7891 1.86658 23.4953 2.55777V0.558145C22.7591 0.182009 22.1429 0.0319834 21.4056 0.0319834C18.8498 0.0469859 16.7913 2.06162 16.7913 4.58634Z" fill="var(--fill-0, black)"/>
<path id="Vector_5" d="M36.9206 6.08225L34.6059 0.24947H32.7574L36.4544 9.16421H37.3567L41.1149 0.24947H39.2813L36.9206 6.08225Z" fill="var(--fill-0, black)"/>
<path id="Vector_6" d="M41.879 8.9381H46.6745V7.46571H43.5625V5.11995H46.5545V3.64755H43.5625V1.72294H46.6745V0.24947H41.879V8.9381Z" fill="var(--fill-0, black)"/>
<path id="Vector_7" d="M53.3801 2.82027C53.3801 1.19678 52.2677 0.24947 50.3131 0.24947H47.8023V8.9381H49.5008V5.45107H49.7259L52.0706 8.9381H54.1602L51.4244 5.28497C52.6717 5.01493 53.379 4.14264 53.379 2.82027H53.3801ZM49.9831 4.24873H49.4869V1.61792H50.0131C51.0654 1.61792 51.6366 2.05406 51.6366 2.91028C51.6366 3.7665 51.0654 4.24765 49.9831 4.24765V4.24873Z" fill="var(--fill-0, black)"/>
<path id="Vector_8" d="M28.6658 9.22872C31.2143 9.22872 33.2802 7.1628 33.2802 4.61436C33.2802 2.06592 31.2143 0 28.6658 0C26.1174 0 24.0515 2.06592 24.0515 4.61436C24.0515 7.1628 26.1174 9.22872 28.6658 9.22872Z" fill="url(#paint0_linear_13004_283951)"/>
<path id="Vector_9" opacity="0.65" d="M28.6658 9.22872C31.2143 9.22872 33.2802 7.1628 33.2802 4.61436C33.2802 2.06592 31.2143 0 28.6658 0C26.1174 0 24.0515 2.06592 24.0515 4.61436C24.0515 7.1628 26.1174 9.22872 28.6658 9.22872Z" fill="url(#paint1_linear_13004_283951)"/>
</g>
<defs>
<linearGradient id="paint0_linear_13004_283951" x1="31.0309" y1="8.31785" x2="27.8332" y2="3.31021" gradientUnits="userSpaceOnUse">
<stop stop-color="#F89F20"/>
<stop offset="0.25" stop-color="#F79A20"/>
<stop offset="0.53" stop-color="#F68D20"/>
<stop offset="0.62" stop-color="#F58720"/>
<stop offset="0.72" stop-color="#F48120"/>
<stop offset="1" stop-color="#F37521"/>
</linearGradient>
<linearGradient id="paint1_linear_13004_283951" x1="30.5262" y1="8.24927" x2="25.8518" y2="-0.886223" gradientUnits="userSpaceOnUse">
<stop stop-color="#F58720"/>
<stop offset="0.36" stop-color="#E16F27"/>
<stop offset="0.7" stop-color="#D4602C"/>
<stop offset="0.98" stop-color="#D05B2E"/>
</linearGradient>
</defs>
</svg>
