<svg preserveAspectRatio="none" width="100%" height="100%" overflow="visible" style="display: block;" viewBox="0 0 16 16" fill="none" xmlns="http://www.w3.org/2000/svg">
<g id="icon/Magic eraser" style="mix-blend-mode:plus-darker">
<g id="Vector">
<path fill-rule="evenodd" clip-rule="evenodd" d="M3.9256 12.2754C3.06098 11.588 2.91731 10.3299 3.60471 9.46526L8.56183 3.2301C9.24922 2.36548 10.5074 2.22181 11.372 2.90921L13.5925 4.67459C14.4571 5.36199 14.6008 6.62014 13.9134 7.48476L8.9563 13.7199C8.26891 14.5845 7.01075 14.7282 6.14614 14.0408L3.9256 12.2754ZM7.75561 5.85107L9.34459 3.85242C9.68829 3.42011 10.3174 3.34828 10.7497 3.69197L12.9702 5.45736C13.4025 5.80105 13.4744 6.43013 13.1307 6.86244L11.5417 8.86109L7.75561 5.85107ZM7.1333 6.63383L4.38747 10.0876C4.04377 10.5199 4.11561 11.149 4.54792 11.4927L6.76845 13.258C7.20076 13.6017 7.82984 13.5299 8.17354 13.0976L10.9194 9.64385L7.1333 6.63383Z" fill="var(--fill-0, #86868A)"/>
<path d="M2.34036 2.25664C2.42333 1.91445 2.91 1.91445 2.99298 2.25664L3.22129 3.19819C3.25091 3.32036 3.3463 3.41575 3.46847 3.44538L4.41003 3.67369C4.75221 3.75667 4.75221 4.24333 4.41003 4.32631L3.46847 4.55462C3.3463 4.58425 3.25091 4.67964 3.22129 4.80181L2.99298 5.74336C2.91 6.08555 2.42333 6.08555 2.34036 5.74336L2.11204 4.80181C2.08242 4.67964 1.98703 4.58425 1.86486 4.55462L0.923308 4.32631C0.58112 4.24333 0.58112 3.75667 0.923307 3.67369L1.86486 3.44538C1.98703 3.41575 2.08242 3.32036 2.11204 3.19819L2.34036 2.25664Z" fill="var(--fill-0, #86868A)"/>
<path fill-rule="evenodd" clip-rule="evenodd" d="M2.66667 2.62073L2.50362 3.29314C2.43844 3.56192 2.22859 3.77178 1.95981 3.83695L1.2874 4L1.95981 4.16305C2.22859 4.22823 2.43844 4.43808 2.50362 4.70686L2.66667 5.37927L2.82972 4.70686C2.89489 4.43808 3.10475 4.22823 3.37352 4.16305L4.04594 4L3.37352 3.83695C3.10475 3.77178 2.89489 3.56192 2.82972 3.29314L2.66667 2.62073ZM2.99298 2.25664C2.91 1.91445 2.42333 1.91445 2.34036 2.25664L2.11204 3.19819C2.08242 3.32036 1.98703 3.41575 1.86486 3.44538L0.923307 3.67369C0.58112 3.75667 0.58112 4.24333 0.923308 4.32631L1.86486 4.55462C1.98703 4.58425 2.08242 4.67964 2.11204 4.80181L2.34036 5.74336C2.42333 6.08555 2.91 6.08555 2.99298 5.74336L3.22129 4.80181C3.25091 4.67964 3.3463 4.58425 3.46847 4.55462L4.41003 4.32631C4.75221 4.24333 4.75221 3.75667 4.41003 3.67369L3.46847 3.44538C3.3463 3.41575 3.25091 3.32036 3.22129 3.19819L2.99298 2.25664Z" fill="var(--fill-0, #86868A)"/>
<path fill-rule="evenodd" clip-rule="evenodd" d="M6.73333 14C6.73333 13.6686 7.00196 13.4 7.33333 13.4L14.6667 13.4C14.998 13.4 15.2667 13.6686 15.2667 14C15.2667 14.3314 14.998 14.6 14.6667 14.6H7.33333C7.00196 14.6 6.73333 14.3314 6.73333 14Z" fill="var(--fill-0, #86868A)"/>
<path d="M7.33333 1.33333C7.33333 1.70152 7.03486 2 6.66667 2C6.29848 2 6 1.70152 6 1.33333C6 0.965144 6.29848 0.666667 6.66667 0.666667C7.03486 0.666667 7.33333 0.965144 7.33333 1.33333Z" fill="var(--fill-0, #86868A)"/>
<path d="M2.66667 14C2.66667 14.3682 2.36819 14.6667 2 14.6667C1.63181 14.6667 1.33333 14.3682 1.33333 14C1.33333 13.6318 1.63181 13.3333 2 13.3333C2.36819 13.3333 2.66667 13.6318 2.66667 14Z" fill="var(--fill-0, #86868A)"/>
<path d="M15.3333 1.33333C15.3333 1.70152 15.0349 2 14.6667 2C14.2985 2 14 1.70152 14 1.33333C14 0.965144 14.2985 0.666667 14.6667 0.666667C15.0349 0.666667 15.3333 0.965144 15.3333 1.33333Z" fill="var(--fill-0, #86868A)"/>
<path fill-rule="evenodd" clip-rule="evenodd" d="M7.75561 5.85107L9.34459 3.85242C9.68829 3.42011 10.3174 3.34828 10.7497 3.69197L12.9702 5.45736C13.4025 5.80105 13.4744 6.43013 13.1307 6.86244L11.5417 8.86109L7.75561 5.85107ZM7.94296 5.82967L11.5203 8.67375L13.0263 6.77946C13.3242 6.4048 13.2619 5.8596 12.8872 5.56173L10.6667 3.79634C10.292 3.49847 9.74683 3.56073 9.44896 3.93539L7.94296 5.82967ZM7.15469 6.82118L4.49184 10.1706C4.19397 10.5452 4.25622 11.0904 4.63089 11.3883L6.85143 13.1537C7.2261 13.4516 7.7713 13.3893 8.06917 13.0146L10.732 9.66525L7.15469 6.82118ZM4.38747 10.0876C4.04377 10.5199 4.11561 11.149 4.54792 11.4927L6.76845 13.258C7.20076 13.6017 7.82984 13.5299 8.17354 13.0976L10.9194 9.64385L7.1333 6.63383L4.38747 10.0876ZM3.84262 12.3798C2.92036 11.6466 2.76712 10.3045 3.50034 9.38229L8.45746 3.14712C9.19068 2.22487 10.5327 2.07162 11.455 2.80484L13.6755 4.57023C14.5978 5.30345 14.751 6.64548 14.0178 7.56773L9.06067 13.8029C8.32745 14.7252 6.98542 14.8784 6.06316 14.1452L3.84262 12.3798ZM3.60471 9.46526C2.91731 10.3299 3.06098 11.588 3.9256 12.2754L6.14614 14.0408C7.01075 14.7282 8.26891 14.5845 8.9563 13.7199L13.9134 7.48476C14.6008 6.62014 14.4571 5.36199 13.5925 4.67459L11.372 2.90921C10.5074 2.22181 9.24922 2.36548 8.56183 3.2301L3.60471 9.46526Z" fill="var(--fill-0, #86868A)"/>
<path fill-rule="evenodd" clip-rule="evenodd" d="M6.73333 14C6.73333 13.6686 7.00196 13.4 7.33333 13.4L14.6667 13.4C14.998 13.4 15.2667 13.6686 15.2667 14C15.2667 14.3314 14.998 14.6 14.6667 14.6H7.33333C7.00196 14.6 6.73333 14.3314 6.73333 14Z" fill="var(--fill-0, #86868A)"/>
</g>
</g>
</svg>
