<svg preserveAspectRatio="none" width="100%" height="100%" overflow="visible" style="display: block;" viewBox="0 0 16 16" fill="none" xmlns="http://www.w3.org/2000/svg">
<g id="icon/Magic pencil B" style="mix-blend-mode:plus-darker">
<g id="Vector">
<path d="M4.49228 14.2437H5.97887C6.44831 14.2437 6.91776 14.0481 7.23073 13.7352C7.54369 13.4222 7.7393 12.9528 7.7393 12.4833L7.73933 4.56133L5.74418 2.09673C5.50946 1.78376 5.05957 1.7642 4.78573 2.03805C4.76617 2.05761 4.74661 2.07717 4.72704 2.09673L2.73189 4.56133L2.73185 12.4833C2.73185 13.4613 3.51427 14.2437 4.49228 14.2437ZM4.06199 5.03078L5.23561 3.58331L6.40923 5.03078L6.42875 8.19961L6.42875 9.41235L4.0424 9.41235L4.0424 8.19961L4.06199 5.03078ZM4.06196 12.4833L4.04239 10.7424L6.42875 10.7424L6.40919 12.4833C6.40919 12.6398 6.33095 12.7572 6.29183 12.7963C6.25271 12.8354 6.13535 12.9136 5.97887 12.9136H4.49228C4.25756 12.9136 4.06195 12.718 4.06196 12.4833Z" fill="var(--fill-0, #86868A)"/>
<path d="M11.5649 2.34104C11.6755 1.88479 12.3244 1.88479 12.4351 2.34104L12.7395 3.59644C12.779 3.75934 12.9062 3.88652 13.069 3.92602L14.3245 4.23044C14.7807 4.34107 14.7807 4.98996 14.3245 5.1006L13.069 5.40502C12.9062 5.44451 12.779 5.5717 12.7395 5.73459L12.4351 6.99C12.3244 7.44625 11.6755 7.44625 11.5649 6.99L11.2605 5.73459C11.221 5.5717 11.0938 5.44451 10.9309 5.40502L9.67549 5.1006C9.21924 4.98996 9.21924 4.34107 9.67549 4.23044L10.9309 3.92602C11.0938 3.88652 11.221 3.75934 11.2605 3.59644L11.5649 2.34104Z" fill="var(--fill-0, #86868A)"/>
<path fill-rule="evenodd" clip-rule="evenodd" d="M12 2.82649L11.7826 3.72304C11.6957 4.08141 11.4159 4.36122 11.0575 4.44812L10.1609 4.66552L11.0575 4.88292C11.4159 4.96982 11.6957 5.24963 11.7826 5.60799L12 6.50455L12.2174 5.60799C12.3043 5.24963 12.5841 4.96982 12.9424 4.88292L13.839 4.66552L12.9424 4.44812C12.5841 4.36122 12.3043 4.08141 12.2174 3.72304L12 2.82649ZM12.4351 2.34104C12.3244 1.88479 11.6755 1.88479 11.5649 2.34104L11.2605 3.59644C11.221 3.75934 11.0938 3.88652 10.9309 3.92602L9.67549 4.23044C9.21924 4.34107 9.21924 4.98996 9.67549 5.1006L10.9309 5.40502C11.0938 5.44451 11.221 5.5717 11.2605 5.73459L11.5649 6.99C11.6755 7.44625 12.3244 7.44625 12.4351 6.99L12.7395 5.73459C12.779 5.5717 12.9062 5.44451 13.069 5.40502L14.3245 5.1006C14.7807 4.98996 14.7807 4.34107 14.3245 4.23044L13.069 3.92602C12.9062 3.88652 12.779 3.75934 12.7395 3.59644L12.4351 2.34104Z" fill="var(--fill-0, #86868A)"/>
<path d="M11.3333 10.6655C11.3333 11.0337 11.0348 11.3322 10.6666 11.3322C10.2984 11.3322 9.99997 11.0337 9.99997 10.6655C9.99997 10.2973 10.2984 9.99885 10.6666 9.99885C11.0348 9.99885 11.3333 10.2973 11.3333 10.6655Z" fill="var(--fill-0, #86868A)"/>
<path d="M13.3333 13.3322C13.3333 13.7004 13.0348 13.9989 12.6666 13.9989C12.2984 13.9989 12 13.7004 12 13.3322C12 12.964 12.2984 12.6655 12.6666 12.6655C13.0348 12.6655 13.3333 12.964 13.3333 13.3322Z" fill="var(--fill-0, #86868A)"/>
<path d="M14.6666 9.33219C14.6666 9.70038 14.3682 9.99885 14 9.99885C13.6318 9.99885 13.3333 9.70038 13.3333 9.33219C13.3333 8.964 13.6318 8.66552 14 8.66552C14.3682 8.66552 14.6666 8.964 14.6666 9.33219Z" fill="var(--fill-0, #86868A)"/>
</g>
</g>
</svg>
