<svg preserveAspectRatio="none" width="100%" height="100%" overflow="visible" style="display: block;" viewBox="0 0 26.6045 15.9404" fill="none" xmlns="http://www.w3.org/2000/svg">
<g id="Mastercard">
<path id="Left" d="M18.5381 0C22.9928 6.87506e-05 26.6043 3.56807 26.6045 7.96973C26.6045 12.3715 22.9929 15.9404 18.5381 15.9404C16.539 15.9404 14.711 15.2202 13.3018 14.0303C11.8926 15.22 10.0652 15.9404 8.06641 15.9404C3.61177 15.9403 0.000248391 12.3723 0 7.9707C0 3.5689 3.61162 9.53574e-05 8.06641 0C10.065 0 11.8926 0.719736 13.3018 1.90918C14.711 0.719389 16.5392 0 18.5381 0Z" fill="var(--fill-0, #ED0006)"/>
<path id="Right" d="M18.5292 0C22.9839 0 26.5954 3.56803 26.5956 7.96973C26.5956 12.3716 22.984 15.9404 18.5292 15.9404C16.5321 15.9404 14.7063 15.2211 13.2977 14.0332C15.0308 12.5713 16.1307 10.3978 16.1307 7.96973C16.1306 5.54162 15.0309 3.36806 13.2977 1.90625C14.7063 0.718558 16.5323 7.47643e-05 18.5292 0Z" fill="var(--fill-0, #F9A000)"/>
<path id="Middle" d="M13.2989 1.9126C15.0322 3.37449 16.1329 5.54692 16.1329 7.9751C16.1329 10.4033 15.0322 12.5757 13.2989 14.0376C11.5659 12.5757 10.465 10.4032 10.465 7.9751C10.465 5.54706 11.5659 3.37448 13.2989 1.9126Z" fill="var(--fill-0, #FF5E00)"/>
</g>
</svg>
