<svg preserveAspectRatio="none" width="100%" height="100%" overflow="visible" style="display: block;" viewBox="0 0 10 9.91075" fill="none" xmlns="http://www.w3.org/2000/svg">
<g id="Group">
<path id="Vector" d="M3.83545 3.6075V2.66597C3.83545 2.58667 3.86521 2.52719 3.93455 2.48757L5.82756 1.39741C6.08524 1.24875 6.39248 1.17941 6.70958 1.17941C7.89885 1.17941 8.65212 2.10113 8.65212 3.08226C8.65212 3.15162 8.65212 3.23091 8.64219 3.31021L6.67984 2.16054C6.56093 2.09118 6.44195 2.09118 6.32304 2.16054L3.83545 3.6075ZM8.25565 7.2745V5.02471C8.25565 4.88591 8.19614 4.78683 8.07725 4.71747L5.58966 3.27051L6.40234 2.80467C6.4717 2.76507 6.53118 2.76507 6.60054 2.80467L8.49353 3.89485C9.03867 4.21203 9.40532 4.88591 9.40532 5.54C9.40532 6.29319 8.95937 6.98696 8.25565 7.27442V7.2745ZM3.25072 5.29236L2.43804 4.81667C2.3687 4.77706 2.33894 4.71757 2.33894 4.63828V2.45793C2.33894 1.39749 3.15162 0.594664 4.25173 0.594664C4.66804 0.594664 5.05448 0.733467 5.38162 0.981206L3.4292 2.11109C3.31031 2.18043 3.25082 2.27953 3.25082 2.41831V5.29245L3.25072 5.29236ZM4.99999 6.30323L3.83545 5.64914V4.26169L4.99999 3.6076L6.16445 4.26169V5.64914L4.99999 6.30323ZM5.74825 9.31615C5.33196 9.31615 4.94552 9.17737 4.61838 8.92961L6.57078 7.79974C6.68969 7.7304 6.74918 7.6313 6.74918 7.4925V4.61838L7.57181 5.09407C7.64115 5.13367 7.67092 5.19316 7.67092 5.27245V7.4528C7.67092 8.51324 6.84828 9.31606 5.74825 9.31606V9.31615ZM3.39938 7.10606L1.50636 6.01588C0.961232 5.69869 0.594581 5.02482 0.594581 4.37073C0.594581 3.6076 1.05048 2.92377 1.7541 2.63633V4.89597C1.7541 5.03475 1.81361 5.13386 1.9325 5.2032L4.41024 6.64022L3.59756 7.10606C3.52822 7.14566 3.46871 7.14566 3.39938 7.10606ZM3.29042 8.73142C2.17049 8.73142 1.34788 7.889 1.34788 6.84836C1.34788 6.76907 1.35781 6.68977 1.36767 6.61048L3.32008 7.74034C3.43897 7.8097 3.55797 7.8097 3.67686 7.74034L6.16445 6.30333V7.24484C6.16445 7.32416 6.13471 7.38364 6.06535 7.42324L4.17236 8.51342C3.91466 8.66206 3.60741 8.73142 3.29032 8.73142H3.29042ZM5.74825 9.91075C6.94747 9.91075 7.9484 9.05845 8.17643 7.92859C9.28642 7.64115 10 6.60052 10 5.5401C10 4.84632 9.70271 4.17244 9.16751 3.68679C9.21706 3.47865 9.24681 3.27051 9.24681 3.06247C9.24681 1.64525 8.09714 0.584729 6.76907 0.584729C6.50154 0.584729 6.24385 0.624325 5.98615 0.713576C5.5401 0.277482 4.92563 0 4.25173 0C3.05253 0 2.0516 0.852276 1.82357 1.98214C0.713576 2.26958 0 3.31021 0 4.37063C0 5.06441 0.297291 5.73829 0.832488 6.22394C0.782936 6.43208 0.753193 6.64022 0.753193 6.84826C0.753193 8.26548 1.90286 9.326 3.23091 9.326C3.49846 9.326 3.75615 9.2864 4.01385 9.19715C4.45979 9.63325 5.07427 9.91075 5.74825 9.91075Z" fill="currentColor"/>
</g>
</svg>
