<svg preserveAspectRatio="none" width="100%" height="100%" overflow="visible" style="display: block;" viewBox="0 0 16 16" fill="none" xmlns="http://www.w3.org/2000/svg">
<g id="icon/prompt A" style="mix-blend-mode:plus-darker">
<g id="Vector">
<path fill-rule="evenodd" clip-rule="evenodd" d="M5.33333 4.66787C5.33333 4.29968 5.63181 4.00121 6 4.00121H10C10.3682 4.00121 10.6667 4.29968 10.6667 4.66787C10.6667 5.03606 10.3682 5.33454 10 5.33454H8.66667V10.6679H10C10.3682 10.6679 10.6667 10.9663 10.6667 11.3345C10.6667 11.7027 10.3682 12.0012 10 12.0012H6C5.63181 12.0012 5.33333 11.7027 5.33333 11.3345C5.33333 10.9663 5.63181 10.6679 6 10.6679H7.33333V5.33454H6C5.63181 5.33454 5.33333 5.03606 5.33333 4.66787Z" fill="var(--fill-0, #86868A)"/>
<path d="M12.6667 14.6679C12.6667 15.0361 12.3682 15.3345 12 15.3345C11.6318 15.3345 11.3333 15.0361 11.3333 14.6679C11.3333 14.2997 11.6318 14.0012 12 14.0012C12.3682 14.0012 12.6667 14.2997 12.6667 14.6679Z" fill="var(--fill-0, #86868A)"/>
<path d="M15.3333 12.0012C15.3333 12.3694 15.0349 12.6679 14.6667 12.6679C14.2985 12.6679 14 12.3694 14 12.0012C14 11.633 14.2985 11.3345 14.6667 11.3345C15.0349 11.3345 15.3333 11.633 15.3333 12.0012Z" fill="var(--fill-0, #86868A)"/>
<path fill-rule="evenodd" clip-rule="evenodd" d="M6.00308 14.8777C5.88721 15.1881 5.54161 15.3459 5.23115 15.23C3.2202 14.4794 1.60488 12.9213 0.779823 10.9498C0.651898 10.6441 0.796 10.2926 1.10168 10.1646C1.40737 10.0367 1.75887 10.1808 1.8868 10.4865C2.58414 12.1528 3.95103 13.4713 5.65076 14.1057C5.96122 14.2216 6.11895 14.5672 6.00308 14.8777Z" fill="var(--fill-0, #86868A)"/>
<path fill-rule="evenodd" clip-rule="evenodd" d="M14.8769 6.01505C14.5665 6.13116 14.2208 5.97369 14.1047 5.66333C13.4653 3.95423 12.1314 2.58168 10.4462 1.88954C10.1397 1.76364 9.99327 1.4131 10.1192 1.10658C10.2451 0.800052 10.5956 0.653626 10.9021 0.779523C12.8951 1.59809 14.4718 3.21985 15.2286 5.24285C15.3447 5.55321 15.1872 5.89894 14.8769 6.01505Z" fill="var(--fill-0, #86868A)"/>
<path d="M2.47369 1.05785C2.55667 0.71566 3.04333 0.715659 3.12631 1.05785L3.35462 1.9994C3.38425 2.12157 3.47964 2.21696 3.60181 2.24658L4.54336 2.4749C4.88555 2.55787 4.88555 3.04454 4.54336 3.12752L3.60181 3.35583C3.58654 3.35953 3.57168 3.36426 3.55732 3.36994C3.45682 3.40972 3.38054 3.49611 3.35462 3.60301L3.12631 4.54457C3.12112 4.56595 3.11436 4.586 3.10622 4.60472C2.98408 4.88542 2.55148 4.86537 2.47369 4.54457L2.24538 3.60301C2.24353 3.59538 2.24142 3.58785 2.23906 3.58043C2.20372 3.46918 2.11273 3.3836 1.99819 3.35583L1.05664 3.12752C1.03525 3.12233 1.0152 3.11557 0.996491 3.10742C0.71579 2.98528 0.73584 2.55269 1.05664 2.4749L1.99819 2.24658C2.12036 2.21696 2.21575 2.12157 2.24538 1.9994L2.47369 1.05785Z" fill="var(--fill-0, #86868A)"/>
</g>
</g>
</svg>
