<svg preserveAspectRatio="none" width="100%" height="100%" overflow="visible" style="display: block;" viewBox="0 0 17.9908 17.9908" fill="none" xmlns="http://www.w3.org/2000/svg">
<g id="radio">
<path d="M8.99512 0.5C13.687 0.5 17.4911 4.30323 17.4912 8.99512C17.4912 13.6871 13.6871 17.4912 8.99512 17.4912C4.30323 17.4911 0.5 13.687 0.5 8.99512C0.500144 4.30332 4.30332 0.500144 8.99512 0.5Z" fill="var(--fill-0, #F3533F)"/>
<path d="M8.99512 0.5C13.687 0.5 17.4911 4.30323 17.4912 8.99512C17.4912 13.6871 13.6871 17.4912 8.99512 17.4912C4.30323 17.4911 0.5 13.687 0.5 8.99512C0.500144 4.30332 4.30332 0.500144 8.99512 0.5Z" stroke="var(--stroke-0, #F3533F)" stroke-width="0.999487"/>
<path d="M8.99512 0.5C13.687 0.5 17.4911 4.30323 17.4912 8.99512C17.4912 13.6871 13.6871 17.4912 8.99512 17.4912C4.30323 17.4911 0.5 13.687 0.5 8.99512C0.500144 4.30332 4.30332 0.500144 8.99512 0.5Z" stroke="var(--stroke-1, white)" stroke-opacity="0.1" stroke-width="0.999487"/>
<g id="Ellipse 7093" filter="url(#filter0_d_13004_283948)">
<circle cx="8.99538" cy="8.99538" r="3.85516" fill="var(--fill-0, white)"/>
</g>
</g>
<defs>
<filter id="filter0_d_13004_283948" x="3.14124" y="4.14073" width="11.7083" height="11.7083" filterUnits="userSpaceOnUse" color-interpolation-filters="sRGB">
<feFlood flood-opacity="0" result="BackgroundImageFix"/>
<feColorMatrix in="SourceAlpha" type="matrix" values="0 0 0 0 0 0 0 0 0 0 0 0 0 0 0 0 0 0 127 0" result="hardAlpha"/>
<feOffset dy="0.999487"/>
<feGaussianBlur stdDeviation="0.999487"/>
<feComposite in2="hardAlpha" operator="out"/>
<feColorMatrix type="matrix" values="0 0 0 0 0 0 0 0 0 0 0 0 0 0 0 0 0 0 0.1 0"/>
<feBlend mode="normal" in2="BackgroundImageFix" result="effect1_dropShadow_13004_283948"/>
<feBlend mode="normal" in="SourceGraphic" in2="effect1_dropShadow_13004_283948" result="shape"/>
</filter>
</defs>
</svg>
