<svg preserveAspectRatio="none" width="100%" height="100%" overflow="visible" style="display: block;" viewBox="0 0 16 16" fill="none" xmlns="http://www.w3.org/2000/svg">
<g id="icon/Regenerate A">
<g id="Vector">
<path d="M3.39882 3.06771C5.85076 1.02003 9.43126 0.899413 12.055 2.71357L11.9473 1.71797C11.903 1.36538 12.1619 1.04503 12.5286 1.00428C12.8942 0.963657 13.2257 1.21674 13.2713 1.56894L13.6044 4.31575C13.6307 4.5058 13.5682 4.69765 13.4324 4.83807L13.4246 4.84609L13.3819 4.88177L13.3813 4.88228C13.2546 4.98724 13.092 5.04162 12.9259 5.03566L10.5874 5.42306L10.561 5.42108C10.1948 5.39366 9.91809 5.08497 9.94266 4.73114C9.96606 4.39431 10.254 4.13719 10.5972 4.13455L11.3617 3.81428C8.95252 2.08828 5.56126 2.44289 3.63668 4.67184C1.63743 6.98728 1.97309 10.454 4.39308 12.4142C6.54157 14.1544 9.65995 14.143 11.7559 12.392L11.759 12.3896C13.0991 11.3113 13.8034 9.6618 13.6442 7.97136C13.6083 7.61761 13.8755 7.303 14.2434 7.27117C14.6095 7.23949 14.9345 7.50013 14.9709 7.85311L14.9711 7.85445C15.1741 9.96088 14.3004 12.0206 12.6303 13.3701C9.71145 15.8065 5.28103 15.4723 2.73315 12.6296C0.184887 9.7864 0.479947 5.50534 3.39882 3.06771Z" fill="var(--fill-0, #F3533F)"/>
<path d="M7.10175 5.67552C6.99111 5.21927 6.34222 5.21927 6.23159 5.67552L5.92717 6.93093C5.88767 7.09382 5.76049 7.22101 5.59759 7.26051L4.34219 7.56492C3.88594 7.67556 3.88594 8.32445 4.34219 8.43508L5.59759 8.7395C5.76049 8.779 5.88767 8.90618 5.92717 9.06908L6.23159 10.3245C6.34222 10.7807 6.99111 10.7807 7.10175 10.3245L7.40617 9.06908C7.44566 8.90618 7.57285 8.779 7.73574 8.7395L8.99115 8.43508C9.4474 8.32445 9.4474 7.67556 8.99115 7.56492L7.73574 7.26051C7.57285 7.22101 7.44567 7.09382 7.40617 6.93093L7.10175 5.67552Z" fill="var(--fill-0, #F3533F)"/>
<path d="M8.66667 11.3333C8.66667 11.7015 8.96515 12 9.33334 12C9.70153 12 10 11.7015 10 11.3333C10 10.9651 9.70153 10.6667 9.33334 10.6667C8.96515 10.6667 8.66667 10.9651 8.66667 11.3333Z" fill="var(--fill-0, #F3533F)"/>
<path d="M11.3333 8.66667C10.9651 8.66667 10.6667 8.36819 10.6667 8C10.6667 7.63181 10.9651 7.33334 11.3333 7.33334C11.7015 7.33334 12 7.63181 12 8C12 8.36819 11.7015 8.66667 11.3333 8.66667Z" fill="var(--fill-0, #F3533F)"/>
</g>
</g>
</svg>
