<svg preserveAspectRatio="none" width="100%" height="100%" overflow="visible" style="display: block;" viewBox="0 0 47.6577 19.9897" fill="none" xmlns="http://www.w3.org/2000/svg">
<g id="Stripe wordmark - White 1" clip-path="url(#clip0_13004_283962)">
<path id="Vector" fill-rule="evenodd" clip-rule="evenodd" d="M47.658 10.3366C47.658 6.94758 46.0164 4.27346 42.879 4.27346C39.7283 4.27346 37.822 6.94758 37.822 10.3101C37.822 14.2948 40.0725 16.307 43.3026 16.307C44.8779 16.307 46.0694 15.9496 46.9696 15.4465V12.7989C46.0694 13.249 45.0368 13.527 43.7262 13.527C42.4421 13.527 41.3036 13.0769 41.158 11.5148H47.6315C47.6315 11.3427 47.658 10.6543 47.658 10.3366ZM41.1183 9.07894C41.1183 7.58302 42.0317 6.96082 42.8657 6.96082C43.6733 6.96082 44.5338 7.58302 44.5338 9.07894H41.1183Z" fill="var(--fill-0, white)"/>
<path id="Vector_2" fill-rule="evenodd" clip-rule="evenodd" d="M32.71 4.27346C31.4126 4.27346 30.5786 4.88241 30.1153 5.30604L29.9432 4.48527H27.0308V19.921L30.3403 19.2194L30.3536 15.473C30.8302 15.8172 31.5318 16.307 32.6967 16.307C35.0664 16.307 37.2242 14.4007 37.2242 10.2042C37.211 6.3651 35.0267 4.27346 32.71 4.27346ZM31.9157 13.3946C31.1346 13.3946 30.6713 13.1166 30.3536 12.7724L30.3403 7.86102C30.6845 7.47711 31.1611 7.21235 31.9157 7.21235C33.1204 7.21235 33.9544 8.56265 33.9544 10.2969C33.9544 12.0708 33.1336 13.3946 31.9157 13.3946Z" fill="var(--fill-0, white)"/>
<path id="Vector_3" fill-rule="evenodd" clip-rule="evenodd" d="M22.4764 3.49866L25.7991 2.78379V0.0964293L22.4764 0.798056V3.49866Z" fill="var(--fill-0, white)"/>
<path id="Vector_4" d="M25.7991 4.49094H22.4764V16.0744H25.7991V4.49094Z" fill="var(--fill-0, white)"/>
<path id="Vector_5" fill-rule="evenodd" clip-rule="evenodd" d="M18.9207 5.47948L18.7089 4.49985H15.8494V16.0833H19.159V8.23303C19.94 7.21369 21.2638 7.39902 21.6742 7.54464V4.49985C21.2506 4.34099 19.7017 4.04975 18.9207 5.47948Z" fill="var(--fill-0, white)"/>
<path id="Vector_6" fill-rule="evenodd" clip-rule="evenodd" d="M12.2931 1.61884L9.06297 2.30723L9.04974 12.9111C9.04974 14.8703 10.5192 16.3133 12.4784 16.3133C13.564 16.3133 14.3583 16.1147 14.7951 15.8764V13.1891C14.3715 13.3611 12.2799 13.9701 12.2799 12.0109V7.31128H14.7951V4.49154H12.2799L12.2931 1.61884Z" fill="var(--fill-0, white)"/>
<path id="Vector_7" fill-rule="evenodd" clip-rule="evenodd" d="M3.34772 7.86102C3.34772 7.34473 3.77134 7.14615 4.47297 7.14615C5.47908 7.14615 6.74995 7.45063 7.75605 7.9934V4.88242C6.65728 4.44555 5.57174 4.27346 4.47297 4.27346C1.78561 4.27346 -0.00155531 5.67671 -0.00155531 8.01988C-0.00155531 11.6736 5.02898 11.0911 5.02898 12.6665C5.02898 13.2754 4.49945 13.474 3.75811 13.474C2.65933 13.474 1.25608 13.0239 0.144065 12.415V15.5656C1.37522 16.0952 2.61962 16.3202 3.75811 16.3202C6.51166 16.3202 8.40473 14.9567 8.40473 12.5871C8.39149 8.64208 3.34772 9.3437 3.34772 7.86102Z" fill="var(--fill-0, white)"/>
</g>
<defs>
<clipPath id="clip0_13004_283962">
<rect width="47.6577" height="19.9897" fill="white"/>
</clipPath>
</defs>
</svg>
