<svg preserveAspectRatio="none" width="100%" height="100%" overflow="visible" style="display: block;" viewBox="0 0 42.8192 17.1277" fill="none" xmlns="http://www.w3.org/2000/svg">
<g id="Visa">
<path id="visa-logo" fill-rule="evenodd" clip-rule="evenodd" d="M12.7551 13.8417H9.78973L7.56606 5.10875C7.46051 4.70703 7.23641 4.35189 6.90676 4.18451C6.08409 3.76387 5.17756 3.42911 4.18861 3.26027V2.92405H8.96561C9.62491 2.92405 10.1194 3.42911 10.2018 4.01567L11.3556 10.3151L14.3195 2.92405H17.2025L12.7551 13.8417ZM18.8486 13.8417H16.048L18.3541 2.92405H21.1547L18.8486 13.8417ZM24.7777 5.9509C24.8602 5.36288 25.3546 5.02666 25.9315 5.02666C26.838 4.94224 27.8255 5.11108 28.6497 5.53026L29.1441 3.17964C28.32 2.84342 27.4135 2.67458 26.5908 2.67458C23.8727 2.67458 21.8948 4.18684 21.8948 6.28566C21.8948 7.88234 23.2958 8.72071 24.2847 9.22576C25.3546 9.72936 25.7667 10.0656 25.6843 10.5692C25.6843 11.3246 24.8602 11.6608 24.0375 11.6608C23.0485 11.6608 22.0596 11.409 21.1545 10.9884L20.66 13.3404C21.649 13.7596 22.7189 13.9285 23.7078 13.9285C26.7556 14.0114 28.6497 12.5006 28.6497 10.233C28.6497 7.37728 24.7777 7.2099 24.7777 5.9509V5.9509ZM38.45 13.8417L36.2263 2.92405H33.8378C33.3433 2.92405 32.8489 3.26027 32.684 3.76387L28.5663 13.8417H31.4493L32.0247 12.2465H35.567L35.8967 13.8417H38.45ZM34.2524 5.87292L35.075 9.9876H32.7689L34.2524 5.87292Z" fill="#1A1F71"/>
</g>
</svg>
